<mxfile host="65bd71144e">
    <diagram id="McLlqYx8HuoQvdlLvpPB" name="第 1 页">
        <mxGraphModel dx="2758" dy="633" grid="1" gridSize="10" guides="1" tooltips="1" connect="1" arrows="1" fold="1" page="1" pageScale="1" pageWidth="1654" pageHeight="2336" math="0" shadow="0">
            <root>
                <mxCell id="0"/>
                <mxCell id="1" parent="0"/>
                <mxCell id="2" value="" style="shape=image;verticalLabelPosition=bottom;labelBackgroundColor=#ffffff;verticalAlign=top;aspect=fixed;imageAspect=0;image=data:image/png,iVBORw0KGgoAAAANSUhEUgAABHUAAALsCAYAAABtK4ucAAAgAElEQVR4nOzdd1wU1xbA8d/MNlh6kSIqIliwN+y9xZIYNSamm15eXnrv7aVHX8pLNcVETTEmxlgSe+8NUVQUFQQsSO/bZt8fgAICgg3R8/18/LDMzszeuYs7d8/cc0bZenCVEyGEEEIIIYQQQghRr6h13QAhhBBCCCGEEEIIUXv6um6AEEIIIapmK7Sw8csvMHl6Yvb3q+vmCCHEFcWWl09eaioRQ4cQ1LZtXTdHCCFOI0EdIYQQ4hKmOezkpaaSl5pKenx8XTdHCCGuSDlHjkhQRwhxSZKgjhBCCHEJ0xmKT9WB7dvTbOCgOm6NEEJcWdLj49k3fx5eISF13RQhhKiUBHWEEEKIS5iiKMU/dTp0BmMdt0YIIa4sqq7465KiSilSIcSlqdZBneOxu4n9czauPr4Y3d0vRJuEEEJUoSg7C0tODt3vfwA3qa8ihBBCCCHEFa3WQR1LTjbWvHzsRRZUve5CtEkIIUQVNLsdze7AbrHUdVOEEEIIIYQQdazWQR33wCAAwocMJbBtu/PeICGEEFVLWLOK5A0bMHnITEkhhBBCCCGudJIcKoQQQgghhBBCCFEPSVBHCCGEEEIIIYQQoh6SoI4QQgghhBBCCCFEPSS3NBdCCCGEEOU4jq1n+g+7sQcG0bhtZwZ0DcZY3QYFWWTijY+5mnW0TPZt3Ee2ix8BTRrSyM+M3HKjlJ1jMdtJdPgQ3LghDf3NNR6kWw+t4OdFRbQe0ZeoJm4XtJVCCCEuPRLUEUIIIYS4zFnjFvPdX4ng4YZrZaM/zYG1sAB72CDuHh2B0ZRPwj9zWFbUgK7XniBuWwTj7upDSGXbZsfx21uTmZnfh8deuJHeIYYqWmFj7++TmbTSgle7cbw8+XaivM/Ycnb/8gU/x2h4eLpiPIsokGYtIjdHR/s7HmBsZNm2OeCsw0oFrHznCb7a6UVIWBQTnh5P1zMeS3UcHFs9nRenHsLh3okHv3mZG8JrMEwvjGf2R98xdV0W/Dyfq196kceGBJU7KmuRBdXFJIN+IYS4TMnnuxBCCCHE5U7LIvavv4gpqm4lEx3+NbjkoRlXkwoFeez+50+2WLxINgfy2q3Nca2wlTX9CIdT80iL/Z3/PHmCB1+9j9GRldyhT3XHbFZRMdF25DA61ygIoqAvPMbGxbFYanSgVTCG0fBGZ7lF2fMnc9uHOzF6mTFVUZDA6SgiN7chN33+FO0S1pOIH0GNm9KqjQ9mVx2p+/dha3MtLc4poAOg4mo2owKGzt3pG1aDIbqWyZbvv2Hahiw0VAxGC7FT3+X+qaVtt1GQYyfijud5+fqm59pAIYQQlygJ6gghhBDi8mHZw/SnPuXvFO3UMgV0RjMefgGEtmpDz2H96NXC64pK/VHNJlwUMPe7m/fub495x688/P5mQm55gqdGhmBb/z1P/W8vZveSlChFRadTwNSKMRPdWf71ajZ98xU/hL/EvT29y/WdsdlAHpvkT/DbH/PdmlV88mw+ua/8mxu7+lToYwt2mxMN0Olq2vsKZrMrCmAe9ACf/btDhTQwBwm/T+L1n5PxCI/iun/fQv/GZSM0TuwWC/nZhbg0rfiaKkY3M+6uTjITjpKFN42bN8DNmkXCoRNYzQ0IDXbDXTOgKAopq6YxaXERrp1v5sOPx+DiakJBxcvHE5eSPdqT1/Dj9F0UurvhYlBRyrRDs1kpyLPSaPhdjOtYMZlNQa/XF7fJ0xPvM1a9zGXXjP/x7rTd5Jsa0KyZd5l+sZGZeJjjeeDZ4w4mjmlafeqcEEKIek2COkIIIYS4fDjtFKQfJznJdvpz8fHs2riOv39fyKCHHuXx8c2pZD7J5UlRUQHLzj94/eVkHrxejwKojgPMfGEmBQF2HICiKBU2VPEfOJGHjifyxux4fv94BpHNHqB/YPkAic6vHTe/8QIe703i04Wb+falDyl45THu7NXg1GBTs1BkdVI7CjpdcdsVk5mAxiHl37OCaOZuTMaqetPm6jGM7NYYnxqObr1GPcmsUUDmEl4b9wnLacetnzzNgP1TefDRP0hpNoxnv5xAccZWIWs8zCg4aN6rKxEuEFcasinTZ1r+MXbMX0B0VTOijC24Y1QVR6qAAihqxfegAnsqm374isnfbiXdpRlXP/80Dw8LORm4se79nWcfnMZxQxNG3DKEiKqy4YQQQlwWJKgjhBBCiMuS6tufp7++hU5GJ7acdA5uWc6vPyxld+Zhln3yFSHhb3BXp+oq+15+dH5+eKesZtbfDbGjcWL5ChKyPejX2gOVtMo3Un3pdd9ERsd8wDJXHbZ8O5XWonFrxjUvPINB9z7/XZFHVk4hWtnnNQtWixM4Q9CiOraD/P76FNbkuuHuakJnOcKOBBuqyUR+zFw+2TX35KoOWxEFeRZa3PoC9/U+8/usoqKvZmSsMxTPpDG7VV3gWeffhjHPPMk4H3fMRt3J28xq6Zv55j9z2Wf0x01JISXNHz8PU5nb0DrQSjtL07BbCsnJTic1z0ijZgEnZwJZj+3gz/9NYeriw+RrKm5NvClcN5MP1pXux0nBoWh25GnoAjzI3TSLLzcXL7cX5pHt2oE7HuxXeW0kIYQQ9ZJ8pNcRe84xEhLTyLOpGMxeNAwLwcdU162qPUdmIrHxmdgw4BPRimY+V9Jk9vqv6Oh+9iTn41Q8adQxFFPSPg6csIDei9COYfidcfp35ezZx0hISCPXasLsUUR+noqrf0PCm/rIFHAhxMWjGHFrEESwGQgOpknLVoQZsnh40mayCw+xbPkebu7U5eQX5iuBoUlfRjZfwYqUIjTAoTcSMuBqxrTbyNq/7ZyIXc8/7g3wNKWQYXeCM48jO7awwQsiR08g2DsQYlew3jmInuGVTAFxCWX4M88QNNpA604Ny3/mO61YLMUzdYosRdR2zg4AignyDrBtXYWpMPZkti5NruSAG9PsjtPHJtb4zSyOK8DsZsJYlEymHTAVkLJ5I5uPpFHkBC0/lb1rN5KmWci3mLE7ztw8nV8kA4d6snrqXOKjbuamLp4AFK3bTJ4G+ob+ZPz0PDcvLqhyH0XzPuDqecWPXXrew5TJo2miL2D/3O/5+ItlxJ6wlQTLNPIPbGPxgSp2lLqTBdN2llvkNiSSf8noXwghLivysX6xaels/mEKn83YSGK2o/ik7BLJPV/9h9ta17/5sba4JXz4xBwSnQ0ZP/m/PNyzYvnEOiR1FaqXs4ufXnmLaTF2mk14hg86N8Nk2cfMV6eyPsubPo+/wqs3hNUuCKNlEj1jCh9/v46DuRq492V8v538sSALTXUjdOAEnnzuGjp4X5E9LoSoc3pCurQlwrSZrYU20lOOk6lBsApg4cimpcyZs44tsUmk5oF7UChte/djzISBtPE99bll3beYb2buJlcJof8DI/Ff/yNfTt/A3uwwbv/kBW4IzyN23hxmLdjMrgMZFChm/EOb03XYKCaMbUdAhdFXQeJW/pmzgnVb95NwNJsCpyt+jUJp1TWK4WMH06Xhqas+1uj5fDY3HquuMYP+NZqwA//w47QlbIg9TqHBl6adejL2znEMiqgwM8VmwwZY965nS4sgvNVDACjmBgQXbmHGgkNYsLF/3ve8P6/shnHMeuNtZpVdpHox4q2+dMqax0dzj+Dq5YpBAafTSmG2Rvj19zC2UyVnD82GtUgDHByIS6CAxnjW9i1UXXFxUQAzg1//iucGVzHusMXyzT3/4dckl5L1y7PEr+Sz11aRX3Zh0Wa+e2bzqd8PLOajpxcDoGs0nJu716SBVvb8/D/e/n4PjpXQ5JN76d3AyYnDR0izq7g2C6Wpd2PadnXH081QbvxhOb6PrXuz0DVqSVS4B1phHjl+ppJ1zIR2jaJN8FriDG0Y2CKT5SuOEHjj83z57/Yl52obO754hudnHKPRLS/xvwfblCx3kvrX+9z7/laMrq5XVBBTCCGuBBLUucgKN83hsynrOOQw0LDnVQzrHIDJaSLc5xymIl9gjsxYFs/dS15oV0b3Dy3/JV+nx8XDA0+nCb1yltM6LhSpq1CNAmJ++ZHfYgrRhY3g7js746sCrUZy/92x7J+0gXXf/MifHZ/nhhY1D+tYd8zn8y/XcdAKHhHdGNSnPS0aBzM6fzPLVh8icfkMvmzWko/vi5QZO0KIOqFpTrTSKSKqWvKFuYA9v/2Ptz5aR5IVzEGhhDW2cXRfDIviYti4NYUX372V7v7Fa2sZh9mwYCmJurYEdSzix0n/EJungUsgFpudhD+/5NUP1nNCMxPcphXtTJnsj9nArJjdJDte580bSwPmDlLX/cQ7b/7BtjQHoGJwd8fszCR5VxqHd21n+cKt3PX6I9zcyav4tfOS2LhgKUcNHWnUxcZPk39mW0bpxYt8YhalsPdAHsbP7qWP36mQgT0zhyw7OI7tZ/MJFXDgAPKPJrAnQwHNhl6vwzOyL8N7NMLLJZ0N3y8kusiPnhOuoXNAyThFs1OYV4BfoB5nejKb/15MWtkcK2MEE8dW0flOC0UWAI2c3fuIK+xLVA2uBZWf0aOgoAA2kjfM5ecjVVwk0DLYn60BCmolqxiC2jLmrhDc3M2oKRuYPjsWa4uB3D6iGcbUaH77dStZwT2ZcF0k7pYC8uwN8M2IPnNjMRI59ibGr32H6TsW8/lnLWn6Ulfi9x3CioFWEeEMmvgBw0/bzs7B6a/z4N4sXDuP5uWXe592lzFjcDfufOUl+uibYl7+DitXJKNZ8klLPVE8oHccZ0dMKjbVjbBQL7JST5zcNqvAXj4VTgghxGVDgjoXlY3kvfs5YgPVrRMTnruXMQ0v/RkLeVsWM+WzlahjG3F1/9Byz7lETeTrhRPrqGU1J3UVyrPGL2H6zH0UqH4MvX0M3U+mzRkIu/YmJqzazRfro/nlm6X0eHsETWr0SWEnOTaORKuG6taBW998lhtLqjNeNbIvjZ58ls/XFXAwei9J9kjC5dNHCHHR2UjespN4K4CBhmGN8FahKHYeX3y+jiSrQuCge3jzxVG09LSTunYqLz0/j7idf/H1Tx1o80jH8hcAHNlsnLWcjHajeXJcF5p4uxPQ8AjLP9rGCbuK7+C7+e/bQwlWrRyY9TmfrSrAPec4WVoYASrYk5fxxTvFAR1dQCdueeoOxvcNw8uRxq6/f+GTj5cQd3Qr37//GxFf3EM3b0CnR68AtmTmf5VK43HP8O11HQlyHGblN1/yyV8HKTq0in9WjqHnuKCTM0H0QV24+6NehDYLwFOvULTqK+54cwONrn+Kd28OQ++0kZt6hBO6UNpFeKLLX8XBqQtBK8AQ1ofrrvU/bVar/dhwnv9sCO6erhgcu5n+2NcsKzBhqmRmDIAjN43UtOIcJltyDNF7rURVNqOnHCd2e/HMZh0K6snrRzbi/p5J3Jne8ip279JxOPd1BCgk+vPlWDUDTXoOZcLNbdE2Z/LPzK3k+DSjzw1jSgolF7DyzWk4cWKzWatPHfNuzy1PTiDusalsXDidr9rYCdidi2YIoXXbEIxaJnsWLmDmb/tp+ugzTOxQ8/GHS2hr2mEltqAQDQcpsycxcXbFtSwse/sxllWyva6wkCI4LWAkhBCi/pKvVReVkyJLyUDAxROfepGCUsDu7bvJ1MCvrptyLqSuQhnZbJ61gG3ZYGo3hLGDAssP1A1hjLx1MAu3ziZ+zTxmb+zNo71rMkFeoyC/uCimLjCMiEZl0gn1QTRvEYhu3SG0vHwKHMinjxDiwnNayT9xjKNGsOelEb9+CT//uJ1cDVTvtlw1pCVGCtm8eCW78zQwtmDkrUNp6QmgJ6DnKEZGLWH/qgIOLVnLtokd6edVZv+2JPYVjuKNSRPpVZqeVbSVjHQ7oGDy8cJLBTASPv4xJo8v2zgrcX8vZM0xB6ie9LjjXiYObFT80aj3p+2YO7kvcR/PTU/AenAVf68eQ5dr/EFRiovr2jMobPEgj9zdq6TobSuG33c1W1b+j2WZhcTtS8TGqaCOPWENnz69gKP28l0U9/3LjP2+9DczQ978ho4R4MjJo0DTQCti/54DFF7rf9qMVn1Qc7oGlfySfxi9FVCMGEyVB3Use+OJKyyZL2JNZtOGfdzWqe0Zzr1OrBYLTlT0urK3CHel57+e5+bTbg1eQjvMgrem8PfxaneONWEVf8xPxO7SnH79WmAETlb7KRu50XLJyrKg4SA3J7/crJfKjtYlciT337Obg5M3sPqzb3AptKELbk27VibQ0jiwcikrd2aw9dvF9P7gWiJqWVfR7hHKoLERuJuN6BxZ7F2+lp3HbWAIoPOInoR7lLbKSWHiNrZbWtC1sZMcNwMFdmp8hzAhhBCXPvlIvyis7PztOxbssZB3KA0HQEEcCz74mA0KqA27cesdXcld8CN/RueBZ2vGPjSU5mVL7NgSWPTlXLZngrn9cO4f0xwj55Bbr+Wwb9F8Zs3fSEz8CfKcZoKat6H31ddw3VXheJa2eXcOyZtP4MBJ/o5F/PeNDaiKiZbX3sWY9sZTdQVwo+11ExkVWb4uUG3qBHAux1Nr56euAtS/2gqOY5tYvPwYNtVMrxH9aFnJaNq98yCGd1nE5+tTWDF3Izf0HFrSN9Vzlo6AdboKHy4KOr2eU0NMIYS48LSMlbw3fuVpy1WvCK5+8m7GtDCALYn9e1OxAapnY5o0slOQXxr5cKNRaAA6ErClH2D/ISv9ygURDLQYMoCuZc8LOj/8A/Rw2MLxJb/xeVOVccM60qzit2j7UWJ3HMYK4NqSqN7BFT433WjbrT1BvyaQZMtlZ2w81mv8TwUQVFfa9uxCUJmNdJ5NaNpIB5k28nPzscKpgImrH8179CLS0xUXHTjS4li2/iie7XrSI9yMotkoyMmnoXvxh73jRBbpNgAHadt3saewe/WpUhYLVjRQjZgqDeoUsnvrLtLsKi5B/nikpXJo+QZibmtLt2rznzVysnPQUHB3M6Nodux2J+DEmp9FenoVQ1ktjyKHBtixVZKFDWBN3sC3b09ndapK8OhrGNG65L0tKCDXCU6LBUtp9EYN5NpJvzLq6DbmLzvI37PjSYxOxY6KyVRZYMlI+JhbuG1LPB8vS6MAA437dKG9G0AIw+4azYotU9m8eQ4zFkbx4uiA6jrhtH13uOlhItPi2bRsDQvnbGfXCRsaKu7tBnDLQzfR2VcHWDi8dBof/H2EFKc7vSY8zgv9g2TwL4QQlxn5XL8o7GTsXcc/c7NOXdkpTGLDvCQATF0bM3aiRtaBLSyamwJN3Rj4AFA2PuLIJWH9Chbs12ho7sG9JYvPLrc+h+jvP+CNb3aQblcxuJsxWk6wf8My9m/ZyYGcl3jl+sDiNs871eb8+M38Ew+ovih9bweMp+oKOBtiHnxLmUbXvk7A2R/P2TkfdRWgvtVWcJC+OZrtWRqquTXdegZW/iGgD6FXvzZM3biJrE1b2HJ8ENcE14eZZUIIcYqqd8cv2BMToOgMuPkHEdamA/1GDqBXs5JIgiOL9JKiMFraUl4ftrTyndnTSc+yUy6fR3UjNKxx+QwfQ2MGXjeARbGLOZgVx9wP/8P8LwNo27M7/UYOYUSf0OIZL/Z0Uo8XpyLpPP0JrOTukfqgBgTpIcnmIP9EBtkaeJ98bXf8/NzKz7TUGXFx1QE2cDg4OSknay9r9puJGtgNN7MJg16PMy6DleuPYw5qSmRrd6yFRRTm5ZK17kd+1t3AVVlHOFKyA1vSNjbtuImoHlVfUHFYbNicgGLA6FLJ+SJ/Lxs3HMOmGukw7joaL/iG2UnrWLRqNF1GBlRzw4Ii0k9k4kCPn58XqpZPQaETKGLrD5PZWuV2pZ2YT35+xdtW2Tm25mc+fO9Pth5zoG82hHvv6UVAycULm86LFt07k3V0I9++lEZYaBuG3noV7bxB3yAAx7ZJfLoqFw1Q3VvQuVNI5VlehlCGjenN76vnkGgDTw/3k8dpbDGEG0cvZ8e0Q6ye8Reb+t5NUGX7KNvq1H1s2BLP4YTD7N+zh507EjlRqKEavIno2QHLtp0kbpvFa09bee6F3mTPmcZ3v+8i1W4kuJ0P2TtiSegVRET9uy+HEEKIakhQ56Iw0mrcI7zV38ax5dP5fF4SDq8o7nhxGBE6UNyCCDRAxtns+ixy6607FzBl2k7SNW+63P0oT03sgn/2Nqa9/l+mbznBuukL2DD0/uI2901h2Sc/sjjJgd+Am3nsmlB0ig7fMxTPPas6AWd5PGfnPNdVgHpSW8FC/O595GpgCGtOq8CqPgL0NOgQSYRxE9H5cezeXcg1wTUoJe2swRwczSkzdYQQF4dXTx6e/jD9q53c6QRncVBH9Yqgz+AIKr93gZ4wrwpnHdWMq2vFlXUEDbmXt72aMXfuOtZu3M3hjGPELJ5DzPI1bHrwWV6/vRVmp4bDXhKE1+kqP5+VWa5pThzlKt3q0J22kVJ5LpCaysZvp7Ao6/RSuUmLp/Ph4jJ7DRnGq/e6ED/1IAWaDr8GnmSdOMLqpdu5uUdvfCprJ+AssmHVQNXpMRgBLY24ODvhkUHocZCxfhUrE22opki69ulPa8ti5n97kNW/L2XswJtoU9UsIMsRkpOL0FQzQSGBGMmlSe+x3NvdjNnViF4P4OT4mt/5eVUG/v2v4+befqg4cVisFObl4+1VcaqpnqBe13DPQw50PyXR4YmJDCxz4cKjz6283cdC9P+e5qkfVnGgV3OuKz0F6oPpM3IY0aZMfBs1pW2fPvRrX8UfmD2JRbNXk2wDsLHnt5/5s9+L3BRpAtzpOHYEPRZ8yaqE5fz8R38ePkMKlt7TFUvMYqbPPkC+puIW0opBA3rSM1Jl56+/Md+iw81dR27MX7x6+3zsVhsaOgJGPcSnr/SnwSV2PwshhBDnhwR1Lgo9gW26EoiVnXtmFY+39N407d6d3ifHAZaz23Wtc+st7Fy2mrh8DUOzftx0WxcaugKunbl+Ql+25MVj9HOSneosbnORiV1fAyjo/ELp1q97DerOnF2dAN1ZHU8NXei6ClA/aivY00lOycaBikeTYBpXc7XO2KgRTX10RB/NJynhKFaan+GOVTayMrJxADqjoTjYdJKCq6tL8f1K0jPIKARqWT9ACCEuCMUNd8/iu0GhD2XwI/9igFstNq80AGQkOGoE90WN4L78Y8SsWsJPX81mY0o6W2bMY9XI5gz38MDLW4VkB868XHItnFa9VsvKJdsBoGLydMfzbEdtpgCad29HapaZwBAfPN3dcXdzxdXsgsGWQ25WKuv/XsPRltfz4kODaG/az9RNx7EZghlwZz8OfPoLMUsWsuiGbkxoXvmJQ7OVzNRxMWAgjU1fTuLDA3357wcjCXEksvCPDZywq3j27kXfMDNBVw2my6yDrN/9Dz/N783r45tUOih1pB1i3yEHmMJo3twV9B70uvkmeuVsY8bnu/G5ahiDOnkRe3g+v6Li3rQDw8dGkrN+MZuM/RjdxbfysYLqTavhd/BW90T2JqQQt98Vl3InLo1CxYiCgpuvK7akwySWPtVsIHc2sZCXqxDQ2r+Kc6OVhHk/M2N1Bk7vSHpEHGfzlhhmfrOEHu+OIswA+sZ9uGbkWqzWHoy/qgm6FWd4H10aM/ixR9GF7sIe3pZOzezs+PMPZry3jvh8N1pefSO9C5cxbXEKVs2T9kNbkrdyM4lbNrH5SG9GNpJhvxBCXI7k0/1yUdPcevtR9sedwIaKV8vmtCozcPUccB9fDDgPbTnLOgHlxrK1rRVwBhe+rgLUi9oKjmyy0hyADl8/n+o/APS++AXo4aidtPSsM9wK1UHmjoXMX5OBAx1BrZrRpFzQxkCTTm2JcI0lNmMzf07fSPO7utPoyrnhmBDiUmVqSJNQN9RdWWi5SSQcskLbMp/vOQfYHOdC26iQs7tjkFsQ7UfcRJAthbvfWktO3hFSkh3QMYTw5j7odqXiyD/Inj0FDOlZ9kPRTmpcPEl2QDUSERGKK2Cv4mWqP8ZW3PDSdaTf+RFbTD3o5pZN8r7jNG7uwl/fLcNl5HAaOm3E7YwjWT+W8HU/sSLBhqFpN/qM6EfY5gXELN/J7B9W0ee1wSUXDyqwFs/UUXSF7Pl6Ev/8Eku2hztbjgyB6D+YvT0fzdCYIWP70EgPhPVl3Kh/2PJTIut//IV/uj7O1U0rBowcpG3dxe5CDWNkKyIblr6wncSFC/ht9iYy5yxi2UMvcEOZrQq3zOSNl2cSy1L2P/UwDw4PrXK8oKWs47N//8xua9XdlzrvE+6eV8kT7v148c+nGFbxIg+Qs+13/vvZOo7jQ4877+PlbrG8+a/v2LBuNj8t7sJzI4PQ4U63R96kW8kxHay6CSdZiwz4hRiIXjGDX17ZxoF0Bzr/Voy+byiN9/zJ90tTKC4hZCRs2O20Mx7infnrmPppG1q8NpIIue2VEEJcdiSoc7moaW69PYvMjOIv9V6+nlyQtOqzrBPgWnZacG1qBdTABa+rAPWjtoJmwVKkASquriaqnYmtmHAxK4CTgsKialKmCln/0VO8/WsKOZqR4O6j+NfErlS8X5ax3TX8+5HjfPztamJ+eIc7/orgprff4u6uMmVHCFGX3OjYoxN+C5dzwnqIFQu2c03r7vipALnEzPyG1749TNCou3ntuUE0PsPIyZ60mT/mbOVAZhAjnhxDRzOADheTsfgzWnXB1awA7nQc2JPQeXM4aDvC8pmLGdr+2pMXW+xHN/HbH9EUaKD6dqBfv+LZm2cV1AHsKYfYn5LBweOJRLhZWLk0hW6tb6aFm4M1+/QM6R/M+tkxLJm3iONb13Bc86DbtQNo796Q5uMG8Ofav4hf+gvfdI3g+TGhp81O0QotFDnBcXwNP/8EqlcLrn32doY6VvLBlLUct+toMHQMY7uXnh086XLjWAau+JRFR9bz3UfNCX9rLJFlZ0nZj7J2xQ5yNAPNe3SkZcnpwnpoKd9P20qm6iujsaoAACAASURBVEP3+57l+ZvDOPjpqc1c2/RmzJAtJMzex19vvUdO3uM8Ob756WnTgOoWSPthQ2nh4YarofxZMX//Ov5en4q5bW+GtPMpk9nmxGEpICc3EK/T/h4cZG7/iw/fmEVMjo7GIyby7+vDcTcEc9OYFWz7IZ7lP85hYM976FXJub46jsxopj0/ielbs4vr+Xg0psctoxjd3cCWH6bx5fZsfKOuZYhzIX9tyiUtzUD/e25m047PWLRiKv95B5554ipa14u7rwohhKgpCerUI9WXK6lhbr3Tgc1a/KVep1Z+y9FzdrZ1AsqNpWpRK6AmLnRdBag3tRVqXs9GOXW3qmo3cmIvKCBf00A14e7rj7e5so8WBYOLGx6uRiAfR2ER1oq1K4UQ4qLT4TfgGsYv2M5X67M4NPsLXrMlMLC1O7l71jB33h4KlEDCOrUkuAajJsVcyMFFC/nnuDspRiMTBjbGJecQy3/ZTLamYo7sRKew4ksqHt2v5Z7rdvHWzAOkr5vKC//aS79uIbgVpbJr9QZiUmygb0Dvu25keOi5DNnsJG+MZo9FxbP3IK7vso3VfyeSUdiAgW1MrNiyD+vY7rQI24Xtn6nMPGHDte0Ybr66KXrAo9vV3DRsA2/PO8aKTz4jwP8p7u0TUGYQmUvc1t2klKSK6QI7MfGlh7il1VGmP/8jK4440AX05LZ7B1A2A0gX3I/b7t7KjndWc3z9T7w/2ZvXnxl4cqZn7rbFLNiYC65t6N+/5K6fSWv58o0fWHlcpfGIiTx8W2t81Aop7K6hDHnqeTy9P+bdH2JYMfkD7I6neXbC6YEdfdggHnx1UCV9ZiP+h30sXJ+OZ/vB3Pd45xrMDs5h3/yZfPa/+USnQYNet/Ds44NKUp3NtBsznF5/fcF2YyEZJxxQy6COzqcjE199ENsn67C37U6/Lj4cWTGPr1/YwMECF5qNuI9nH+/BoXcW8xcaNrsNtVF//vXCcU68PJPtf3/Nc4d2M+Gu67i6fxinlRoSQghRL0lQ5xKilCTmazYHjopfop2FFORXnwBTI6oLZjcV0MjLK7wwBWvVi1gn4Hw6x7oKUA9qKyhGTKbiUVxRkaX6lCqnBUuRE1BwcTFWE08z0/eFz/ih7yw+fOMPohdO5ZOGTfnkgTblBsBF2/9k0vvz2WNxodV1j/HE/X1p6SO34BBCXAJcIhj/4mPYJ3/LzyuSiPlzBjF/AqgY/CMYcc+9PDAqpEaDJp1fL259JI6kDxcQO+tLXppV8oSqw6fNYO57chSRpR99qj+9H3mWV3yn8+3Pa4nfvZbZu0v3pOLWpAuj7r6NiSOb1TjduFL5e1j8zy4K8KRHn040NO3GoGpk5uiI7NyZLh7BhIR3Y1S7XXz1lwXFtzO3PX4tHUojIGoAA+65iY3R/2NR8l5mvvIueY8+yP3XNMdTBTQ7TpMbnqpKbtO+/Ou1+xnVIJ4Zr37Kj1uywdCQIQ9PZFRYxc98PU1G3sYDMQm8MzeJg/O+5FVN45XnBhNm2c3v3yzigFWH79BBDGqpkr19Nh+8+RNrk+z49ryZx29vhuVIGrmBrlgs9vLnNH0Dut33GM86JvH2j7GsmfITHaJeZHyz4vlOKds3k1Boxt3dVKEGXCknJzKtONGwZx9n3869lV5wcdqtFOTkYWzWjbbsYtmCDezOAN+u43n2lbG0K5OapWvYmxtf8uXOTl1pWjK+yI1dxeJ9dnx8jJyIS8OBgl6vq/Kcq7mE0GNoa7avX8bkqdEkZjlR/Fty7SN3cMe1kfhad7E62QaqGW8fL/To8Im6gZdeV/nwrZls3LuKr59bz+/No7j6noncOiD4DPXyhBBCXOouha/SAgAFo8mEAjizM0nLc4DrqeGD9eBB9qcXp02dE0MwIY1MqHvzyDmcQoqNk7e2LNr0K2/9fAiTfxN633IDA5ue5Z+H6ezqBNS5C11XAeq+toLeCx9/HcRbyUjPrj6oY88kLdUOqDTw964+VQszjfuOYUzf5eycm07C1lgSbG1odXL8buNw9C4OFmqoft24/v5BtKzqFipCCHEuXFpx6+ffMF4DRTHgVsPaXfrAztz6XiTD9uwh9kAqOVYVs28wzTtE0rRCHTSXLjfy6fxxOFAwmiueEfQ0GnIv/+0yjN07DpKcXohdNeETEk67Tk3xrRjXMATR486n6Dr2RnbvPEBKWj42nSs+wU1p3S4MvwrRnGpfWx/Ctf/5iqEaKHpzyZ2qHGTuiGZPrglDcHcG9fZHnxbFLY9E4B7RiMio+7lv6UJ+ef8/LN+bAz6tmfDiQ1zf1q3Crvtx/5MHSHxpHnH5iWxdvoU9PZrRPVAHqg8dJz7Avx3LYOg4ultXMenR7/lnXx6a6kXHOx7iwWENKx906oMY9O8HST76IfPUAdwyoQtNTA7SNm9nb44exTWckdf3JljVQYfB3HFfFspKM2OeGke71D94+q4ZxBQqgAMNAy4uZVKLVX+63/8oT2s/ERM5gdHNSltgJX7eF7z215nqxRU7Ov8LHp5fzQqqFyPe6kjHIb144KNwohbEoPYZRCe/imM2NyL7dC23xNUzl02fTGF9nnZyXy2bN6qkrxykrfme51+Yx77CklnFbsF0vm4o7Rw72bN5CTOS1mNPjGbpfhuqTzs6ti99D3X4d5/Aqx83YvpHU/ltk4OIAVdxdW8J6AghxOVAgjqXDB3BwYEY1QNYC3azZmkSQ25sWnxlruAQC6YtYZ+9eJhSk7tGV0n1pH1UW9yXbSBv5zqWRA8jIsoTtEy2Ll/F+jVJOPz0dHug5BqRUprW46QgPZNsDVzOOF337OoE1L3zW1cBLsHaCnp/QkI80ZFKQfIRkmzQsorJMvZjR0jOcIDqQUijoBoM/FzwD/BBRzpafiFF5UbKTixWK05A79+ABlIgWQhxwRgwe/twdh8zrgREdiYg8kwv4YaXT/VTOY0+oXQcEErHGr6y3rsR7fs2ov2ZVqz2tfW4ePtUmNWjw6fXbUyeOYr4BCtNvMHo3YsbIkqfz8WRlcT+hDxcwvow8bl7uL5zZXeM0uHf52aefiSfGUe7c+89PQgpWxJNDWTAPTeV/NKfu17Q4/PVLKJDb+XZu9rhU93Ywbstt7zxNoMNDQkpKbnj3+cW3o0axq6YLEI6lLybqicRw+/kzeEl2/kMYESvucQszcHg04jmHbpx3eCw8ucrfRB9Hn6CPhX6ybdVP8Z5ueDpZuRcstGdDgv52YUE+pUMCgyBdLl2aI231we1pnvfSAozzPgEBNOsc29GDK9sXKTDv89NPHrnYf7zj0LnoX0YOrw3nRqZKVibzn1Pz2dDcYVkVK9whj90PYODy7+LrmG9uXdSK/rEZNGwY7ikXwkhxGXi0vguLQAdvlGd6eK7gZVpWWz87E2eiulMS18HR6O3sMu9FyM7L2POFht2x7kUItETMngko+ZE8+vug8x89S3Sh7XGKz2WZUuSsKkGml01kB6lV5cMDQgMcUHdm0vB2lm8/24qbXycmNuN4Po+AVW+ysWrE3A+nd+6CnAp1lYwEdEqAjc1lbwDB9iX5qBlcGWzvxxk7IxjnwVUcwStImuYh1Y2/6yq4KOqnHVpJCGEEGfJ4EtE88qe8CDy+n/xalAPCiJ70N6/uvOLmebjHuW1M76YkQZtBnLfe90pNJnL3wihCjq/hoRUXGhqQNuoBlVvpDag/2NvE/mIJ8FBnrWYdWKk3fX30K7G619AhjDGvvEOY2u0shttJ77MjxMNGMv0qbldXybcbibN5IFvcCNadWlHywZV3IRA70dkZ7/z0HAhhBCXikvl27QA9CEDuPPhfRydvIR92SfYuXghO1HxjBzKv58ei33KcsBJUYHlrO9+AYBXR+54+QGK3v2Rv3buYdGMPcXLVXfCh93Ck3d1OXXnIrUBfa+7msXbZxKdkcqW2bPYggtdHu3P+D5VvQAXr07A+XYe6yrApVhbQYd/VAc6em5gVU4smzaeYOSYoNOvyGqpbFyzk1xNxa1jF7pWev9aIYQQlwczEX2rO6mfJVfzBU+vdg1oROgFfo1Limo4PXjl2ZprHmhdF60RQghxCVC2HlxVq2SejIOH2DRlCs2HjyCw7SVxjaNesednk2vRQDHg5uNe6VWloqNxbNuRwIk8cA0MpV2XVgSboSgnkwJ7SZ68Z8kVGFs+2XnWktx6b9zLXZixU5SVS4FWYZtStiwORccSl5yNRedOUPPWdIj0rzRgUJC8i43bDpOjGfHwb0h4m+aE+hjO8PolrchKrlGdgHM+ntN3RkFWHkWldRWq6O/KFZJag7oKZ25zMWtmYs1qK5QeaU377Gz6S8tk+VtP8+ZfaZi63s4nn4yjeYV2FMX8zBMP/UqsvQGj3nyPJ4dUNhX/tKNk11fP8/g3+3GGj+G9qXfRxeXUc9GfP8PT3x+EyBuYNOVW2sudzM9KwppVJG/YwIDnn8PFs+KN48XlyGG1svjV1wjq1ImIwTVP6xBCCHHu0vbtY+9ff9L59tsIiDxTbqYQQlx8cvn9ItO7eXGGNHxcglvSK7jl6cs9K+bJcxa59WW39SYsqjdhUdW3B8DcqC0DG7WtZB9nritQ4zoBZ9zfGY7n9J1d+LoKUM9qKwCqD73HD6fdsulERy/iz9UDeGJQmaCNPYXFMxaytwg8e4xiXP+aBHQAVFzNZhTAfjyFxFQ7XZqUfMRo6SQeTMUOGMwumCWPXwghhBBCCCHOmQR1hLgCGSOv4raxa9kz4xCLf5jLkK4T6eQJYOfI4l+ZsSoDp3sbxt877OTd0c5MT0jbFjQx7mB/3jZmvPkZGX070bxhBvHrNvL32jw0DAS3CidE7mQuhBBCCCGEEOdMrpcLcUXyoNNttzKmhRHb3r/55qed5ALWhOVM+XI1RzUvOt9+B9e3r908J5cOo7j/jk4EGJ2kRS9l2vcbiVn9B9PnxnJCM9Cg62jun9D+0riFvRBCCCGEEELUczJTR4grlM6nC7e//gJtDuXh1OnJtTmwFfky4OEn6a/3o0XvlrVPXVN9ibr3Zb4dtp89hzIodHrg7dmH9gNVzP6NadW6IR4SShZCCCGEEEKI80KCOkJcwdybdaR/szILWnWhf6tz3asez9BIul9RtyMRQgghhBBCiItPgjpCCCHEJcxhswOQeeAAsTm5ddwaIWqvKDMDh9WCW2BwXTdFiFqz5hV/7ualpRNQx20RQojKSFBHCCGEuIQ5nU4ArHl52IuK6rg1QtSeZrfh1Jw4rIfruilC1JpT0wBwWCx13BIhhKicBHWEEEKIS5jeWHy7ON8WLWncs2cdt0aI2ju0dCm5R1Nod8utdd0UIWotKyGRhOVL8QppWNdNEUKISknJUiGEEEIIIYQQQoh6qNYzdfLT0gBIXLuaI1u3nvcGCXGhFWVnouhUTO5edd0UIWrNmp9b8rMAF0/POm6NEEIIIYQQoi6ddfqVU9Nw2G3nsy1CXBSa3Y6iqfL3K+olrSS3n5I6K0IIIYQQQogrV62DOm7+/gAEdeyMX4sW571BQlxou3/7FaO7JxEjRtR1U4SotSNbt5AaE4PR3a2umyKEEEIIIYSoY1JTRwghhBBCCCGEEKIekqCOEEIIIYQQQgghRD0kQR0hhBBCCCGEEEKIekiCOkIIIYQQQgghhBD1kAR1hBBCCCGEEEIIIeohCeoIIYQQQgghhBBC1EMS1BFCCCGEEEIIIYSohySoI4QQQgghhBBCCFEPSVBHCCGEqEOaJbeum3CZs3Ng7vdMnpOAra6bUs6l2i4hhBBC1CcS1BFCCCHqiGbNp+Dvxyhc/wlaUXZdN+cyZSF5bwwH0orQ6rop5Vyq7RJCCCFEfaKv6wYIIYQQVypF1YNTw3FsOwV/R6M2aINL5ztRzb513bRqFaXsYe263cQfy8WimmnQuBld+3Siua+u/IqFqexct4MdB46TWaBh9PCjcWRbenYLxafCCERLP0z0ARuNOofjn5fIuhXb2J2UjVXvQcOWHenfJxw/Y8WWOMiI28rqjQdIzrShmn1p2rEr/aKCcMNBalwsB9Oy2JVYiMWRxNb1hagoGPxC6dTCB9IPsz3eRqMu4fik7WX5sh3En7AR1GsUY6OKn4/en4dPq1aEeVe4DubI4cCOg2S6NaFjS9/TBlRV9xFnbNfJV6pl/1V3LHIVTwghhLg8yTleCCGEqCtq2SCIE+3ELgoWPknB6nfR8lLrrFlVc3Bs7a+8+NjH/LQ5A8yeeKrZ7Pj9a558agp/HzyVSJS/bxX/ffI1Xvx+E4cL9Lh7uULGPuZNfpOHX5zFhmOOcnu2Jazli3cWE314C1+//hVzdudjcHdDzdzD7A/f4fmP15NiL7uFRtraX3j1uWn8E2/F1dsdY/5+5rz3Pu/NOkgBdg6vnse0aQtYl2QlfcdSpv/wBz/+MJvf1h3FVvKaX777D9sPbuarN6exMkXDzduM4WSb1vHVO7NYk1K+rQDYj7JqyudMnncQa636qPCM7Trb/qvuWIQQQghxeZKZOhecnQNzpzFHG8jD1zY9D4Or870/IYSoO07NAZoD0E49djpA04p/OrVyvzs1BzidQPFzznLrOYuXObWS38v/c5Y8D6U/tZPbOUuXOcv8pMJjnGWWO0sOoMzvJY+dJ9fn1Hol6zjRwGEDuw2nZgGtXJTiJC0tjoLFz6J6N0Pf7rYL1Pu1Z09ey3efrUQZ+Qgf3t4an5KYlH1sez557itm/N6JHk90xys7mh8++JFtwdfxzltX0cbn1DUky+FNfPveN/z3Uy/efnUo4WVn3zhSWffjGkJueJJ3evqVDFIsDJ/9BS9Omcv8AR25L8q15EWPsnruGjK63Myk5/sSpANwMLLV1zwzfRmbB99D/3teoOttcXz/2H/Z0vUOJt/dClOZl7MAaPnEzt2C1+1P8UZ3n3MeGNWkjz594gU+q6ZdWsZZ9t95PhYhhBBCXPrkfH/BleTM+/Y8Tznz53t/QogrmdNhw2krBHsh2IpwOopw2i1gt+J0WHA6bKBZcTqs4LCCZisOvDhsJc/ZcGp2cNhxOkue0+zFzzm14sea/eTy4gBMmeCNqJaWdRDr6tdp3NCdgrpuDHYOrlzFRmMPnr/uVLACQB/UmdG3jyOk0AOb00HiskUszmzPPa8MKxeQADA16catE/ex/ZWlLN7Rh/DSIA2ANYEkv4d54mRAB8BEs0E96frrFPbsOYI1KhwjgCOD1FQngW0acirrS0dwvxt5u7WCn0cND8sST6zuXiaflyBITfuoun2cQ/+d12MRQgghRH1w2Z7ztfTDRMdbCe4UQbA9lejVW9gen0ae04R/kwi69ul4Wu5/jfPRa5TjfuZc/vO2P19vPHIyyfUKo1ML78pz6hyZ7N+WQE7JOpxF/5QqSNnN2rW7iT+Sh9PVm0aR7endqxl+l+1fkxD1l1Nz4LTmgyUHLf8E9qPb0XJT0AqzwZZTPGvkSqUogAqKWvxYUYDSZSWPFbXkp1K8jZMys3wuQoDK4Iah1TiSNi3Bz/PCvESN2TPYu+cwLq2H0ea0thiIGHQ1EQCOVOZG70PpMJEeDSs/j3i2a0+ngBXE7krCGtWCk5NNVA/atG/Babt3DSAkSCU6K+fUBQ3FB/8GsGzXHuJzwmldupHZh8ZNanNgBlq2bYV3bTapSk37CKCqPxlHOrvOtv/O57EIIYQQol64bL+G2xLW8dX7xxj19jAKfvyBJZYwOrVsgKdSwOFVM5kzZxO3PDORa1qay2yzli/fzeC697qx/+M/Odq0LS0Cyuej5+9bxdcf/cLynBB6dA0n2EuHNW0f8ybP5qfw4fz78bH0CNJBaS7/lhyyjlopSF/K9AQDoOLZYwJtW/hgOl/76zaS/sd/5svjg/jg/dG0OK2QJFj2LOfT19fS9MlX6NTi7PoHHBxb8xsffLYZZ5sOtA7xRFdwgvVTJ/HnijE88/hQWtX0yqgQV4qTqUEaSmkQwOlE4VQwQHGeChAozjKzWZwOcNpRNHvx9podP/1hzI1ycOz7nSJVKZ5FYy+eRVNulo29COwFxbNrzgedEVQDqAYUnQF0BlD1KKoBdHoURV9mmQ4UffFjnb64boxS8lMt/qmoOkAHSsljRVfyvA4FtWQbFVQVRdGBqpasX2aZUma9k8GZ4udLHyuly+DU84pSvLzat82Glp2EI+swzuxEHFkJaDkpxTOVasLghmLyQjF5oJg8UE2eYPJAMXqimjxRXDxQTJ5g9KBgwcOnb693wRg5BmPEVTisVmBJLd6sC8SRRtpxCAj3LpcqdBp7GseOQlCvADwqj0mAoQHBDWFpaiY2KBPU8cLHp5KTmGrCaAKbzX4qqGNsyIDxg1n/wZ+88sguonp2oFPntnTt0BjfSnZRJb0P/v7VHlHN1bSPqnMu/Xc+j0UIIYQQ9cJlG9QBwJHJ9p/nYehyH5OuDcerdHDkyGbHjK+Y/OUiwt8aQ+uycYtq8tFrl+NuousZcvnP5/5y1sYx653NrNl9FS06VhzQFbJzzRYSAztze5TXqZk8tewfe9JavvvuEG2feInbosr0Tc4B/pj0FV/PbsrbtzfHpVZvkqiv9Nm7QSsTMCiXTnB6boFycrmz5Gln+XUrLivzu+LUyq+LVmY7Z/Hv5WqXlKx/sn6KE+Xkcme5bRRKH1estVJh/dJATGmNFrQy+yz5/WRwxlkcoKmkH86Vnx5oCM6kVVRejeUMdEZ0Ae2K765k8kQxuKMYzSh6l5J/JtC7gM6IojOBriSIcxlz2i1oWQk4shLRsg7jyErAmXf01N9RVUw+qO4BqG4BKO4B6NwCSx4Hohhq80mocPLvWWfAEDEcY+SYMwaeLjrNjsWiYTDoS/4/V7WeDZsFTMZq1lOMGI1gt9kr/B2r6Ko67NN2puIXdT2vf9iKlSu3s23bCqbM/o0pIR0YdccEbuobVMPAih6Dvtojqrma9lG1+ziX/juPxyKEEEKIeuHyDurYk9jDbXw4ukzAAkDnRYfx1zJw0/cs3T6U1r3dTj1XZT76OeS4V+r87s+zc3f6NF7DmtW7ub5jJ8pNmMnexdq16TQd2p327mfbPzb2L1/F0Z7jeCyqQt94hnP1zX1Y994mdo5vTlTZIJm4bBmPLUG159Z1M64YThRQdDg0Bc3mwOjpg2JwKZk1UxKA0ZtQdKZTgRmDK4rejGJ0QzW5o7j6oLgFFN9G+wrmtFtwpMWd/KdlJVSfPuXqh847FNU7FJ1nY1T3ABRzAxR9baaDnIGqwxA2CGOb6y/dIJpqxOQKhUXW6mu66VxwdYe8gqKq13MUUFgAZi/TORf8d2vSjpG3tWPkbQ6yD+1kyc+zmPHRVFwbPMmEVue4d6U44OasND5rx26rcIQ17aPqXOT+E0IIIUT9dpmP7F1o260jDSs7SnMYnTqY+G5fCtbeNchHP6cc90qc7/25htO3fxhz/9rKlps6MNC/NEikkbZpK5vyIriuT1iFfdSif+wn2Ls3j8hrw6ksZmNsGkGkaQ4Hku1EtbjM/6zEBVUyN6f4l5M1Tkrrm1DmsVIS6KiwTsXnKVMTpaQ+ihP11L6UCvVTTtZQKfmJirPsMkUt2V6tsH75NCBnmeedpWlDSpmfJcucpelDih6nUpyGVPqz+LG+TIoRHNm6hdSYGAY8/xwunnVdZKV+cNqLTgVxTuxFy06sYhaOguIeeCqA4xWK4h2KanSrZN3zx9DyaozNR6AYznQxoI7p/QkIVEk9lka+A0wVTl3W3Hzsrm6YdUE0amLieMIRUu1taFzZKaHwCImHIbR7UPXntlrR4RXWkeseKOLgg1PZFnOUca2anFPQQzHoMVJIYeHpUR0tN5MTmRX+jmraR9WdJuus/4QQQghRH13e375VX4KD3SovHIyewCBfMvZmYacG+ejnkuNemfO9P/Q07dOdjrNms3ZDOv2vblB83PY01q/didZlAr1CK7xQbfrHkUna8SL2zPue95ZWtr6Vo9nZRGbLPbmuFAURD3IqHarMdP/TZv4r5R8rZZcrlSwX4txpWYexHduO4+gOtOwEKp1qoTeh84lAbdASvV9LVO/Q4llOF5mp9biL/ppnRedNZNtm2H/fxZa0XgwLLHv2yGX9l6/w8YlhfPifq+jUrQMeH21gRVxfbmtTMRXNQdKqjWy2tGRCl+CzHojYEzcxbdYRIu8cTQ/fMm1xMeFiAOVkcLg4buvQan9+0jfwI0DJ4nBSGvaohmXa6uDYph3EFlbYoMZ9NIJmVbVL53FR+k8IIYQQl4dLLGH/PFOMGI1VfVNUMRkNaDZHzfLRzynHvRLne3+APrgzfbsZiF6zjcMlG9gSt7I22kyPfh0Jqhg8qk3/aA7smgsBTRoR1uz/7N13fFX1/cfx1z13Zu9FAiEQCCEJQ0A2iOC2zlarqGhtrdafdrjqbn+/X2urtbVW62z156hWXMUtOBFEkBVG2JsMyF43ufP3RxhJSCSTm/F+Ph55SL7ne77ncw7fSM7nfsfAFr6GMuX82YyK7dtdSho5NO2n4ct69Mto/mVp9HV0BEqTHYeU0JFO8ns9eIrWU7/2Jao/uJXaz+7Hnfc2vvKdRxM6FjvmuGysWd8naMbdhJzzGEHTbsWe8T3MscMDktDpXSykzZzFDPu3vPaPL9haebjcTeHX7/L2Vy5GTsphoM0gdsaZXDq2lDf/9gofbK5qNI2oll1fvs5jL24i+aLvMWdIa59qtCGaSCs1GxYy/431HDzyj2Q9u79cwZqqBEZkJhwapRNCWCiU7S1sVK9tjNjhjM42s/7Dj1i8p/5QqZfSdQv5v2/CmDy6eZ9p6zP6rrhOzPMTERGRvqFvf8Djd+Ksa22hUi/Vzjpswfa2PYSunuPeHXPmzZFMmDGOqAdWsHT7bAZn+Nm25Fu2xI3j0nEtTNNoz/MxOwgKCWbQpDO4JEcz+EUk8PyuWjyFjUSRJQAAIABJREFUa/EWrsZTtA48dU0rmAyMmGFYEkZhjsnAiBp8aNct6SgjYQI/vq2Mxx/5N7dc9wkjhsZirSlgyyYnA8+5kp+ck9Lw75VtEOfe+jNMT7/C8z//NW9kDGZAGFQX7GFzSQRTLrmen1wygk5tmBgxmh/8eCZ/fvxxfv5NKunJIXjL89myy0/WD6/m/JGHxrfakphwyije+fvr/ObWNaSEeqiJncbtN005duv05iwDmHPlhaz/4+v8+VebeTcjkZD6YvZUp3LJry7G9vo3LO3wM2o9rrgT8fxERESkT+jbSR1fGfv3luEZl9DCjdaxb/cBBqQktG0+elfPce+mOfOhY09mespili7ZzsUDvSz5aj+DZ84lq6UlIdrzfMxxJCaUsnJfNb6cqD4+xEtEeiq/142nYA2ePUvwHlh37No4FkdDEidxDJbE0ZhsWrm9axlE5JzJXX+bwObcbew8WIPPMZXv35xB9pDwJh9AGBHD+N5tdzPjkm1s2FJEWR3YI8/hpqxhpEUf++GAPed8/vSiF2tICx8cWBI4+64/MdsU1GhdN4OEKZfwv5lT2Lh+N/vLXRhB07ksI4ORAxtPLTYz6Oxr+UPqOnJ3VOGxBRMzeBgRZrB91zUPCc6Yw68fyWL92h3sK3djjRxA5pjhpIRB/U0PMIGgZmvNtfUZtR5Xlz8/ERER6bP6dlIHF+uXrmTX2WeT3iwr4itax5K10Yw9p6WERgs6Ose9q+fMH29tAHsa004ZwoKPV7N6mJtlpcM4b0ZqK0mhdjwfczhZOYN4aelK9p42h9QmD81L4Zfv8VFtFhec1mwnLRGRTvL7/fhKtuLeswTP/hXgabaQSVAM1qSxmBPHYI7L6Pe7e50QwTFkTIoh47gVzUSkZjAl9fg1sQUT0eonGGYc4eG0tFG8NSqF0dNTGP2djdtJzBpPYlZ7rnmUEZ7EqOlJjGrealh469umt+kZtRLXEV31/ERERKSv6tsDLox4BruX8vQ/l7Oz0c7LrqKNvPHE2+wefzqz09r6y39H57h39Zz5460NcGjB5MpVvPyv1ThPmsTk5FayLO16PmaSZ8xiSuH7PP2vXApdh2vXU7j8HR576iM2lIJVCR0R6SK+6gPUb3yL2o/vwLn4ATy7vzya0AmKwTr8XIJn/TehZ/4J++i5WBKylNARERERkX6lb//2awphzGXnY33nJW67bgFDhsQS7Kliz/YyomZczC/mjSGqPUmIjsxx7+o589/V3uEh2/FjmXHyO/xxoYUz5446Ut7Z52NEj+WqW8t46q9PcePCREakBuMpzWfLDh8ZF1/Dzd9vebtzEZG28ns9ePK/xb3jU3ylW5setDiwDJiAddAUjNgMTCatsC0iIiIi/VvfTurgh5BMfnj/vUxev4nN+6rx2kO54KcZZDWb+w9tm4/e3jnuXT1n/njtNVSxEhkZgn1wFjNP+q5lFNv3fABCM07llr+M5fzcreworMZjn8Hc4SMYOTisr3cmEelGvtpS3Ds/xb1rMbgqjx4wmTDHZmFJnYol6SRMFs0vERERERE5rH+8h1vCSB0zgdQxx6nX5vno7ZjjDnTpnPk2tFe/5XP+/WE1E689hZFtGTrT1udz5PJRpE84mfQ2VhcRaY2vbBeubR82rJXTaNFjU0gC1rSZWAZOwXBEBDBCEREREZGeq38kdfoRd1Eurzz9AftHX8RPTo3XX7CI9EiewrW4tn6Ar3hzo1IT5sTRWIecijk+W9OrRERERESOQ+/8fUTdN69xzwvrKSkqwp9xFjdfP4PBmqUgIj2I3+/Hm7+a+s3/wV+x5+gBix1r6gysQ0/HCIkNXIAiIiIiIr1Mn03qWAdN5Ee3jiQmqX9sx2QbNoUrrhyGOzSJjMxEwo9z2/3t+YhIYHn2r6J+09v4K/ceLbRHYk2fgy1tFiarllkXEREREWmvPpvUMeLSmBgX6ChOHCM6hTGTUtpev589HxEJDO/BTdRvmI+vbMfRQkcMtuFnYx08HZO59YXpRURERETku/XZpI6IiASOr2If9etfw3tg3dHCoFjsGediSZ2KydA/P23lcbkBKN+5g9oDRQGORqT96qsq8Xm8bP7P24EORaTdvK56AKoLi4jPzAxwNCIix9Jv1SIi0mV8rhrceW/h3vkp+P0NhdYwbCO+hzVtFiaz/tnpKJMBhmEEOgyRdju86Ln6r/RG3kP99vA/aSIiPY1+uxYRkU7z+/24d36Ba+Mb4K5uKDTbsKafiW34WZgsjsAG2ItZbA1T1GJHjCR99mkBjkak/Ta+/RYVe3Yz9uofBToUkXYr3rKFTQveJiwpIdChiIi0SEkdERHpFF9lPnWrn8NXuu1ImSVlIrasSzGCowIYmYiIiIhI39bupE51UcN8/v3fLCN/5YouD0iku3nrXbhra1n3ysuBDkWk3fweDwD1VdU4wsMDG4vPg2vzu7i3vAs+LwCm8IE4Rl+BOXZ4QGMTEREREekP2p3UsYeFYQsNISgyCmtISHfEJNKtqgoLMJstBMdp+y/pfeoqKnBVV2G22wIah68yH+eKp/BX7mkoMFuxjbgAa/oZmAxzQGMTEREREekv2p3UScjOIiE7qztiERGRHs7v9+PevgjXhvnga9iVyYgdgWPsNRih8QGOTkRERESkf9GaOiIi0iZ+dy113z6Dt3BNQ4FhxZb1faxDTzuyu42IiIiIiJw4SuqIiMhx+cp34/zmcfy1B4GGtXOCJvwUIzw5wJGJiIiIiPRfSuqIiMh3cu9bTv3KZ49Mt7IOPgXbqMsxma0BjkxEREREpH9TUkdERFpVv2kB7ry3Gr4x27CPvgpr6tTABiUiIiIiIoCSOiIi0gK/z0f96ufx7FncUGCPJHjyLzCiUgMbmIiIiIiIHGEEOgAREelZ/D4PdSueOJLQMYUPJHjWfUroSJ/mLdvF2hV57K7wBjoUkW6n/i4i0ndopI6IiBzh97qp++ZxvEVrATDiMgma9HNMFnuAIxPpXu5Ni/jjzeuY9fRD/GSsOdDhSE9Sn8cLv3yE9/e3kgAxhTPzjt9xw+SgExtXJ6i/i4j0HUrqiIgI0DDlqm7FU0cSOuaE0Tgm3qgFkaVfsCRmcs6PYhgcq0HM0ozfQ21pEZ70i7l8SgzHpEBMVgak9K7/T6q/i4j0HUrqiIgIAPWrn8dbsBIAc9JJOE6+AZOhfyakL3Gz9fUneN17FrdcOgxboyOWtKnMvSFggUmPZyI0dTRnXzwKR6BDaTP1dxGR/kDpeRERoX7TgiNr6BhxmTgmXK+EjvRBdexZ9y1bDtThC3QoIt1O/V1EpD/Qb+wiIv2cJ3/1kW3LTRGDCJp0s6ZcScA5963li0Vr2LS/Cn9INCnZ45l1ynBiW/zNpZY9y5awZNUu8svqMQVHkpI9nlNPGUGsFcBD0YY1bD9YwtodTuq8O1jxZS0GYI0byrjMWCjZzsoNVUTn5JAe1TDBxluyg1Wb3AyamEFs1Xa++uhrcneV47JEkJw9ntmzM4lr5UfFdXALSz9dSd6eUmoJIXHYKKbNOYnU4GLylu3ElzaWrCT9GtbXeEt2sCqvkqiso/3oCF8Z21ZspTh0MOOz4rHQuT5Wty+Xzz9dy9b8curMocSnZjBxzsmMiKZD/f0IZz5rvljBqk0FlNb4sEfEkZozlmlT04lu1mU7E7+IiHQN809/fs1vAh2EiIgEhq/6AM6lD4PPA7Zwgqf/GsMeFuiwpBG/18uOzz8nNCmJ6CFDAx3OCeAh//N/cs/t88kzxzIgMQJbXSGr3/wXr62ykjlpBPFN1u2uYOVTv+eOR1ZRHzeAAfGh+Es28fE/X+Pj/DhOnpZGuFHP+lcf5+m31rJlbznlxYVsX7eeVSvWs4WhnDohEd/aN7nzlx/B9DmMS2p4yXWtfYO771pD3AwTH9z7JItrokmKC8ZXuI4PnnudTwriD7XfOB4vJcvn87+3Pc1nxSEkJMUQbqtj/4oPeXnBfuJyfHx8y9/YOPRsZqY3nhDTdx3ctIn6igoGTpwU6FA6xnOAb9/+jH0DZ3HuxITv/ETUlfsG99yxCNOU2ZyU2CxZUr+N+Xf+jucOZnDRzEFY6Wgf81Dw+XPc/at/8nVtFANTYgj1FZP77ms8984+osePxvXxE+3u7wDVmz7iz7f8gb9/WUFYYjxxUXY8B7fx2QsvMH95PQPHZTMw7GgwHYu/d6ktKaF48yaSRo8mJC4u0OGIiBxDHxGJiPRTfr+PupXPgKcOTGaCJt6IERwV6LCkn/PsWcQTf93G6Psf4trJsUd/UanYzKu/fYjHXhnGX3468si6Jp69XzH/1SLG3/Z77jon8VB9N+eNfphfPPgG75w1mRtODmLSzQ8y6bp1PHXNf7Nsyn/xxE05TdZGqWstIHchXzyxiOSrf8MjMw6/0Ds595WH+NUj83nrjEncNDn4SHVv0RKeffAz7Jfdx5OXZDR6ma1h2zvP8te/fYGv3k9ilzwt6RPa2cc8ez/h73/8GNNFd/P368cQfaiPeS6fwIM3/InnXpzIs/c/yHPt7O/e0m949r4nWJF8FX95/HxGNxrBU7d7MU/c9Qi/fyCSRx4+n/TGo2/aGb+IiHStXpw3FxGRznBv/RBf6TYArJnnY44dHuCIRFxs+mAR+bMu46rGCR2AiAwuunYOxkdfsrr2aLFl4Bnc/crvuXFOYqP6VlJnTWF8aCF5GwtwdSqkbeyKO515MxqP0Agi/axTmBhZyPrc3Y3ad7Pzo4WsTL+I65skdABCSD/nKn4Qn8/mVjNI0nN52f/RP/jVtbdzY7Ovm26Zz5r6TjTdzj629aOFfG2fyeVzjyZ0ACxJk/j+9Vdw0Zhw3O1eRMfDzvcW8N7B8Vz5y/OaJHQAHKnTufZnpxH59fu8t6K26antil9ERLqaRuqIiPRDvtoSXHlvA2BEDcE27JwARyQCeArYuL6K7EuHE9TCYdvQTLLtr7B1t5vJmYeHClgIS2xh3IsjipgY2FRe2blFYo0IRo/PJrx5eUgSKckGq0orjrbvK2H92v1kz57AgJY+NjOimDBjDHHvfN6ZiCQgDEIHZzJ5fMyxn4gGDaL5sjTta7odfcxzkI3rduIYdR6jIpqfYGP4mZdwJD3vaUcMvgPkfrsR04QbmJbS8utB+EnjGJ/0IblrduKaknV0N632xC8iIl1OSR0RkX7ItWE++NxgMnCMuxaToYGb0gN4SjlQ4GT9G4/x2/dbqlDP/vIyssuavyLWsG/lSlbk7mRfYTmVNS5crkp2FXnxer2di8kcSXRUC2vfmGzY7eByefEfLnMdpLAohpTkkFabs6YMIEULx/ZCJiIypvCDa7phS/P29DHPQQ4UQEJGDPZjz+g41wHy9/tJnpnU+vo31gQGpMAHhcW44GhSpz3xi4hIl1NSR0Skn/GV7caz7xsArGmzMMIGBDgikUP8XjyeIBIGp5IebmqxSvqwHAYlHH3r9Jbm8u/fPcbza62MnTGOkUPSSQ134LBUYNm+nrxOB2XG3NpLbvMQ/fW4XDbCg1qOHcDksGJXDlWaaE8fc1Ff58Nm6+LMoN+N2wk2+3cs3m3YsdlNeOtduJscaEf8IiLS5ZTUERHpZ1zbPmj4g8WOdcQFgQ1GpDHDQXBYCGkzLmDu2LbsDFXDt889ybPbh3PLMzdyTlqjSVv1eex71eiCpE47GA4cjjpqa1ofl+CtclLtpWtHWUjPYTIBfvwtdgEPbk8nJyKZHDiCwVlb37VTmowggsOhpqa29Xa9tdTW+AmOCu760UoiItJh+qxIRKQf8TnL8OxfAYA1dQaGPTTAEYk0Yk0kKbGYPbsradOkqbodrF5RRPIpc5id1mwVHm8lFWWdnHrVXtYEkpJK2L27otX4q7fvYo9Wje2zDJsNG06cdcdmdbzVxRQVd7JP2uJISDIo2F9ITQvZF1dlFc72rKVzmHUAqWkO8rftoai182v2sHOnibTByWgGoYhIz6GkjohIP+LZ+zX4G94ErEPmBDgakWaMSEaNG8KGz79mzzEvlh7yF73KMws2cXRJHQ8eN9hslma/0HgpXrac5YXN3npNJkwm8Pm6adlWI4pRY4eQ9+lSdrpbOO7exWcfraG8e64uPYA5MYYEUwm7dhQ2W6fYQ+HilayrbeXEtjJiyBk9HO/q1Sw/0DxBVM7ih2/k/JveZJub9vV3I4KTpo0nYtViFq1vKUgPez5ZzLK6bKZMSdFQfxGRHkRJHRGRfsSz/1sAjOh0jND4AEcj0pyFlNPPYnr+6/zt2W8pOLJNtJP8JfP588Nvk3vQj+Pwby+2VEZkhbJz8Vd8U3j4FdpDyep3eeJDNxnDmo0nMEIIi4DiXfs42JHRDG2J/4yzmHnwLf76+Jdsrzx6xFu+g4V/fZovosYxWnOv+ixzXBYnjbWwdsF/+HyX81Cph5LV7/DU4nCmj+/sxCUraWeexSzHUl549CPyjmQIXRR8+Tqvfepi1PSxDLLSzv5uJn72RVwx6QCv/vEZ3tlQ3mi0WQ07Fr3An55cx8C5l3B2ulI6IiI9if6vLCLST/jqKvCV7wTAkjwuwNGItMwcPZEf31/Co797mKvfSyIrLQxP8R7ytnoZeeXN3H5F5tHtzo1oZlwzj1V3P819V+SSPTIBe3UBu5wZzLvvHKoeWcKWxo1bBzL59HG8+eAL3H7dClLD3FTHz+a+O089djvmjsYfNYFr7ruMx//wDDdc8m8yhicS4qti37ZiIk65gl9e6eTZT5dh0gqyfZMllbOvu5y1977A767ZwJs5yYQ4i9hZlcaV91+F/cUv+bKTlzAnTuVnvynhz79/jhsvfY+sjHjsVfvYuN7JoIt/yo0XpTXsTNXe/m4fwgX334npkWd46urreSU7neQwE9X7t7PxYBQz5t3Of83LIayT8YuISNcyrdzxpXYZFBHpBzz5q6n75lEAgk/9H4yIlABHJG3hdblYeP9vSBw7lvTZpwU6nBOnrpjNqzayraAKjy2SQVnZ5AyJaPnTKGcRG1ZsYMdBF9aYgeScnEVysIe68irqLaFEhDYeseOkYO1qVm8rx2MNJXboCMZnxWNz11BR7cEaGkHw4eotlR3R0L7TCCEqvIVFnetL2LpqA1sLq3FbwknJzCInPQo2v85tP11E+gN/4abJQcee1wdtfPstKvbsZvLNvwh0KB3kpra8Grc1lIiQtq0m4y3fQ+6qLewtdWOLGUjWuGwGhkNdZRlOGvWZzvSx2iI2rMpjZ2ENXkcEySOyGJUeRdOa7ejvja5bsTOPtRvzKXX6cUQlkj52JOnRLcTQmfh7ieItW9i04G1OuupK4jMzAx2OiMgxNFJHRKSf8FbsbviDYcUUlhTYYESOxxFLxpQZZLSlblACWTMSyGpSaMERGdXCLj1BJI2eQtLoZsXWECKi2lD2ne17Kd34DYvXQ9Z5Uxg2eQbDmhz3sHv1RnZG5nDxiP6R0OkbrARHttoRWmSOHMTYUwcxtlm5I7xZn2l3H2skOIGsac37fXPt6O+NrhuRlsOMtJzvbLkt7Xxn/CIi0iU6ldRZ+vjfqa+sJDQxsaviERGRtvD5qSrYT3TaEMbMvbxNp/hrDgBgCk3EZJi7MzqRfsqMtXor7/19IQv31PFfP5rOiOhDwxfcpeQteosn/28vY386j0ntyxGIiIiItKhTSR1naQluZx0+b0tbPIiISLfxg7vWSU1JSdtPcTXsaGLSNuYi3Sbs5Ev49d3wzLP/4GcL/o8BA+MIs7qpKMinInQkZ/7sDq7+Xiq9dzKKiIiI9CSdSuqExCdQV1bK+J9c31XxiIhIG3g9br5+5C9EDhrY5nP87hoATNaQ7gpLRAhiyGnzeGDWxRRs28XeA1XU+a2ExiaRnpFMuCa+i4iISBfSrxYiIv2E331opI6SOiLdzxJK0ohskkYEOhARERHpy4xAByAiIifGkelXtuAARyIiIiIiIl1BSR0RkX7A76mH+goATI7IAEcjIiIiIiJdQUkdEZF+wFexF/ADYI4YFNhgRERERESkSyipIyLSD3jLth35sxGZGsBIRERERESkq2ihZBGRfsCzfyUARmQaJmtQgKOR9vC43AAcWJdLyea8AEcj0n6eehd+r49v/v5ooEMRaTefxwtAxf584jMzAxyNiMixlNQREenjfM5yfKXbAbAkjw9wNNJehtmMLTQEW3AIjqioQIcj0m7O4mLcrnrCByQHOhSRdnM7nThLS3BERAQ6FBGRFimpI/2Yh8Lc1ez2RpE0cAADYoPb/APh2vk5r3xcx8izpjNhkLaHlp7NvWMRh9fTsQyYENhgpN2sQQ5OvfvuQIchIiIiIj2Q1tSRfsxL4eKXuPu6XzHvB3/kze2etp3m3MZbj/yT55/9O7df9WseXlSIt1kVV109bWxNpFv5PfW4d34BgDlxDEZoXIAjEhERERGRrqKROtKPGQQFB2MA1pMmMj2tDT8OvjK+fe5ZXlxWjg8Dq62eDc//gZ8+33DY73VTW+kh/eo7ufcHg7s1epG2cG3/GNzVANjSTw9wNCIiIiIi0pWU1JFez7PvK154aT3O0BAcVgPTkSN+fG4XtdUuUs78EReNsTU704TFYgEMbOHhRB533FoV619+jD+8uJEaexxDhkRytEU3Zbv3UFQN4ZOuZt4Fg2l+NZETzVdXgXvLewAYsSMwx2mBRxERERGRvkRJHen1fDWFrH3vfdbUtVLBNpyrz2n5kMkEJsBkmFqucJjnAMv/7yn+/I+VlDiGcO6dt3HT6clHEjeuTW9wxw0vUmQdxFlz55Bu7eDNiHQh17pXwFMPmHDkXBbocEREREREpIspqSO9njk2iwtuv4WLokIJtpmPLBTlK1nBs//7DltssYSY9rO/OJaYMHujhaS8+HyHK/vw1DuprCjhQLWNlCHxOA4dchWu5e3HnuH5hXuo8RmEDIrEufQ1Hlp6uB0/tTvXsLbahzk+jKrlr/PkioZyj7OaiqDRXH3DDJL10yYnkGffCjz7vgHAOngmRuSgAEckIiIiIiJdTa+Z0uuZYzKZdVo4i59/h20TLueyceEA1C1dQbUPLANiKf3XnVy+sLbVNurefYhz3234s2Pyj3nmz+cxyFLL1nee469PfMqGg24a8j8+aravYuH2Vho6sI73X1zXpChkTiY/00+anEC+2jLq1rzQ8E1QLLacSwMbkIiIiIiIdAu9akqP4cp9n8f/sxWXkcT0n1xIxv5F/Otfn7Js3X4qTWEkZWQz4/zzuGBWKqFNzyTvlcf4/XN5eL+AQY/+hKlxfg7uyafYYxA0JJXBkQPJHh9KeIgVc6Mz64u2sHJTOeaUDCYMDcPnrKYyxn6oTjCp4yeQlbSEzdYsZg0v47PP80n44Z08+V+jDk29crP2idu58+VCUubew2M3ZB0q93NgwYP85MGV2IKCjoz6Eelufq+bumWPHlkcOWjctZgs6oEiIiIiIn2RkjrSY/jKd7H0/U84YBlBTLaf1//+Kqtrgwiz1lNdU83mJQVsXb6Wzb+8i7t/MKRRosRG5oWX8f0lD/DS2oX8/fEMBt8znm1bduLCyoj0oZw67yHOPOaKHna89Ftu2FRO0Ennce+9UwlqVsOWdDLX3HcP0yyDCf7sAb74fB+++hqKDxxs+OHxFrE29wBuI4S01AjKDxw8cm55rQcfIidW/ern8VXsAsCaeSHmuBEBjkhERERERLqLkjrSc1ht2E2Ap5BFz31G6kV38NwPJzA4rJYdn83nkT8uYG3ZAb7652ssnHwr30tp1H0jRzH3lkvZ/Ivn+eajl3gqy0P8xip81mRGZidj85WR99H7vDZ/K4N/fjvzRge3OSxH6khycLGh1okPL/vfeph5bzWvVc+nv/8Fn7ZwvtnppA6OSRiJdLX69fPx7G1Y7MmcNA5bxvcCHJGIiIiIiHQnJXWk5zCZGhYx9lRSN/wybrp2Eg15mzCGzL6MH29dzy3/2IardA1ffVXIWT9MadKBHZln89Mfb2THn5ex+PFncTjdmJNGkjPCDr5itn/xCV+sK2XlPxYy9aHzSbe3LzxPWCqnXphOaLANs7ecTZ8tYV2RG6zxnHTWZIaGHd5By49z9ypW1w9n/EA/lSFWaj0QpZ826UaurR/g3vo+AKaIQTjG/wST6Ti7uomIiIiISK9mHL+KyAlmOMiZMoGkJkmQIIaPzWaAFfDVsW3bHlzHnGhj6AVzuXJGLKYaJ7U+KwOmjWNUCGBJ5vQfncdJEVCx4j+8/FE+nnYFZWP0ZTdxy3VzGDvAoGDVatYfdOPDIDjnFObeeDU/+8WP+Nkv5nJujp9dG/PZvy0f25QfctfNM7XzlXQr17YPca1/DQBTaCJBU2/FZGln1lJERERERHodvWpKz2OOJiEhrMmCxgCW+BjiLLDL7aO2vIIqHwQ3T0taUzn9gqm8sfg/7HZDeFjokXZsw+fww/M+Y+2LO1n88gKWT7+WxOOE4jmwhWXfbmPPrj1szctj3drdHHT6MKyRpE8eTf2qdexe9Tq/uc3Fr++aSsV/XuSfb6zngMdGUk4UFWs3sGtKIunWrnk0Is1F+DfhWre54RtHDEFTb8WwhwU2KBEREREROSGU1JEeyIylpZ5pNh9N9Pj8eFs61bOXj99azD43gJu8+a/w9oy7uSzTDoQy5sKzmPT+k3y56zNeeXMmNx1nMIMlPIj63IW89NZ2anwGIckjOPWUyUzONFj37/m8V28mJNRMVe4C7r/qPTwuNz7MxJ9zI3+7byZxGgsn3cXvI21QBZEUAGAKSSBo2m0YwTEBDkxERERERE4UJXWk5/FWUVlzbMrGV1lFlRfAwBIaTNgxCRMXu959hZcXl+KPzGRSehErvs3ltWcXMekP55BmBcvAaXzv7CW4XJP4/hmDMH9+nFgcA5n9i59jTl2PZ2g2Y4d4WPv2m7z8x6Vsqwkh49ztpjVIAAAgAElEQVQfMtX5KS8u3I/LF86o0zKo/mIFu79dzor8qZydoh8x6QbeOoy850lOrAXAFJbckNBxRAQ4MBEREREROZE0jkB6Hl8VW/N2Utek0EvZtt3s9QBYSR2cTPNBNpWr3uAvjy+liChOvuY67r3lIiZEQenSt/jXwsJDI3tCOfnm/+GPt57DhBQ7bVlG1lVnJSbZSsHnL3PHFXfwP08tZbd9BOf98kfM8XzJq5/sxw2AjbTTr+Ly02KhaCnP/+1jtjk7/TREmnIWw+q/YSpvmHJVRwxBM+5UQkdEREREpB9SUkd6IDfb33+Pj3fUHynxlm9gwYLVVPvAcKQxYeJgbEePUrb6Lf7436+TW2lm4Bnz+K8fDCU0fQ6XXTAEm+8An73wH74pa3HC1nfylq3hxV//mptveZxn53/Ddlcik+Zex//cNxvb5y/y5If7CJlwPued7ABPFcXFVmb++HJmpxgUff48//vA+2wsb/91RVpUsh5WPwy1+QAUHQyiiCkYtpAAByYiIiIiIoGguSHS81jiSI/ayuM338vqU7JJsVezc9nXLN3ixGdYGXzOhZyTeXjl4Uq2vPcajz/2HmuKIW7KXO745akMtAIEk3PBmUxZ8ASrbU5KD3ohqvnyy9/NHDWGefffgPvRpXiyJzJjXBT5n7/L03ctY0etgyFnXccdv5zEzgcWsgAfbo8bI2UmP7uriIP3vsbqD57m1zs3cumPLubcmWlEKI0qHeH3wq73Ye+nDd+bTPgGncXW5asZGK9OJSIiIiLSXympIz2PyU7OVdcy7d0neHH+67h8DcWGJZKs713Bz/9rMrGH3mM9e9fz6fvL2FgK0eO/zx33XUhOo1ko5gFT+eE90VwzdjyDDw1mqNrwJQu3eIiKsnFwczFeTFgs5lanYvkcyUw6bSSrv/6UPz+/ht3lfkyxGZx/89VcfX4m0a71LN7nBiOYyKgILJiJmnAJ9/zW4E+/e41vNn3J07/+mjeGTeDcH8/jilOSGo0yEjmO2kLIewlq9jd8bw2HzHn4QwcCqwMamoiIiIiIBJaSOtLz+H0Qks1Vf3qY6atyydtbhdcRQfKILLKHRjZJiFgGTuH6R4Yy4f1cjGmnMjam+UicEDKnjW9SEhRexfJHn+Hr6sPZoggyhqW08MPgpfir57jzrnfZ4myoa4QkcdLFp5HjXUfeikW8vPdrPLvX8MlWN0ZUDmNGHZ4GYyZ24qXc/9cUXnrkeeYv95J+yhmcO1UJHWkjvw/yv4Sd74HP01AWOQxGXAm2MPC4AxufiIiIiIgEnJI60kP5wBJB2snTSTv5OFWtCYw7/7Q2t2xJHMnE6Zk4S4OJik9iyElTOevMlpI6ZmKnXcbPr9nD/35o4qTTpnHamVMZmxJM7ZISrrvtPZYdeq82IoZy5o0/YHZS06RSUNpUfvLwCKblljNgzFBNv5K2qcmHLa9B1e6G7w0LpJ0LA2aAqS3Le4uIiIiISH+gpI70P9Y0LvzvB7iwTZVDyJ53Ly/Ms2JrlJAJzpnOpVcFU2wPIzophRHjcsiIa74f1yGWGDJPiumCwKXP87lg9yLY90nDSB2A0GTImAshSYGNTUREREREehwldUSOx7AeO2UqfCTfu35kIKKRvqp4DWxbAK6yhu8NKww+E5Jngql9C3yLiIiIiEj/oKSO9BjWoTO4/n8yqMdKwlCtPCP9RPV+2P4WVGw/WhaZAcO+D0GxgYtLRERERER6PCV1pMcwxw1jyuxhgQ5D5MRwFsOuD+DgqqNl9hhIPx9icgIXl4iIiIiI9BpK6oiInEj1FbD3EyhYcnTdHLMNBs6GlFkN065ERERERETaQEkdEZETob4c9n4KhV8f3aLcZEDSVBh0WsM25SIiIiIiIu2gpI6ISHdyHoR9n0PhcvAfSuZggrixMPgsrZsjIiIiIiIdpqSOiEh3qNgJ+z6DkvWA/1DhoWRO6mkQnBjI6EREREREpA/oVFKntvggbqeTVc/9o6viETlhPK56PLW12MLCMMzKb0rnmfATGVpBXEQJoQ7nkXKf30RZdQQFZXG4trtg2Xudvpb/UKKoYn9+p9sSEREREZHeqfNvsv7jVxHpkfx+fF4ffr86sXSO1ewmLqKUmPAyrGbPkXKPz6C4IpoDFTF4vF28APKhbmvC1LXtioiIiIhIr9GppE5wbBy1xcUMP+/8ropH5IQp2byZvUuXMGjaDELi4wMdjvQ2XheWyk1YynMx1+7B1CjD7bVG44kehztqNKFmO6HdcHmfx0Puiy8QnpzUDa2LiIiIiEhvoDknIiJt5fdjqd6JuXwdlurNmHzuo4cw4Q1NxxM9Hk/oEDSARkREREREupuSOiIix2HUHcRSvg5LxXoMT1WTY15rDN7IHNyROfht4QGKUERERERE+iMldUREmvOD2bkPc9VWzJVbMbsONjnsMzvwhGfhjRyFN3hAgIIUEREREZH+TkkdEREAn7thalXlFsw12zA8NU0O+00G3tBheCJz8ISmg2EOUKAiIiIiIiINlNQRkX7L5K7CXLUNS9UWzDW7MPk9TY77TWa8IYPxhg3HE56J3xIUoEhFRERERESOpaSOiPQbJlcV5tpdmGv2YNTsxuwuO6aOzxyEN3QY3vBheEKGgNkWgEhFRERERESOT0kdEemzTK5KzDUNSRxz7W4Md3mL9bzWGLzhw/CGDccbnAImbV0lIiIiIiI9n5I6ItInmNw1mOsKMZyFGHWHvlpJ4vgsoXiDU/GFDMIbkobPHnWCoxUREREREek8JXVEpNcxuSoaEjh1RRjOgoYEjqe61fo+Sxje4EF4Q1LxhQxWEkdERERERPoEJXVEpEcyuasxXGWYXKUYrnJM9aUYrjIMdykmX32r5/lNBj5bPL6gBLzBKfhCUvHZlMQREREREZG+R0kdETmxfB5MnloMbw0mdy14azB5ajF5axqSOPVlGJ4yTD73cZvym6x47fH4ghIbvhyJ+Oxx2m5cRERERET6hX6R1PH4TGwqdwQ6jH7B7/fjsPgZFtH6SArpGyzl6xtGzPj94PeB34/J7wW/G3yuhqSMz4XJ5wJPLSbvoUSOz9Xua/kNOz5rFD5bFH57ND57bEMSxxajRY1FRERERKTf6hdJnWq3mXWlQYRZvYEOpYv5qdi1mV3+AeSkhWMEOhzA7zfh9aOkTj9gK/rkO9exaQ8/Bn5LMD5LBP7DiRtbFH7boUSOJbhLriMiIiIiItKX9IukDkCwxUuo1RfoMLqYi+Ki7ZQFRRFiDaUnTDjxA5X1PSG9JN2vaY/zYwKTGb9hBZMNv2HFb9jAsOI3B+O3hIAlGL+l4c9+c8ih/wbjt2gknYiIiIiISHv1m6ROV/PXllNY6iUsKYZQXzWFu/MpKKnFhZngiBgGpCYSE2Qcc05BqY+IAdE4ag+yc0chpTU+QgcNJzM5CBOAu5qivYUUltZQ5/ZjtgUREZfAwJRIHEea81FTfICy2joOlLvx+ivI3+vBBBhBkSTFHmrrsDa1KdI+tcOuB0xgMjQFSkREREREJACU1OkgX/leVnxVRcacdFxr1rDDE0VSbDB2k5uKXevZtGkfo6aNISPW1uicPaxY7CTrtBRKluVRFRlPTIj1yHgHd/Euvv16HTvrw0lJjibMbsJbW8LmpXnkRg9j4pRMUkINwEfF7s2s2V9PXbUXt3MHa8vMgAn7wGwSYoM60KZIOxn634eIiIiIiEgg6a2sM3x1FKzbjDFgPGeOiMZuHC0vzF3B0hXbiZ6TSZy10Tl+Fwc278c+ZiqnpgQdWQfH7yxg9ZI15IeNZM6cYcQHHR354K3Yx8rFK1m6zM6cWelEmy0MGDeTAaOLWf3BUvYPGMtZ4+KOmX7Vvja74wGJiIiIiIiISHfREI3O8FVwkGTGNE7oABgOErMySfPuZUdBs51+PKUcMJLJapTQAR/lO7ax3ZlAzrj0JskXAHNECqPHDMaev4Pthcff5rn72hQRERERERGRnkJJnU6xEJ+cRFhLT9EaSVKihZLiSpruuWUmNj6WJsvC+mo5UFiCKTGJgS02BvaEBJJCajlQVEGb9vDqjjZFREREREREpMdQUqczTEGEhVlpeYlYM6FhQThr62iy55bhIDi42VwnXy3VVRAaFoqttb8RcwhhYVBV06y91nRHmyIiIiIiIiLSYyip0xkmM2Zza7v+mLCYzfh9vmYJEwPDaHaO34fXA2az0UqCCMCM2QI+n7dtCZjuaFNEREREREREegwldTrD78Ht8bdy0Ee9243Zajn+QzYsWG3gcntorTX8btwusFra0F53tSkiIiIiIiIiPYbe5TvD76SqorWpSx4qy2sICw89ZleqY5hCCY+0UFNeSXVrQ2bcVVRUQGREG9rrrjZFREREREREpMdQUqdTvBTtyae8hVWG/dVF7CkMIikxtA0jdewkJSdiK9rHruKWdqLyUbF7L/u9saQMCDva3qF5VX5/C2NxOtqmiIiIiIiIiPQKepfvDFMIkb49fLtqH2X1R4u91QfYuCKP8uR0hka15RGbCB6cTk6Sk43L1rG1uL7RlCkX5bs28M2aYsIyMxga3bg9K3YbOCurqTlmNE5H2xQRERERERGR3sAS6AB6NZONpJwRGJvX8vGCTURFBWP1uagodeIYPJLJY5JwtDVfYo5k+NST4dtcVr+/kI2xkYTZwVVVQXGtnUHZExiXHYetyTlhJKclsnn5Bj77sIBwuw9XcCrTJw4i2OhgmyIiIiIiIiLSKyip0yl+sMWRM+sUBhYVU1JZj89iJ3N8DPHRjmOGQZkTRnDmxX4MW8sr2JgcMWRMm8ng7FIOlFTj9IDFMZyJ8TFEBbV0jkHE8JM4LbKIorJ6fGYbQZHR2I3OtCkiIiIiIiIivYGSOl3BsBOZlExk0nHqmW3Yg47bGPbIWAZGxrbx4hZC45MJje/KNkVERERERESkp+sXSZ2qr15m0eYMnJXF31HLhAl/69t/H6oTnjmZsyckHF6juM+o376Ct5fso6UllY9q2zOKGj2LM9IMHF0ZoIiIiIiIiIg00S+SOmHT5jIlNZxQawvbVHWA0w0+QjBCXHj8ZqrcfWCh4UETOXvQxE43YwI8PhMOyjsfk4iIiIiIiIi0ql8kdUJtHkZGOjFM3z3GpD38fge+UVGExrhIDOlr43Y6zu834bB03XMWERERERERkZb1i6SOxQSjY51d22hMGKMGhwH1x60qIiIiIiIiItLV+sC8IRERERERERGR/kdJHRERERERERGRXkhJHRERERERERGRXkhJHRERERERERGRXqhTCyVXFxXgcbrIfenFropH5MTxN2xxv/2jD8GkHcykl/E37DJXtntPgAMREREREZFA6VRSx2Kz43N7iUxN7ap4RE6Y+opKag4eIDQxEYvDEehwRNrF7/dTtn27+q6IiIiISD/WqaSOIyoagJEXXNQlwYicSIVr17Bt4cekzZxJWFJyoMMRaRevx83Xj/yFsIT4QIciIiIiIiIBojV1RERERERERER6ISV1RERERERERER6ISV1RERERERERER6ISV1RERERERERER6ISV1RERERERERER6ISV1RERERERERER6ISV1RERERERERER6ISV1RERERERERER6ISV1RERERERERER6ISV1ROS71RaQtyKXrQc8nWzIQ1X+DtatWs+GnWV4AG/ZLtauyGN3hbcrIu06XXbPIiIiIiIi3UdJHRH5Tp6i5fzjlt/z6qq6jjfiK+KrR+9l3sV3cPc9D3H348so9oF70yL++LMn+XhHz0rqdMk9i4iIiIiIdDNLoAMQkb6vbuX7/OPfRWTf9hB3XTQQf2UdZgOMxEzO+VEMg2OVXxYREREREWkvJXVEpJt5yN+yg/3B2cw9dTAOgPCQhkNpU5l7QyBjExERERER6b308biIdDMftdW1EBZGuCPQsYiIiIiIiPQdGqnTAd6SHaza5GbQxAxiq7bz1Udfk7urHJclguTs8cyenUmctaUza9mzbAlLVu0iv6weU3AkKdnjOfWUEcRam7W/2cOgk4cTVZrHlx8tZ8O+avwhCYyYPoNTx8ZjA7xlh69dgccRQ9qEycyemkpYC1d27lvLF4vWsGl/Ff6QaFKyxzPrlOHEqgf0aN6SHazKqyQqK4f0KHPTg74ytq3YSnHoYMZnxWOhM30TvGU7+ebzb1m34yDVbhtRqcOZOHsyGd8R3/H6ladoK99uKSa/wInfXcb2Zd/gNkyEDx1DTrINb8l2Vm6oIjrn6P115h7a2887cs8iIiIiIiI9hfmnP7/mNx09ed/KlXjqnAwYN74rY+rxXGvf4O671hA3w8QH9z7J4ppokuKC8RWu44PnXueTgnhOnpZGeJNxUBWsfOr33PHIKurjBjAgPhR/ySY+/udrfJwf16S+K/cN7rlrDXFTvCz4zf+xlniSos2Ub/iCV5/7iqLkkxhvX82jd/yTlZ5YEmNs1O74hrf++REbbJlMHx3L0XdeD/mf/5N7bp9PnjmWAYkR2OoKWf3mv3htlZXMSSOIt5/Qx9djVBcVUrpjO4mjRmEPCw90OC1y5b7BPXcswjRlNiclNkvq1G9j/p2/47mDGVw0cxBWOto3oXLtf3jgtidYVBREfGI04bZ6Cld/ykv/3oAlPZL9X2zEMf08ZqbbDp3Rtn7lWvcuf3rsQ1ZvP0BZeRkFWzeTuyKP6oFTmDzUgWvtm9z5y49g+hzGJTXcX8fuof39vP333LP4fT72LVtGREoy8SNGBDocEREREREJAI3T6Ch3IV88sYjkq3/DIzMSDj1IJ+e+8hC/emQ+b50xiZsmBx+p7tn7FfNfLWL8bb/nrnMSD9V3c97oh/nFg2/wzlmTueHkoKPtewv57JklDL/hv/nVyVGYAepPI/vu+3jshTcISy8h+Lr7eXBKbMMx3/lMevA+fvuvd1l89jBOj214QfbsWcQTf93G6Psf4trJsUf/wis28+pvH+KxV4bxl5+ORLNi+pB29k1vyTL+8YePsVx+H49fOLTRSK8atr3zLA/8fSGVHhjV6BJt7leT5/HY5MtY99SvuWXhSH75/I+Z0JbO1t6fr3b2847cs4iIiIiISE+jNXU6yrWNXXGnM+/ICydAEOlnncLEyELW5+7G1ai6ZeAZ3P3K77lxTmKj+lZSZ01hfGgheRsLmtTHvYPClDO49HBCB8CeyimnjSZk6yI+s87hssMJHQAjhgmnjiO5ait5Ww635GLTB4vIn3UZVzV+0QWIyOCia+dgfPQlq2u75pFID9Guvulhz0cfsnzIhVx3/tBmU/dCSD/nSq4Y66PE3eQC3d+v2nUP7Y2nI/fcMxmGj2h/Lq4t7+PetxxvyXZ8dZX4/f5AhyYiIiIiIieARup0lBHB6PHZHDNpJySJlGSDVaUV+JocsBCWmHhsO44oYmJgU3ll0/qmKLLHjiC0WfWgpATirXYSR2cS1eyYZUACSUY55eWehgJPARvXV5F96XCCOJZtaCbZ9lfYutvN5MxWFimR3qc9fdNXQu6qvYycM57EllK8RjQTpo0h5r3FR8tORL9qzz20N56O3HMP5fMZgIFrw/ymB8xWTEGxGMENX6aQWCwJozAiUgISp4iIiIiIdA8ldTrKHEl0VAtrbZhs2O3gcnk59rPyGvatXMmK3J3sKyynssaFy1XJriIvXq+3WfvhREa08Ndjt2M3BxMefuzrq8luwWry4/G48QJmTykHCpysf+Mxfvt+SzdRz/7yMrLLfC0dlN6qPX3TdYDCohhSBgQfW/8QW3ISyY274onoV+25h/bG05F77sHKySDMWgTu6qOFXjf+6gK81QV4AayhWAZNC1SIIiIiIiLSTXrJa0tPZMbc2uQ107FF3tJc/v27x3h+rZWxM8Yxckg6qeEOHJYKLNvXk3fMGQZGC+00NG/C1NK1Tc1O8HvxeIJIGJxKenjLjaUPy2FQgmbh9S3t6Jt+F/X1VsIcrXQ2wLDbsDc+fEL6VXvuoZ3xdOSeezCfyYot80JcuS+2Wsc++goMR89cDFxERERERDpOSZ0TooZvn3uSZ7cP55ZnbuSctEajbOrz2Peq0UJSpwsYDoLDQkibcQFzx/bMHXzkOEwmwE/LS6R4cHs6OcrKsBPkqKO2pvU1WHzVNdT4OToVsKf1q/bG05F77uGsaTNx7/wUf9X+Yw+azFhSTj7xQYmIiIiISLfTEI0ToW4Hq1cUkXzKHGanNZs25a2koszb8nmdZU0kKbGYPbsr6aYrSDczbDZsOHHWHZuA8FYXU1Tcyb9ZayIDBpSye1d5K33ES+XOPex1NT2nR/Wr9sbTkXvu4UyGGXvOZS0f9Hvxle44sQGJiIiIiMgJoaTOCeHB4wabzdLsgXspXrac5YXdtKaNEcmocUPY8PnX7PEcG1P+old5ZsEmtKROz2VOjCHBVMKuHYU0/Sv0ULh4Jes6u3OZEcmY8els+uxrdrW025N7L58uXEtVs3N6VL9qbzwduedewJKQhTlhdIvH6lY+g99Tf4IjEhERERGR7qakzolgS2VEVig7F3/FN4WH3zo9lKx+lyc+dJMxrLt2nrKQcvpZTM9/nb89+y0FR97pnOQvmc+fH36b3IN+HOoFPZY5LouTxlpYu+A/fL7LeajUQ8nqd3hqcTjTxzs6eQULyaedy+lVC3j0iaXsbpQk8pbv4OO/PsvylGmMszc9p2f1q/bG05F77h3sOT/k8IJb5gHjsY+9FgB/TRGuvLcCGZqIiIiIiHQDralzIhjRzLhmHqvufpr7rsgle2QC9uoCdjkzmHffOVQ9soQt3XRpc/REfnx/CY/+7mGufi+JrLQwPMV7yNvqZeSVN3P7FZktbgMtPYQllbOvu5y1977A767ZwJs5yYQ4i9hZlcaV91+F/cUv+bKz14gYzZX3zePZB//Bz37wb9LTYwnyVLB3y0EiTruGW6+Ff733eZPd3Hpav2p3PB24597ACEvEOmQ27j1fYx99JSZ7GJ6ClXgL1+De/jHWQdO0rbmIiIiISB9iWrnjyw6/tyx76mnqykoZ/5PruzKmns9dQ0W1B2toBMHHDLLxUFdehdMIISq82aKtziI2rNjAjoMurDEDyTk5i+Tghvr1llAiQq3Hb99TS2WVCyM4ktDmIwl89VRV1EJQOGEOc9NjdcVsXrWRbQVVeGyRDMrKJmdIRL/O6hWuXcO2hR8zeu5cwpKSAx3Od/KW7yF31Rb2lrqxxQwka1w2A8OhrrIMJ436Wkf7JoCnir3rNpC3uxQnISRkZDEmMxYHLqrKaiAoirDmA4Pa2K88NRVUuS2ERIbQ5MotxduZe2hvP+/IPfcQXo+brx/5CwMnnkzWBRccKfe7avGWbMWS1DAVy1dTTO0nd4HXjRGXSfC02wMVsoiIiIiIdDEldaTf6k1JHZHmWkvqtKR+039w570NgGPKrVgSsk5EiCIiIiIi0s20moqISB9nSz8TbOEA1G94Db+/t00sExERERGR/2fvvuOzKu//j7/OvbIXCZCQQBhh7y0qiHvXrbUutK1a29pWbeu31tVWbbXOn1tad90TNwiyNxIg7JEFCWTvO/c49++PQAhZZN835P18PHx4cu4zPtc517nJ+eQajVFSR0TkOGfYgnAM+wkAvpJMvLkb/ByRiIiIiIh0BCV1RES6AXv/GRAUDYBr2xy11hEREREROQ4oqSMi0g0YVjuOIecAYBbtwizY4eeIRERERESkvZTUERHpJuz9Z4KtZnJ31665fo5GRERERETaS0kdEZFuwrAF1XTDArz71mJWFPg5IhERERERaQ8ldUREuhH7wDMAA/DhTl/g73BERERERKQdbO3Z2Wea+Hzgcbk6Kh6RLuP1emv+73arDssxx/S4gZrv4dawhMVh7T0G7/5U3BlLcQy/BMNi7YwQRURERESkk7UrqVOxfz+e6mpWPPNUR8Uj0uU2vf++v0MQabPi9MxW72Pvfwre/alQXYw3dwO2PuM7ITIREREREels7Urq2ENDMU0vMSlDOioekS5TXVhE+f4copL7YwsN9Xc4Iq1jmhRs20pQVGSrd7XGjwZHFLhKcGcsVlJHREREROQY1a6kTlBUFF63m74nnNBR8Yh0mYJt2yjfn0OvUaMI69XL3+GItIrp8VCwbSuhsT1ava9hsWFPnoZ7xzd492/AdFVgcYR1QpQiIiIiItKZNFCyiEg3ZE86sWbB58WTvdq/wYiIiIiISJsoqSMi0g0ZUUkYEYkAeLKX+TkaERERERFpCyV1RES6IcMwsPWt6TprFuzArCrxc0QiIiIiItJaSuqIiHRT9sRJtcuefWv9GImIiIiIiLSFkjoiIt2UJTweIyIJAM++VX6ORkREREREWktJHRGRbsyWVNNax8zfjumq8HM0IiIiIiLSGkrqiIh0Y/b48QeXfHhzN/g1FhERERERaR0ldUREujEjqi8E9wDAm7vez9GIiIiIiEhrKKkjItKNGYaBPWEcAJ79G/CZHj9HJCIiIiIiLaWkTot5Kc/JZPPG7WzNLOVorz1m8V7S1u8gq9TskuhapDKP7eu3sOuA19+RyLGkw+pNw2coIJ8T6HbPijV+TM2Cx4lZuNu/wYiIiIiISIspqdMS3gJWvPIYt/7yYf7+rxf5+2vrKDjKu5571yKevPst5mcGzkuhJ289bzzwLB9vdPo7FDmGdEi9aeIZCsTnBLrfs2KNGwYWKwCe/Rv9HI2IiIiIiLSUzd8BHAucG7/njTn5jLz1Xv5wQQJmmRO7tfl9rHEpnPXTGPpFK28m0tQzZOg5CQiGLQhL7BDMvC1492+CkZf5OyQREREREWkBJXWOykvurgxyg4dx5YxEggEiQo+6ly15MlfO6vTgRI4BzTxDek4Chq33aFx5WzBL0jFdFVgcYf4OSUREREREjkJ/Hj8qk6pKJ4SHEhHk71hEjlJ5vLAAACAASURBVEV6ho4FtrgRtctm3lY/RiIiIiIiIi2lljrN8BzYw/rdReTkOvG5S0hf/SNuq0Fk8kiGBeXw4043SRMHEZO/lQXzU9mZ5yb+xPO5ZHIMFGTw4/YKYoYPY2C9riWVezezdOlmdu4rxxcSTdLwMZx04kBi690NsyCT9bvcJE0YRFx5Bst+WMfmrBJctgj6DB3HKScPItbRMG6zOIvVyzawOaOAco+DmKSBTDppAimNltJL4ba1LF65i+wiN5bQHvQfN4kZk+PR3+n9zyzIZP2OcmKGDWNA/S5K3lJ2pe6mKKwf44b2wEbb6wy0tt7UOFpdbu4ZGtHHjtnIc9KeMrT02WpPmY9XRlRfsIeCuxJv/lZsiRP9HZKIiIiIiByF9Zbf3fhAW3fOXrsWd2UlPUeO7MiYAoZr8/f8v1d/IDUjn+KyEnL37GZT6k4q+kxmXOX3/O3hjcRMMvju0ffZZO1JQmwI4T0HMCQxBPeWr3nwvoVwwnTG9To0AI+X3CXv84+HvmCHNZb4nhE4qvNJ/foTPtnoYOiEQcTVacng2vIVf3t4M7EnwLxH32J5ZTTxsSF487Yy990vWLi/JxOm9iWyzrt+adpcnvzbm/yQH0LPnlFE2l3s37SE9z7bjn1AJDnLdxA09UxOGugATPKXvssDf/uK7fbeJPeJwFq6m/nvfM16y2CmjojB3pUXvItVFRRQmpVF7JAhOMICM4Xl2vI1/3hoMUw5ibG96g3k5E7ns4ef4e38gZx/Yh/stK3OQGvrDbS0Ljf3DE3pH4SrkeekbWVo3bPVtjIHFp9psn9DKlFJifQaNqzdxzMMA2/hbnzlOfg81TgGntYBUYqIiIiISGdSS51mBE++nMcmX8TmN/7JXxemcNvTVzPh4Ith9VrArCBtzhqirr+Lv02NOerF9GQt5b//3cOoO/7KdZPrbF+6i48ff4mXP+nPw9cPrhlz5BDvAZa9sYTEK+/kkWmxB/ep5pxPXuCeV+bw5cxx3Dw5BACz4Efe+n8/YL3kd/z7/GTCaw9SyZ7v3uOJ1xZR5oHaFJwnh8VzllA48Wc8/n/TibcCeDlv2Mv86a35rD59IKfEtOMCin+0os5AG+oNrajLzTxDHVmG1j5bbSlzd2CNG4Y3Zx2+sr2Y1WVYgiL8HZKIiIiIiDRDY+q0R/VO0qyTuLwFCR1ws2PBInKmXcRVk+ttHzmIC352MpYfVrGxst5urnSyYk/hqtoXW4AgBp42jUmRB9iyZR8uALxkLVzAuuTzuOGcui+pAKEMOP1Srhzlo9BTZ7W3kAMHfPRO7kOP2kYgVhJm/JSHH76cyXqfOza1uM5Am+pNW+typ5WhtfG0pczdgy3ucIsfM3+HHyMREREREZGWUFKnXewMHTWM6JZs6slj69Zyho8ZRGNzZzn6pzA8KJNd2fXeJC0RjBwzhMj6O4T0IjHeQn5xKSaAt5i0TTkMnTKG3o1Nt26NYsKUEfSo+8ZrxBDXE/Zu2sLO0jrrQ2Po2y+aULXjOja1tM5A2+pNW+tyZ5WhtfG0pczdhBGZCLaa9kzewu1+jkZERERERI6mG762dCBbDHH1B+poireI/P1OtnzxKv/6vrENXOSUlDC8xDxytSWKmJhGxvSwBOEIArfbU/Ny68ln/4EY+iQEN9z2IEd8LxLqvsQ6+jDz8tNZ/tin3Hf7JiZPG8v4CaOYNLYvPQJzGBFpiZbWGWhbvWlrXe6sMrQ2nraUuZswLBasPQbjPbARb4Fa6oiIiIiIBDolddrFht1mtGxT04vHDKZXvyQGRDS+z4BBw+kbV7/xlAVrU+2p6h7GrMZVbSPc0XQ8hsNO0BEfW4idfAUP/nsYCxf+yLp1P/DKJx/wSuJYzp91FVdPj0czUB+LWlhnoG31ps11uTVaU4ZWxtOmZ6X7sMTVJHXM4nR8HheGTRleEREREZFApaROV7EGExIWSr8TzubK0Z0wp5Q1mKCgaqqqfE1u4qt0UuGjwVTlYf1Gc951oznvOi8lezYy750Pefup1wjpeSdXDTue5786BhgG4MPX6G314HG3ozUMtK3edHZdbq3WxtOOZ6U7sMUMxA3gMzFLsrDGDvJ3SCIiIiIi0gSNqdNVrD2J711IdnY57XwNb/L4fRKKycoqa+L4JqWZ2ex1N3sQogaM47JbL2CaLZ11G3JodnPpdIbdhoOqRhMQZlkReUXtTeq0od50dl1urdbG0yHPyvHLEj2gdtlbvMePkYiIiIiIyNEoqdNVrJGMHN2PLcvWktVg/FgvuYs+5/VvdlHibfvxR43pz45la8lwNfK5ax9LFm2mvM4qT8YqXn38U1YU1nu1DQ4i2A5Gg34u0tVsPWPpZRSTmZXPkdXGS+6qVNKq2nmCNtSbTq/LrdXaeNpS5m7EcIRihPUGwCxSUkdEREREJJApqdNlrCTOOJUTc7/i5f9tILf2ZbKa3FVzePalb0krBHubB2e10ueU05lZ/h0vvbGWrDrTSZslmcz/zzusSpjCuDrDY9ii7VSkzeWDjzaRV/syXE3GotWsL+vNsOG9CYDONd2aJW4IY0dZ2fTNtyzOrD641kvhxrm8vjKCaWPbO+pR6+tN59fl1pehdfG0pczdizWmPwBeJXVERERERAKaxtTpQpYe47n+riJeevolfj03nmHJoXgK97F9t8nQy27k9ssbn5K5xSJHcPUfruCN59/jrps/Z0D/HgR7y9i7q5DIGVfx26vhg/nLD28fNZYrfnEKTzz3HL9bmUxKYhje4n1sT/cx8qezuGhEN36rDRS2Ppxx3SVs+teHPHHHNr4YGk9YdT6Z5clcecdlOD5cybL2nqO19YYuqMut1Op42lDm7sQSMwCyV+Irz8HndmLYm54pTERERERE/MdYu3tR06OFHsWKl16mMj+fEVdc2ZExBRxPRRnlHithUaGHW664Kimp8GIPiyC0sdxHc59XF7Fzww5255bjCYogacgwRvSPaJhha/YcXpylFVQbIURF1GtP46kge8s2tmeX4iSEXoOGMHpIDEG4KS+ugpBIwus08HAXZbN5UwZ7i11YQqJIGjqUEX3DjvtmXAXbtpG1bCmDz7+AsF69/B1Os8zSHDal7ia72I09ug/Dxw0hKQKqy2rucW0daGudgVbXG6DFdbnRZ6ipeNtThpY+W+0pc4AwPR42vPkGfadOYeTFF3fosb3526la/AgAISf/GWvPYR16fBERERER6RhK6ki3dSwldUTq68ykjs9TTcWcXwE+HKOuxDH43A49voiIiIiIdIzjvTGGiIi0kmELwojoA2iwZBERERGRQKakjoiINGCNqZna3Fuc5edIRERERESkKUrqiIhIA5aoJAB8FfvxeRqb+11ERERERPxNSR0REWnAEpF4cMmHrzzHr7GIiIiIiEjjlNQREZEGLJFJtcve0r1+jERERERERJqipI6IiDRgBEeBPRQAszTbz9GIiIiIiEhjlNQREZEGDMPAElnTBcssUUsdEREREZFAZGvPzqbHg89n4iwu6ah4RLqMu7ISgOqyMqyOID9HI9I6pscLgNft7rRzWCP7YhbsUPcrEREREZEA1a6kTmVeHp7qarZ+8lFHxSPS5TIXLfR3CCJtVprVeQkX49Bgyc4CfG4nhj24084lIiIiIiKt166kTlB4BBiQNHlqR8Uj0mXKcnIo2LmD+HHjCI6I9Hc4Iq1imiaZS5cQHBvTaeewRiXWLpul2VhjUzrtXCIiIiIi0nrtSurYI8LxelwkTT2ho+IR6TK5qesp2LmD3iNHEpGQePQdRAKI1+Mmc+kSQqKiOu0ctS11ALMsR0kdEREREZEAo4GSRUSkUYYjDGwHZ8Cq2O/naEREREREpD4ldUREpFGGYWAJ6wWAryLPz9GIiIiIiEh9SuqIiEiTLBG9AfCW5/o5EhERERERqU9JHRERaZIR2hMAX8UBfD6fn6MREREREZG6lNQREZEmWcJqWurgceJzVfg3GBEREREROYKSOiIi0iRLeK/aZV+5BksWEREREQkkSuqIiEiTjPDetctmxQE/RiIiIiIiIvUpqSMiIk0ygiLBFgRoWnMRERERkUCjpI6IiDTJMAyMkMODJYuIiIiISOBQUkdEmleZw5bVG9hxwNPOA3ko27ebjes2kbanCA/gLUondfUWMkq8HRFpx+mwMh8fLGFxAJiVhX6ORERERERE6lJSR0Sa5dm/iv/c+TDvrnO2/SDmfpY8cy83XPZn7vnrY9zz3AryTXBvnce/bnuR73YHVlKnQ8p8HLGE9ADAV1Xk50hERERERKQum78DEJHjn3PtV/znvf2M+uNj/OXSvvhKnVgtYIkfzvk3xdI/TvnlgBYSDYDPWYjP58MwDD8HJCIiIiIioKSOiHQ6D/u272Zv6CiuOa0/wQCRYTUfDTiJa37lz9ikJSzBNS11MD34XBUYQeH+DUhERERERAB1vxKRTmdSWV4JERFEBvs7FmkLS0jM4R/UBUtEREREJGCopU6nqyRzxVKWrktnX1E1Rmg0SaMmcdrMYcTZG27tytvOsvlr2ZJZSCVhxA8ew8lnTCA5NJ8tK/ZgDhjPyIQjb1tVdioL561n694yfGE9SBo1iVNnDiFOd/eY5y3YzbotpcSMHE1KjPXID80idq7eQX54fyaN7IXt0PZb3fSbOpS4sl0s+XY5G9KLcdmiSBw1idNPH07PRuodgLdoDyt/WMPG3XmUux3EJA9h6unTGNpMfEere579O1izPZ99OVX43EXsWrESt8UgctA4Ric68BbsYm1aGT1GHy5fe8rQ2mehLWXujoyDY+oAmFWFWKL7+jEaERERERE5RC11OlUJa1/6O7+5+yPWHICI2CjsJVv4+IF7+P3D88k+YmIdLwWr3uPeXzzIywv24gyKJCqkmvTv/8Ofb3+ZhXvS+OS+J/g4te7ArR72/TCbO3/xFJ9uKccRE0WIex9Ln7uf39z9GWmlXVxc6XDuHfN55v/eYGFGIwMJu7L5/ql/8chHO3Af2n77fJ6+5zPWpS/j2Tv/zQcbyrFHhmMtSOWD+//CHx6qX+9qlKZ+xoM3P8CL87JwBkUSHe4lZ+l7/PW2x/l4t7vhDi2se57dy3jr+bf5eGUersJNzHnxTWY//y5zN1cejHcBT935KgvSD5evbWVo/bPQ+jJ3X0adljqmWuqIiIiIiAQMteXoRJ6sJXzw7n4m/fFh/nJ+/MGL7eYnYx/n949+xJxzp/GrKSEAePcvZfajCwi6+j5evHIokbXptgp2zpnN0/9vIWa1j/i6x8+cxwtP72Ts/Y/x82lxh29myTbeffAxnn1nME/eMgL1eOlm3LksfGEeibMe4KkZvQ/WiyoueOcx7njqAz45+wR+Oy20dnNvwQr+88/vsP3sPp67ZBARtZ/U1L1Hnp9LqQfG1DlFi+vetBt4dtrVbHzpbu6cO4I/vPYLJrekQrayDK19FtpS5u7MsAWBLQQ8VficmtZcRERERCRQqKVOJ7L1PZt73nmYX58RXyd7Zif51BOZFJ7Lls05uABws+fbuaxNuZRbj0joAISRcv71XNFrH9uOmF3Zxdav57Hv1Ku5vu5LLEDUUC79+RlYvl3Ej5WdVz4JUK6dpPc8ixtqkyEAIaScO5Op0bls2pBxsN4BeMj89htWDbyEmy+qm9yAmrp3HdeONyk4ouFKF9S9VpWhtfG0pcxiaFpzEREREZGAo6ROp7IRER9PbFC91cExxMZCUXEpJoBZwKbUvYyaMZk+jd0RSwyTZ4yjZ923VU8OmzeVMWrCEEIa2cUxaDijgtLZkaE3027HEsXYSaOIrL8+LIGkRAv5hSU19Q7ALGDDuixGTJ9EfKN1rweTTx5HbFfXvdaUobXxtKXMgiX44LTmSuqIiIiIiAQMvbZ0ugqy165l9YY9ZOcWU1rhwuUqJX2/F6/34Dgirjxy98eSlBjW5FHsSX1Iqjs4rKeQAzlVbProWR78qrE9qtlbXMSoIrOxD+V4Zo2mR4yj4XrDQVAQuFxefIfWuQ7U1L0+oQ23P8iRmEDiEUmdLqh7rSlDa+NpS5kFI7gmxWZWl/k5EhEREREROUSvLZ3IW7iB9x56ltdS7YyfMZERA1NIjgwm2FaCbdcmthza0FeNy+UgMsRo8lhGsJ2guq0KfF48nhB6908mJbLx/VIGj6ZfbzXG6n6sWJu67fWris9FdbWdiOCm654lyEFQ3Y+7pO61pgytjKctZRYMRzgAPle5nyMREREREZFDlNTpNBWsefVFZu8awp2v/JrzB9TpGFK9hex3LYeTOpZggoOdVFb4GjsQAN6yKsq9EFRnn9CIMAbMuJhrxjfSokGOD4YB+PA1WjU8uD3tbIllCSLkKHXPLK+gwgfhtfsEWN1rbTxtKbNA0MHRh9xqqSMiIiIiEijUjKOzOHfz4+r9JM48g9MH1Bvpw1tKSVGdKartvUlIKCAjo4RGJq4GoHxXOpmuOivs8STE55OZUdrkPnLsszgcOKiiytkwAeEtz2d/fjvvvj2ePn0KyUgvbqIeeSndk0lWINe91sbTljILhv1gUsfrxuep9m8wIiIiIiICKKnTiTx43OBw2OpdZC/5K1axKrdOCwtLDGPGD2TL/GXsaWxsWXc6C75dT3HddZZoxkwcSNoPy8n0NDz3vnnv8srnW9GQOsc2a3wsvY0C0nfncuRt9pC7eC0b2zu7mSWacZNS2LpgOemN1r0s5s9NpazePgFV91obT1vKLFgch9stqQuWiIiIiEhgUFKnsziSGTYynD2Ll7Ay99CbpoeCH7/ghW/cDB1cd9RjG0lnn8speZ/w9HOL2FV6+BNv8W7mPv0yC2MmMvaIWbRsJJ11LtP3fcj/m72GnNo/nFexb+kHPPH4p2zI8xGsO3xMs/YcyYTxNlI//4wf0qsOrvVQ8OMcXlocyfRJwe08g43EMy/grLLPeeaFZWTUSRJ5i3fz3dOzWZV0MhMDuu61Np62lFmM4DqTv1crqSMiIiIiEgg0pk5nsfRgxo03sO6el7nv2g2MGtGboPIc0quGcsN951P21FK219ncGjOZG++7muf++Qq/uvI9hg6JJ8wsI3tnPlEzr+UP11Uxe/4KjDqjxFp7TOUX9xfwzEOPM+vLBEYOiMCTn8mWHV5GXHc7f7p2eKNTPMsxxJbMeTf/jNR73+ChG9P4eHQiYVX72VM2gOvuv56gNxexqL3niBrLdffdwOxH/8NtV7xHSkocIZ4SsrbnEXXmjdz1c/jflz9QtwNYoNW9VsfThjJ3d4bjcFLHdJXpLwIiIiIiIgHAWLt7UZvfW1a89DLOokIm/fLWjozp+FK1n7TVaezOc2GP7cvoKSNJDPXgLC6j2hZOVLj9yO2rC9ixLo0dueW4bZEkDR/J6JQY2PYhf7xlHimPPMlvp9V7XXbms23dZnbmlOFxRNNv5ChGD4xSxu4oclPXs3Pud4y95hoiEhL9HU6zvMWZbFi3naxCN47YvoycOIq+keAsLaKKMGIiDw4Q7K6gpNyDPTyKUHv9o9TUuypLne2P+LiMrI1pbMkopIoweg8dybjhcQTjoqyoAkJiiKjfMKiFdc9TUUKZ20ZYdBhHnLmxeNtThtY+C20pc4Dwetwsf+pJ+k6dwsiLL+7085nOUiq//h0AQRNvxt5vWqefU0REREREmqf3/s4W0puRM3oz8oiVNoKjYzj8ruilcPNKFm+CkT85kcHTZjD4iO09ZPy4mT3Ro7lsWCPtH4LjGHriDIZ2SgEkEFij+zH+tH6Mr7c+OLJuPQLsYUTFNHWU+vWu/scR9B1/An3rnwQHETFNzCrVwrpnC4ui0bAai7c9ZWjts9CWMndThiOsdllj6oiIiIiIBAa1oA8IVuzlO/jy+ed56tn5bC2sM3qru5AtX7/OE69nMX7WBZzQ5MuuiEjnMSxWsIUC4HNpGGkRERERkUCgljoBImLKldx9D7wy+z/c9vnr9Onbkwi7m5KcfZSEj+Cc2/7MrAuTUdsBEfEbWwh4KsHj9HckIiIiIiKCkjoBJISBZ97AI6deRs7OdLIOlOH02QmPSyBlaCKRulMi4meGPQifE3ye6qNvLCIiIiIinU6pgkBjCydh2CgShvk7EBGRIxnWoJoZwbxK6oiIiIiIBAKNqSMiIi1jrxmi2udW9ysRERERkUCgpI6IiLSIYT2Y1PEqqSMiIiIiEgiU1BERkRYxDrbUQS11REREREQCQrvG1PFUV2N6PBSl7+moeES6TEVhPgCl+3LwVLv8HI1I6/hMLwDuyqouO6dhDao5t8bUEREREREJCO1K6jgLC/FUV5P24QcdFY9Il9uzYL6/QxBps/Lc/V13stoxdZTUEREREREJBO1K6gycORNXeTlRSYkdFY9Il3GWllKy4Stixp2NIzzG3+GItIpp+ijOyiQ6sW/XnfRgSx00po6IiIiISEBoZ1LnlI6KQ6TLeXJS6VmwH6t1AyHjfufvcERaLXHC+C49X+2YOh4ldUREREREAoEGSpZuy5O9HABv7nrcmcv9HI3IMcCwH1zw4fOZfg1FRERERESU1JFuyudx4slZV/tz9Yb/YTpL/RiRyDHAqPNPhqmkjoiIiIiIvympI92SJ3sNeN2HV7jLqU59038BiRwDDMN6+Aef13+BiIiIiIgIoKSOdFPu7GUN1nn3ralJ9ohI4+q21FH3KxERERERv1NSR7ods6oIM29ro585U9/EdFV0cUQixwjL4ZY6GlNHRERERMT/lNSRbseTvQLwNf6hqxTXhre7NB6RY0adpA6mul+JiIiIiPibkjrS7bgzGna9AsBqxwiPx+csxaws6NqgRI4BRt1/MjSmjoiIiIiI39n8HYBIVzKrSrBExGPpPQIjJA73nvn4ynMBCLvwJQzD8HOEIgHsiJY66n4lIiIiIuJvSupIt2IJiSJk6q9rfzaCIqle8yIAvsoCjLA4f4UmEvgMtdQREREREQkk6n4l3Zo1Orl22Zu/zY+RiBwDLErqiIiIiIgEEiV1pFuzRMRjhPYCwLNvrZ+jETmWqKuiiIiIiIi/Kakj3Z4tcQIA3rxN+DzVfo5GJIDVnfHK0D8fIiIiIiL+pt/KpduzJUysWfC68eZu9G8wIoGs7uDIdQdNFhERERERv1BSR7o9S49BEBwDgDtjkZ+jEQlgdcfRMZTUERERERHxNyV1pNszDAN7/xkAeA9swizP83NEIoHJ56vTUkfdr0RERERE/E6/lYsA9v6ngGEAPtzpP/g7HJHA5HXVLhpWhx8DERERERERUFJHBABLSAzW+PEAuNMXacBkkUb4PM7DP9iU1BERERER8TcldUQOcgw6s2bBXY579/f+DUYkAPk8VTULtiAMdb8SEREREfE7/VYucpC15zAssUMBcG3/Rq11ROo7lNSxhvg3DhERERERAZTUETlC0PCLahbcZbh2z/NvMCKBxl2T6DRswX4OREREREREQEkdkSNYew7HElfTWse97QvMqmI/RyQSOHyeSgAMu5I6IiIiIiKBQEkdkXqCR10NGOBx4tr0rr/DEQkYZnUpAEZQlJ8jERERERERUFJHpAFLTDL2AacC4MleiffAZj9HJBIYfM5DSZ1IP0ciIiIiIiIAtvbs/MO//oWrvIKQKP2CL8cXw/AyMtmK3eql+Ien2JI1CJ/P6u+wRGr5fFBVUkxUv36ccPPNXXPO6jIAjKCILjmfiIiIiIg0r11JHdPrBZ+JJUjjK8jxZ19JX5J7pBNkd5Mcn0dmYX9/hyRSy+fz4fOa+DzeLjqfCa6DSZ1gJXVERERERAJBu5I6obFxOC2FjP3ZtR0Vj0hg2fo2HFhDTGgBMRPOhV4T/R2RCABej5vlTz1JZJ+ELjmfr7oc8AFgODSmjoiIiIhIINCYOiLNGXwZBMXWLO94H8r3+jceET/xVRbULltCe/gxEhEREREROURJHZHmWINh+HVg2MDrgo2zobrE31GJdLm6SR0jJNaPkYiIiIiIyCFK6ogcTWQyDP1pzbK7GNL+A95q/8Yk0sVMZ92kTrQfIxERERERkUOU1BFpiV4Tod9ZNcvlWbDxZSV2pFupbakTFINhaddwbCIiIiIi0kGU1BFpqf7nQu8pNculu5XYkW7FrMgHwBKmrlciIiIiIoFCSR2R1hhyFfSaXLNcuhs2vFA7zbPI8cwszwXAEtbbz5GIiIiIiMghSuqItIZhqRlf51BipywD1j2pWbHkuOYzvfgqDgBgRMT7ORoRERERETlESR2R1jIsMPRq6HtGzc+uIkh9Bvav9m9cIp3EV1kAPi8A1vAEP0cjIiIiIiKHKKkj0haGAQPOh2HXHJ7ufNv/IG22umPJcccsy6ldtoSr+5WIiIiISKDQFCZdyFOaS3pGPuVuC/bQKPoMSCQmyN9RtY23KIO0nUW4sROTMoyBMVZ/h9SAsyCLjL2lVHlthPeKp19iFI6OPkmvSRDcE7a+Dc48KEiDkn9C8tnQ58SahE8jKvduZ9veSnzWKPqNH0BcgKZXnTk72JJdgc+IJGlcMkFZ29mVVw22KJLHDSC2DXF7SnJJT8+nzBVK0sRkjF2bySyxEBLXh0H9Yzr+Hkm7mRWHkjoGhpI6IiIiIiIBQ0mdrmAWsPr1V3ju7ZVklHgxAYKH84uX/sF1I+z+jq5N3Nvm8e87PiPD14fLn3iS304L8XdIB3kpWP8tb7/2JfNW7qXEY9asttiJHTyZs6+9kp+dM5CIjjxlZDJMugv2fAF7F4OnEnZ9Alk/QP+zodcEsNS9zx5yF7zJ3U+n4oo9kwc+/i2nhHZkQB2kdBP/u+8h3tzgYeBVf+KxCQMJqt7O+/e/xvLiaE7+w33cf+WAlidhzCLWv/0KT7+6jN1lJoTP5N4vb8X+7mM88HkxpiWM5FOv4s67L2RsdOAlCbszszgLACO8N4b12PzOEhERERE5HgVomsR1WgAAIABJREFU+4DjS9Wqz3julWXsKbMQP+08Zv16FrfcNIMhMYa/Q2uStyiNb974iA8XZuBqbAOrjeCICCIjgrAZgVONqjZ+wsN3v8JHS7MoC45jyKQJTJ6QTJzDS8G2Zbz7t4d57JOGZTpqeY/G4oBBl8LY30JEv5p1riLY/i6suA92vA8le2rHJfG3o5e3kg3vvsEHG6qwDjiDn984gR4WCB52Hrf8fDJxFLBs9ht8ur3lV8uV+iXPv7iM3WUQkTKFiy4fQ6LVTsKks/jJKQOIpIKMBW/z4vvb23YPpNN4izMBsEb183MkIiIiIiJSl1rqdDo32Vt3sM8NlrDxXHX3L7m4T+C3QihfM5dXnluI5ZIkLjglucHnwZNv4OVvb/BDZM0wC1n8wRzWFXixJk7nd4/dxkWDwwAvJWnf8Pg9s1m49wBLXv+cZTNvY2adLmNHK2+LRQ2E8X+Ago2w52uozAGPE3KW1/xndUB4X3pEV3PJjGgKKCemZAt4w8AeDo7wmgRRJztaeV075/HW+9uptMRy5vUXM7X2WtkZcNHVXLVoMy8sX8+7s7/nhIfPpd9Rv0k8ZKdtI8NlYgkby7V//zM/TTnY4uPcaxly5nSS7vwzzy+rZPf6rWR5hjNI304Bwef14Cuv6X5lRPX1czQiIiIiIlKXXps6nQ9ntQsfQHAkMcdEt5JKNv+4mSITYv0dSmu4sti1vRwTK31OmsnZg8MOfmAlauTZ3HDFGrZ/Vk7fQcFU5ZlQm6johPLGjoYeo6BkF+SugoLUmsGUvS4o2UV0JNx6USxwAHa8fOS+ofEQOQCiB0KPEWDr6L5ZRytvCas//Ip1JRA0+gwuOa03R9Ra+wDOu/Z0vl37CTuXfMEnK0/idydFHuWcJpUVVZiAtfcAUpLqdeGxxTN4SG+sy/ZglldQ6UXfTgHCV5ZzeOarSCV1REREREQCiV6bOo2LjR/8l6+2VFO+Jx8vQOU2vnrsaVYYYOkzhWtnTaLsqzf4dH05RI7gkl+fyeC677rudL57cQ4/FkHomHO45eLBteOXuNZ/yXNzduKy9uW0237CgF3f8Mab81iRtp8qew/6j5/GJTdeymkp9RICZinbv/uSD79cyYadeZT7QokfPJKTLriQy87uS8YH/+WrzaVkr87Di4+K1O948m8rsBhBDL3oJi4eUxOBa/tcZr+/mTLCGHXZDZw//HDglRlr+eazH1i2dgfpOSVU+kKITUpm2KTJnHPJ6Uzsc+To0G0uSwNePJ6Dl67ahRsIrv3MxqBr7ufdaxq5R82W12D75227Rxjl7Fyzlo8+X8PWPbn06xvFCRMSmTIilChXNhZMLJZGuuBV5tb8l7sct9fH8q0ulmZEYyafysVXncbIHodTLK27di0prwNv7irmLsjFbQnlxHNnMDS4YYjhE07jnInf8fzyvfwwZyVXTjuThKP0wvPVpDbBam3ki8fAarNh1G4rgcJbnFG7bFH3KxERERGRgKKkTqfxULh1Gd/MKcY8tKoqixVf1Aw4GjSpL5fcYFK8aw3fzdkL/cM49VagbsLAW0b68h/4aodJn9AT+GWdj8zyLFZ+9T059nEkTXTzvyfeYV3hoTNVsOG7vWzdVY7juV9ycuyhJEAp6199jL/NTqXAY8EeHoqjOo8dK+azY81GdpXexcyty/jmi8MxV+xczTc7AUsPjOnXw8GUhVmYyYqvvifD14fQ0685GLiXA8v+xyN//5h1+V7Agj08nFBfEdmb8snc9CMLvl3LTQ/ezs/GR7WzLI2wxZPYz44lo5KChV/w9ikDmTU9gUZyEkfeo2bLa23jPSpn4xtP8OALa8nzABYruVUWVq1fgzNiDJefEcacD1IJ6nMaf/3vT5lsqQRvOTj3U5Y2H4+rnJhIG3arwYyRQcwYWcXOfZ/yv2e2UP6bXzM1ztqGa9ey8hasXs+PxSaW0BFMmda78S8JWyInzhjJaytXUbxqDWv2n8aFCcdCKzRpLbNod82CIwojJNq/wYiIiIiIyBGU1Ok0DoZdejsPneImd8FbPP9FFt6oycy65yxSrGCExdPbDoVtPbzVhs0A3Nl8+dIB+l76J/5z2TjivZksnP0iz3y+G+eeRXyz8GKmXRqPFXBt/IpX3txIgRnNxJ//jrtumEhcyTrefPBJ3lqTx7K35jHl7tt5aPpe5j/zBnOzvMTO/Bm/vzAZq2Glx5Dmx3rxZM/nhUdqEjrWXuO55q5ZXD59AFHefDZ9/S7PPD2PbTlrefXRD0h54RdMOfR+2IayNMrWm5PPP5mPV8wjqziN9/70R1ZMncbMGROZetJYhveuP0PXwXvUbHnbNrCxa/PXzH71R/I8FuzJJ3HL/93AhRN7YcnbwrcvvsRLn2ZR7YNqp5XK4Hg42AjJmfY+9zyyhdRygykXXclfLgshpmgNeCpI6ePgvj572LH6USpPvpbQiL6tvHZxLShvNTs3b6fMBPuAwQzr3dRXhI2eY4eT4ljF+optbN5cxYUJ4c1fFF8L29+YPrXUCSCewl0AWHsMxDACd3B3ERFpu7LcA+xZspCwHnEERXboHKEiInIUVUXFVJUUMfTscwmKOMo7VSOU1Ok0NnqPnERvXGzc8mFNtxJbNP2nTuWk2l5E1W0/vGHUTF3mKaRqyK+4/ecnkmgDGMY5N1/AmoXPMr+oim3bM3ATj5VqNs5fzLYKE/vAGVx93UT6hAAhE7jiqumsKd+JI9bAiB3Lif2C2PQygIE1NpkpM6Y209rlEBfbvv6WJblesERywqxfcsOpSTUVzBbHqItv5OaM7dz9Vjqu3Yv4evHFTLwwriZB0+qyNMVKr1Ov4+7fu3jy5UXsLCllz9Jv2bP0W14P7smwk6dzzqXncO7k+IPtjQ7eI2dz5W1LUqeatO8XkVZugiWG6bNu4NKJvWri7jmcC393PZmbH+L9nfWnn6ti49yFbC43wTGEkRddRsxwB/gugJx5ODd+RXCIlcFhBzB/fBL6nQnQqmt31PJ6csjeW4IXCxH9EujbzOzVjqQk+sdYWZ9TQVZ6Di4GNzO9uZviwhK8gNVhr0lEHcEgJCQYA3AXFFJYBQQ1OIh0MZ+nGl9ZTetCS+wgP0cjIiKdpTgzg31rf/R3GCIi3VrfyVOV1OmWLCGMmjaR+Dp30hrZj/5JVihyU1FWgQsI9uSwY1sebixEDR3MsLDD20fOvJkXZtY5prMNcXhySEvNrJmKOmQok09KqFe5whg1ZQzx76WT5S5jY9pOXBfGcUTbmZaWpbk4LFGMuvIOnpt+DovnLmPZsrWsSc2h1JnH5nkfs3XhYpb98vfcfcNoYjprJnZPDtu27scNWEKGMWFy7JGJqMjhTJ7Si0927j0yZeTOYcfWAzX7RfalX5KHyoqDgwRFncjW7V+xKqOAG86OJSTIB5nf4TCCiY+1k3HA0f5rB+AtoTjfC1jpERvT/BeErQexvWyQ4yG/oE43w4YHpSj1W75cUogXK/HDBtKvQcLGTr/xo0gJSSOtcDWfvrWSwTdNJamjx4iWVjGLM2pbWNliBvo5GhER6SwhPWIASJw8mdiUFD9HIyLSveRu3MiBTZuwh4YdfeNGKKlzrLOEExsbdmTSwOogOMQKuMHrxQPgKaaosOZlPapHJM00wGgbTwEH9h+aISeO3jEN29PY4nsSb4Mst5eKvEJKTAipm1hpaVlaIDhhBGdeP4Izr7+RsqwtrPx+AZ+9P59NeXmsmv0K7w5/hF+d0LaH5qg8xRTl11wLIyqG2Mj618JOr969sFIvqeMtpiC/JjVi5n/Pg2d93+jhF6TZeOzusfQz0rH4nNz/60TufcvVMdfOrKbaaQIWQkKCaDbvZQQRHGoAPiqrnE10mapi+VN38fB7eyk1HSRMPZ/bbphEY3NlOUZfyG9u38/T/1nMhtcfYdbnKVz98EP8fJKa7PiLt3DnwSUDS8wAv8YiIiKdx2qvaWsbEh1DZKJmOhQR6UpFGekAWG1tS88oqRPgjj4MiRVrg/yJAfW7t/i8uF01L+vWxmZcai+fiddzsK2G1dp4F6k6603Th7cmnLobtKwsrWIlou8ozpg1ihPG9+Qvv3uX1Iq9LF2+jRtPmNCCbmVH1+Ae+bx43M1fC1vDggI+8NXsZ4lK4eTTU4hptOw21kZeT79eK/Dt+oywUCuP/iKYJcZy4LQ627Xt2rV8PBvj8GxVTe7kw1NZSYVpgiWI8B5xRIc29bVjYA8OIyLEAVTgrXLiatuQRtJBvHlbgZpZrwxbRzwtIiIiIiLSkZTU8bNDA4+abi/eBsmBKiormu7U0iqWYELDLIBJeXlVxw9Ea4kgKtoC2V585WWUVQP1xiU2i8so8QJYCIoMJ7JTap8XZ1Eepdae9KrXQiZ8xCSmDP6I1PXVFOYXt6w7Em24R5YQQsMtgBdfeTnlbupdC5OS0tKG3ZWMMMIja/bDlszpt9/GzGYbE83EnZGKp2w3oSEWZnrnQKa3dqydNjEcBAXVZNqczupmulQBvmqqnT7AIDjY0UT+KJTpf3mO16d/yL//9jHrv32NZ/r055lbRza49s4fP+XxR79kS3Uwwy77PXfcMp2hMR3epkxayGd68RbuAMDac6ifoxERERERkcZ01qgi0iIGjqAgDMBXUkR++ZHNEly7d7OjoIOaKtgTSEwKwoKX0sy97HUf/si56j3u/cM/+cdD/2NBeks7ONUTlMigwTFYAbNiN1u2VNbbwMOBbTvJ8gAWBykpyfVzPu3m2vI59151Exedczv//Ozg+D51mU6qKmuaBwWHBLcwo9mGe2SPp09iTdclsyKD3bvqDYjtyWf71r0Nu0MF9aFfcljNfmVZpO+pV4LSXaxevZequkWyhPPAc9nsLTiYfkn/CjLntqhkjbJFERNnBbwUFpQ0n9TxFJF/wANY6BkX3cyXSSh9p1/MxdNjsJrVpK9NI91dfxs3mes3sbvKxBIzhStuOU0JHT8zSzLBUzPAljV2mJ+jERERERGRxiip41dWEhJ647CAWbmZJd9nHR6juHIPX705j+2emlvU0tmgm2SJZMzkUYRbwL1xGfPWl9asN4tYu2ARy5cs4/vF+3BHGGAc6gblo7KgiJIWNRYKZ9yp00i2A+59LHh/LlsrDn/qyVnFBx+vp9IES/RYZsxI6vBmYo5+fYk3ynGaTtZ/8C6fbiypM2ZNFRnz5rJwjxssYYwY0f/wTE3NlrcN98gSyZhJIwm3AK4M5n+yhOzaJIaXA8vm8MWquqmZQ8IYd8J4Ym2Aaw8/fPUjBbWxlLHh/dk8cPuf+M0/5tckxw7KzXfzuxerKSa2ZkX6V5A1v+kL1Vx5bXEkJkZixaQyex9ZDZIvh3ly95Fd6AVLGIlJ8c3MfAUQTFyvQ0m/KpwN6pSPapcLH2CL60lPDZDsd978rbXL1ji11BERERERCUTqfuVXVnpMnsDEHitYmF/Myuf+zl0bJjC0h5ec9WvYFH4i502Yz2dr3Hi87W2xYyPx9PM4/7P1vLd5N+/f/xAFZ40gqiCN+fOycFvsDDz7VE6ItYLZk96JwVi2llG59EMe/ecBRsb4CB19Llec3KvJKcUjpl7ELy7bxEPv76Jg2Wv85batzJiSSJjzAJsWr2DDXjfYenLSTT/lnOROqHpho7nouhNZ8tBi9uUs54Vf7+T7icPoF2XgzN3N+tR9lHoshI06i4tP63O48tubL2/r71HNtT7v01Te3+pk37cv8af8TZw8ugfk7WDZ4hJGnjma7DmpuDzeOoknK7EzL+Tyr37kpeXF7PnkBR5wp3PqiHDKtixhzhdbqDR6M2D8UBLqXb68UvjY9gtusv0HnPmwZw44zm/8OjVb3lhShqUQZjlA+a5dbM/3MjShsTvupXDjNrZXgyU0hWHDWzDotFGng1ZzSUqL0b5hlKRDePenAWBE9sNwKMsmIiIiIhKI1FLHz2yJM7nxt2cwJMqC6cxj49xv+fC9+Wy0TOXXf7yEoVE1sws5K6tbPPNTk6LGMeveW7lobDQUbOG7tz/ig2+2UmCGM+ism7jrpok1sxJZejL9sgsY08OK6T7Amk8+5PX/fsmq9Mrmx+KxxHHS7X/mvltnMCQKijYv5ZPX3uetd39g/V4XIf0mcvm993D3VYM6ZIDihmwknX8L9919DuMTgqEqj61LFvPdl4tYtDabciOSwWdezb3/uJpJ0XXjbr68bbpH0eOZdf+tXDQuFjtO9q7+nvf++wEfLChg8C9+xayJkdgsYHpdVNftnRWcwuX3/J6fn9aXcLOQDZ++zdMPv8R/P9lCcVQK5955B7efn9hoNrbCiIIxt4H94NxSO76lR2NdmJotr5W4yWMZF2nBrEhj1co8Gk0nmgdYuWQjZaaFsHETmZSo/PDxxOdx1rbUsSWM9XM0IiIiIiLSFGPt7kVt7tiz4qWXcRYVMumXt3ZkTMcdT0UJZdUmGHbCYsIb7abizNnGutR08sohpHcyoycOIyEUnKVFVHrAsIUSE1lnamd3BSXlLrwYOEKjCT9i1mcPzuIyKs1G9gNwF7NnfRrbskuotoYTP3gEY4fHNUi0VGZvYuW6TEpNBxFxfRg0cjDJh5IEzZ4fPMXZbN64i735FbitIcQk9GfE6AHENpbNaU9ZmlJ5gG0bdpCeW0Kl10pIVCxJQ4cyrG9Ek83Tmi0vbbhHAJ4S0tensTW7mGprFMljxzGuXxhUl1NU6caHjdCoCIIbpFerOLBlC2m7DlDqshDaI4HBY4fTP6Ze9I1du7IMSH0OTDemLZySQTdDSK8GsTVZXrOIBQ/9kb9/nk/QpOt55plLGVwvN+Tc8A53/Po90jw9Of/v/+LOM3o02YKrhotNL/0ff5i9A9+gi/nXazcxMfjIz9c//yf++OpuGH4lj79yLWM0k3mzvB43y596kr5TpzDy4os79NievWtxrnoWgJAZf8UaO6hDjy8iIoGlKCOTlS++SMqZZxE/dpy/w5FuzJu7nLde34yndzx9R01g5qSE5rv4VxZTRDQxzTUqNovYvnI7JcGx9OrXh6TY0KP83tqdeMjd8CMZ3hgS+vahT1xoi7vyuPb8wDvfORlx7nQm92tBq31pUsayxWQtW84pf/ozITFRrd5ff17vArawKGKOUs+DE4ZyYkLDcSuCI2Mab9ViDyOqyYPaCI5uYj8AezQDJp/EgMnNxxSaNIpTk0Y1cYzmzg+26CTGTE9iTPOnaMGxjlKWpoT2YugJvWjNSCDNlpc23CMAWxT9J51I/0n11geFE9Ns0iKEXsMn0Gv4UYJu7NpFJMOwn8Hm17F4yok58BWMurnBrk2W1xLDSZefw+j5b7F+/Xd8ungmd5xWJ2nj2cvct79lqxMiTzifS085WkIHwEJIaCgG4Nm/l4wDHib2q/P1YxaQsfsAHsAeGkyo2hD6lSc3tWbBHoGlxwD/BiMiIiLHLNe2ufz38wyICCOksTdP04urqhLPgNP4+U9ScARVkP7NZ8x39mTSRXlsW5fCpTedTKONwku28cFDT/B+xcn8/i8/5aTEpibZcLP1oyd4fGE1UaMv5d4nrmdydBObHo6cze++wDsbTCIiQ3C0IQtkupyUlVoZM+tWLhleNzYvtDmtVMnCR+7gpY1RJA6YzFV/vPzIHgit5iV38Vvc89oevOHj+dXse7lyUAtSBFU7+eSp//LasmJ450su+Os9/P6M+CNK5XJWYwkOUsKhC+gaixyP4sZBYjrsXQhFW2HfYkic0eLdHcPP5rpLlrLl7T3MfX0OZ0y6gfGRAB72zX2PtxcV4gsfyeW/PIuUFk1SZSNx1BD6OVLZUb6Ot//+HIXTJzHz6ilYln7JgkUr+XppOSZ2EoYNosl/k6XT+XxmbVLHFj8Gw1CGTURERNrILCbt88/Z4GxuoyDG3nb6wcVQQoIsUFnO5m8+ZU11FNmhvXng2sENZs51Fewj80A5+Wkf8Y878/jV/Tfzk+HhDQ9vCSc01IKFIEaddxYTWpQEMbBV5bJybhrVR9+4aY4B9PnpkR1jSr58guv+vRFHVChBTfya5fM6KSvrw9XP38Xo9OVkEEt83/4MGxlDaIiVAzu24x55EUPaldCBQ394tQD2CVOZPqAF6QGziDWvzubNFcWYWLA7qkl77Z/c8tqh2N1UlnpImfV/3HtF//YGKC2gpI7I8Wrg+VC8Ayr2we45ED0YwhJauHME46+7lotX/4sPtn7N7P9N4J+3jiYofQGvvLiYHDOKSdfP4ooxLR9AN3js+dwyayePvpbKgfXf8+ZOL/0vH4998ce8NacY02Kn56SfcMtVYzp8untpObMoA1w1s+PZ4tUEX0REujMvBeu/5e3XvmTeyr2UeA5O32mxEzt4MmdfeyU/O2cgEX6N0cPutx7kV0+n4oo9kwc+/i2nBND8BpbQIIINCJ3xc/51yxhCU9/jt4+uJvGaO7jrvETcy1/lrme3Ehp+sEuUYcFqNSBoGBffEM6ClxezavZLvD7or/xyWvQRLUEcA0/l94/HkfDw0/x3ySKe+XMFZff9hp9OiqnXDqYaj9uHCVitLW0hYxAaGoIBhJ52K8/9Zmy9bmBe0j96nAffySZi0GQu+801nNK3bobGh6e6moqSKoL71z+nBUdYKOEhPorScygmmr6DexLmKiZ9Tx6u0J4kJ4QRbtoxDIO9i97k8blOQib8jH8/fTHBIUEYWIiKiaztLeDJXsIbb22iKjyMYLulzqQjPky3i8pyF0nn3MSl4+p3ZjOw2Ww1MUVGEn3Uv+WVsentZ/nnm5upCOrJwIHRda6Lm6KMTPaXQ+QJs7jh4v5HmR1XOoqSOiLHK8MOw6+DdU+A6YYdH8K437Z4d2vMRK5/8C+M3FOOz2qjzO39/+zdd3hUVfrA8e/caemFFFJJQgghgQABQg1dEEGlqVhBd9G1rGV31bWturr2sq7Kz97FgigqiAVBei8JIUBCAoSEkt4zmXbn90cCJCGBBAID5P08D88zc+feM+89M0DOm3Peg7W2E6Pu/gcjdX50HxZLm35mUDqRdOu/+GD8HnbtK8Hk8CHGYEC54g6eHK7g5h9Oj/gQPGViiFPZjqTUPdAoaDu3vBxRCCGEuNiZ0hbw7ENz2VxsR/EIpHuPMLzVYvbtzKUoYy1fPZXFQdO/eGxqxLHBq700nSULd1MVMYArR0Z0iEHtSe9Zo6AA5rTv+Pe/8rjjah0aQLFnM++RedQE2rADGk3TvU8V/EfP4q78HJ5akMW3/5tLXNfbGdm5cYJE65fA9U89gucLr/DGr5v44LGXqXn8Pm4ZGnB8oKuaqbW0tYysBq22LnaN0Y3A8FAazQGqSWHhhjwsig89L5/CxIHhNC192RLvSf9g/iSg9HeenPY6f5DAja8/wKg9H3PHvd9xsOt4/vn2DOpWbJlY7emGBjsxQwfQzQUyjqZsGvSZWn2E1J8Wk9LSjChDd25uYWNcjQY0gEY5xf6ztgI2fvIOr36whWKXrlz+8APcPT702Odt2f0t/7zjM/L1XbjshktaOZtftAdJ6ghxMXMLgi7jYP9iqNgL+Zug8ymKKTXg0bUvI7s2ONCjPyN7nElAOrwi4hgU0eBQ3yG0dv6QOPuOJnUU/1g0+rOzT50QQghx3lNLWPXNQrYW29GGDufel+5kcow7YKc8/RdeefR9VhwsYPUnP7J21J2M8q1LNlRtXsJ7c1agTA3j8pERJ3+Pi0Rr7lnr54fPwVXM/zkEGyqFfyxnf7knI+I9UShqvmGlE0Nvm8WV219imasWa7WNZmvRuHflikceRK99kf8ur6KswoTa8HXVjMXsAE6RtDgZ616+/fd7rK50x8PViNZ8iNT9VhSjkertC3l9x8Jjp9qttdRUmel+4yPcNuzUvwJVUNCdZFSu1dfNpHFzb7nAs9a/J1Me/AfTfD1wM2iPbXGtFm/i/f8sJNPgj7vmIAeL/PHzNDbYAtuOerSzVBWb2URFeTEFVQbCugYemwlkOZLK92++x8dLDlCtKrh38cG0dh4vrT3ajoOafSmkVqloAz2p3DiftzfVHbeZqih37cPNd4xovjaSOGPSrUJc7MJHw5FNUFsIe38Ev16gkwVO4kSqqRRH+QFAll4JIYTo4Cy5ZGdWoaIlZNgoLo05ujGFFu+elzLr6s1k/lBFeLQLpkIVfLVADTu37aRUBT9nxn5Ote6e9V2GMzFmOcsP1qICdp2B0FGXMyVhA2t+tlGYvo5fPALwMh6kxOYARxWHUjez3hvirpxBsE9nSF/OOscYhkQ3MwXEJYIJDz5I0JV64hNDGs8Wclgwm+tm6tSaazmtrZ81RqjKZuvaJlNhbHlsWZrXzA2H0/XmE1MwlqxNLMmowc3diKE2j1IbYKzh4KYNbDpURK0D1OoCdq/ZQJFqptrshs1+6vC0fnGMHufFqo8XkpV0Pdf19wKgdu0mqlTQhfhT8sXDXL+kpsU2ahe9xOWL6h67DJnNe69eSRddDXsWfsT/3lpGeqG1PlmmUp29lSXZLTRUkMbiz9IaHXK/JI47JfNw1kjXCnGx0+ggZhqkvQPWKsj9A6ImOjsqcR6yHdp27LEkdYQQQnRsdmy2ukdWswUrNNjtVEf0DU/w1Q1Hn1tI++ZtFu+sIG9TIXYcVKf+xn+fWo+iMRI7+U9M6W0ArGT++Cnfp1SBVzxT7xpHTMP8hHU/v729kG2l4NZ7An+ZEtMgOVFJ1u+L+fbHDaTsOUKF6kF4rwFcNnM6CS1OQDFzaONSfvhhLZvTcymoAo+gCHoNG8GUGaPp2el40sGS8hNzFmZh0YYz5s4ricr+hU8/+5316fmY9J2ITBzC1FumMabb0ZknFtK++fDU92y1YgUsu9exuXsQPso+ADRuAQSbNjN38T7MWNmz6CNeXNQw9gzmP/Us8xseUry57JnhJJYt4rWFh3D1dkWvAYfDgqlcJfrq2UxNbGY142LWAAAgAElEQVTBm2rFUqsCdrIz9lNDOF4tdVlLFFdcXDSAG2P//Q4PjW3hF6TWdN6f/R++znWpP78xc9YK5jy5kuqGB2s38eGDm44/z17Caw8sAUAbNoHrB7UmQAu7vnyTZz/ahX0FdHn9VoYFOCg8cIgim4Jr1wgifcLpNcADL3d9oxk/5vxMtuwuQxsWS1K0J6qpigo/Y/05bkQMSKJn8Boy9D0Z3b2UP5YfovO1D/P2X3vXfz+tpL71IA/PPULYDY/x5h096487KPjxRW59cQsGV9e272YsWk2SOkJ0BL49oFM8lOyEQyshbCToW96SXnRMtty6ObQaz1AUj0AnRyOEEEI4kS6I0C56lJwailcsYu7Irtw8PLiFgamNkt1r+WVR2bFlP9VZm/glC1A6oRk+EzAAKmXZm/lt4UGIdGf07UCjna4r2b9uOYv3qIS4DebWYy9Ukfbpq/z7rS0U2gBFi5unQs66xby2I4+rLmkuphp2ffMmz7y2llwLuAVFEBVu5XDmdn7L2M6GLQd59PkbGeRfN3RXq3LZsHgph/V9Cetv5YtXv2RrybG7YftvB9mdXYVhzq0k+2lbfc+20grKbGA/sodNhQpgxw5UH97PrhINqFZ0Oi1eccOZMDgMb5di1n/0Kym1fgyZcQX9AusTI6oNU1UNfp11OIrz2PTzEooarrEydGPW1BY+S4eZWjOASsXOTDJMw0lqxaT1xjN6NGjQAFby1i/ky0MtLIRSS9hTrgIalGZO0Qf1YsqfQnH3cEM5uJ7PF6Rj6T6amZd1xVCQwjdfb6EseAgzpsfhYa6hyhZAp5KUUweLgbip13HVmuf4PHUJ/zcnlsjHBpCVuQ8Lenp0i2bMrJeYcMJ19YW2d5fh2u9K/vWvYSdsWGIIHsgtjz9Gsi4Stz+eY8XyPFRzNUUFhXXJBHs+qdsLsCruREV4U1ZQeOzashpb46Vw4qyQpI4QHUXEpXVJHbsZ8pZDVAvV0kSHpFYVoJbWzaPVRwxzcjRCCCGEk+k6kzwpme/W/05uWTpfP/gA6wcNYdSI/gwa1oe4zg2HvgZ6TLuHZ4YfZNnrn7Ik147fqOu574oItBotnbqfWblky86fef+jbRTaFPQRw/jLw7O4on8gSuEufn37Hd75PhdLk2tq0xfx1v+tJdeiofOY2Tz96CRivWwUrPmYxx5eREbaj7z7RR963tO3rgCwVodOA1jz+OmdAsKnPcgH0/sSZD/Aivff5vUf91K7byW/rJjCkGlBaFt5z7qg/vz5taFEdA3ES6ehduU73Pz0esKuvp/nr49C57BSWXCIQm0ECd280FavZO/Hv4Jagz4qmemT/U+oI2M7MoGH51yCh5crevtOPr/vXZbVGDE2MzMGwF5ZREFR3Roma952UnZbSGpuRk8jDmw2e92OWWhQjhWhsZLx8zwyTvWhtdC8S98J3NYXwETK//2BRdXTZcg4ZlzfC3VTKb/M20KFb1eSr5lSXyi5hhVPf4YDB1ar5eRLx3x6c8M/ZpBx38ds+PVz3ulpI3BnJao+lPheoRjUUnb9uph53+wh8t4HmdWnDbvYRsSTgIX0GhMqdg4ueIVZC5qeZWbZs/exrJnrtSYTtSA73J4lZ5TUqTpyGFutmbWvvdxe8QhxzjhUBw7VgUarcELB/YtUXFcXfH1qseUsZcvCndjVDnLjFyFH/f/qpftz2qU964E19Y806MKGtEubQgghxIVLS+Dom3joPgv/fXclWeUV7FvzK/vW/MonLgH0SB7OhGkTuCwpCAM6OvccQOdaIzveBdCg9Ytg4IhB7bDkxEz60pWkV6mg+DL85llM6x9Yl+gIiOOKe2dyYOczzMuiQfFbE2lLVrCzSgVDdybeOI5YLwAdgUMmMTHpd/asrGHf72vYOqsvI7wBjabuelsJpu53cM+fh9YXte3BhNsuZ/OKN1lWaiIjMwcrQWhbec+2/at544HFHLY1vquMj/7F1I+OPnPjkqffp283sFdUUaOqoNayZ1c2psn+jXedAnRBMQwIqn9SfQCdBdAY0Bub/7nWvDuLDFP9fBFLHhvXZ3JTYq9TfDYOLGYzDhR02oZbhLsy5M6Huf6ErcHrqQdY/Mx7/Jx/0sax7F/Jdz/lYHOJYcSI7hiAY9V+GmZu1ErKysyo2KmsqG4066W5u3WJm8hfZu9k76vrWTXnfVxMVrTB8ST0MIJaRPaKpaxIK2HLB0sY9tJkuhlPHmdTNs8IxkzthoebAa29jN1/rCEt3wr6QPpdNoRoz6NROTDlbGWbuTsDwh1UuOupsdHqHcJE25xRt+pcXFBtNjzDurRXPEKcM9bKCmqKi3EP7IzW2DFWeRarfviyHZ3iIDzaQLEpxNkhidOlOig/sB+9W5s2lm+Ww+HAmrsOAG1APIqrzxm3KYQQQlzwFG96XfN35gyfwKola1m7dgubUw9TUVvIzt+/Y/eKVay99T4empWAr3Lq5k6L7TAZu/OxAoprD/ol+TWeueIVR9LAQBZkHeRYPV3rYfbsLqi7xiucLmE2aqqPZlXcCYsIRMt+rMXZ7NlnYUTDBIXiSq8h/QlqMErUenUhMkwLpVaqK6uxQOuTVa5+xAweSpyXKy5asBdlsGzdYbwShjA42g2NaqWmopoQj7oOtBeWUWwFsFO0bQe7TINOvlTKbMaCCooBY7NJHRM7t+ygyKbgEuSPZ1EB+/5Yz/abejGwabaoEZWK8gpUNHi4u6FRbdhsDsCBpbqM4uIWhtFqFbV2FbBhtTZ/iiVvPR88+zmrChSCr7yCy+Lr+7+mhkoHOMxmzEezN0pnJr/yNZMOb+WnZXv5eUEWOSkF2FAwGptLLBmInnIDN23O4n/LiqhBT3hyf3q7A4Qy/k9Xsnzzx2za9ANzf03i0SvbstzeQJ/r7iauKIuNy1bz6w/b2FFoRUXBI2EUN9x1Hf06aQEzB5Z+xks/H+Kgw4OhM/7GIyODZInQWXRGfevi44tqsxM1enR7xSPEOVOckUHN2jUE9+uPe2DHqR9iyy5CV3uIzp0q8eouf3cvVKrNxvbP9uMRGHDmbRXvgZq69c+6LrL0SgghhGjIJTiecTPjGTfzFipzd7Fh6R/8MG8ZOwoL2fj+e3wV9xx3DD5LtQptZZTWLx3SePvi59V0MZKewM6BaGmQ1LGXUVxfcEYtWsq/xy9toe1iistsNForpHjg5+feOHGkNeDiqgWsYLfTZNJNy8p2s3qPG0mjB+LuZkSv0+HIKGHFunzcgiKJi/fAYqrFVFVJ2dpP+VJ7DZeWHeLQ0QLVuVvZmHodSYNb/gWW3WzF6gA0egwuzRSxqd7NhvVHsCoG+kybTvji91mQu5bfVl5J/4mBLW4RDrUUF5ZiR4efnzeKWk2NyQHUsuWTV9lyqnvXVVNd3XTbKhtHVn/Jyy98z5YjdnRdL+HW2UMJrE8IWrXedB/Uj7LDG/jgsSKiInoy7sZLSfABXUAg9q2v8MbKSlRA8ehOv8TQ5ld56SMYP2UY3676gRwreHl6HLtPQ/dLuPbKP0j9bB+r5v7IxuF/Jqi5NhpGXZDJ+s1ZHNh/gD27dpGWmkOhSUXR+9BtSB/MW9PI2TqfJx+w8NAjwyj/4TM+/HYHBTYDwQm+lKems39oEN2a2bRMtA9JmAnRwdg69Ud36BBaazHaqhzsHhHODkk4ma1+lg46I7qQfs4NRgghhDhvafEM78UlN/dicGIAj9z7FanVB1mzLoNbBvdrl919HE2Lpjjs2Kz10za02maTEDpt06MOcNRdo3h3I3lsN3ybXZmkI8q76bVaTmgOTfNrfU5FKWDDB+/xW9mJpXJzl3zOy0savGvoeJ641YWsj/dSo2rxC/CirPAQq5Zu4/rBw/Bt4S0ctVYsKihaHXoDoBaRkWEjOi4IHXZK1q1kRY4VxRjHgOSRxJuX8NMHe1n17VKmjr6Oni3NAjIfIi+vFlVxIyi0MwYq6TJsKrcOcsPN1YBOB+Agf/W3fLmyBP+R07l+mB8KDuxmC6aqany8m07f0hE09Apm32VH+0Uuff4+i9HBxzvbM/lGnk02k/LmA9z/yUqyh8Yw/ehsIl0wyRPHk2IspVNYJL2SkxnRu4Vkly2X3xasIs8KYGXXN1/y/YhHuS7OCHjQd+plDF78Niv3/8GX343k7lMswdJ5uWLevoTPF2RTrSq4h/ZgzKghDIlTSPv6G34ya3H30FK5/UeemPkTNosVFS2Bk+7ijcdHEnC2ZrGJYySpI0QHY/OOx5G/BI29Fl1piiR1OjiH3Yo1bwMAuuABaHRtXFwthBBCXLTs1JYWUqENILDJDBmP+AEMjPmW1BQzJUVlrV6SpKkv5Kha7dhPSOCYqKlukgBRXHHzqNs1ylFVRZWVJtVmVcorKhrvMKRxx8Or7hp0EYy9505GOWPTU2MgMYMSKChzo3OoL14eHni4u+Lq5oLeWkFlWQHrfl7N4direfSuMfQ27uHjjflY9cGMumUE2W98xfbff+W3awYyI6b5aR6qtX6mjosePUVsfPsVXs4ezn9fmkioPYdfv1tPoU3Ba9hQhke5EXTpWPrP38u6nb/wxU/D+PdVXZodENuL9pG5zw7GKGJiXEHnydDrr2NoxVbm/t9OfC8dz5hEb9IP/MTXKHhE9mHC1Dgq1i1ho2EEV/bv1PwsIMWHHhNu5plBOezef5CMPa646BpmzFRMGgMaNLh3csWae4Bj1RO7juaWLmaqKjUExvu3UIvZwv5FXzJ3VQkOnzgGd8tn0+btzHv/dwY/P4koPejCk7li4hoslsFcdWkXtMtP8Tm6hDP2vnvRRuzAFt2LxK42Ur//jrkvrCWr2p3Yy69lmGkZny05iEX1ove4WKpWbCJn80Y2HRrGxDBJOZxt0sNCdDSKDqtXPIbSreiq9mB22EHT8uRTcXGzH04FmwkAfRcpkCyEEEIAWHb9yNNPfsvG/SZ6/vUFnr8pqvEgWq3FVKMCCi6uLq0cVGkwGI1oAEd5KUVVdnA9/jOYZe9e9hTboWE6QB9ESKgRZZcVtTqHvdlmxiY2+AWMrYjM3QcbL4kyhtAlwh1lRxlqZS7791mgV4PoK7LZlOFCr6TQs7sbkbEH1zw2neJbXmOzcTAD3cvJy8wnPMaFHz9chsvECYQ4rGSkZZCnm0r02i9Yvt+KPnIgyZeNIGrTYrb/kcaCT1aS/OTY+sLNTVjqZupotCZ2vfsKv3yVTrmnB5sPXQIp37FgWzWqPpxLpiYTpgOihjNt0i9s/iKHdZ9+xS8D/sblkU0TRnaKtuxgp0nFENeDuJCjb2wj59fFfLNgI6U//Mayux7hmgZXmTbP46l/zSOdpey5/27umBDRYqJPPbiWOX/9kp1Nty1roGDR6/x5UTMveIzg0e/vZ7z3iS9VbP2W/85ZSz6+DL7lNv41MJ2n7/yQ9WsX8MWS/jw0MQgtHgy852kG1t/T3pZDOMZSq8cvVE/K8rl89fhWsovtaP17cOVt4wjf9T0fLT1IXQkhA1HjZ5Jg2MdzP63l4zd60v3JiXSTba/OKpkMJUQHpHr2AECjmtFV7XdyNMKZrDkr6x4YfVH845wbjBBCCHGeMHQJJ0hTRa1aS8o3X/F9WvnxmjWYyPl9CSv2WUFxJz4+si7hozm6dMlBTXEp5SesOtISHNwZgwJqzU5WL82l9uhLNftY/NnvZNrqhmfHlmEpXvQe0BMPBbDksGzB6vplNQB2CtYuZNFGU5P3cafv4ET8dIBlH8sXb6P4WCyVbJ/3Pk/e8yB//c8ycltdIKcFp7hn28F97DlYwt5tOZQUZbNi6UYy9WF0d7dzIFNH/MhgtJXb+X3Rb8ybu5p81ZP+k0fR2yOEUdNG0dXg4PDSr3h/Uc4J27YDqCYztQ6w56/myy/SKffszuR/zmScfQXvv7eGfJuWgFFTmDrIq/4KL/pfO5XRIVrsh9fx4WuL2FXdpFHbYdYsT6VC1RM1uC+x9Tk0y76lfPTZFkoVXwbd9hCPXh/VaDaOa89hTLmkK+6Vmfz4zAu8MH8PVS10m+Lemd7jxzHluilcN3Naoz9XDglCj4J3r+FMv+5Krjr25wqmThvL2CFheJ+Q4LJTum0BLzw1n+0VWsIvncVfr47Go9slXDelKwa1gD8+/YENpU3r/JyavTSFzx56iHv+MYf3v9lAtiWIwTfcxtOPj8Ww/DPe/iUP96TJXDnQBWyVFBXpGTn7esaGKeQv/5j/PLeYnWVtf1/RejJTR4gOyOYRgUPrgsZei7YiA5tntLNDEk6gVh7BXpAGgD4yGY0ieX4hhBACAPcEJt80lNXPrOLQ4XW8dVcWS/v3oIu3htoje0lJPUSFTcG913imjAmpG1TpA+gc6oKyu5KaNfN58fkCevo6cEu4jKuTA9GipVNSP/p3Ws+KojI2zHma+7f3I7aTncMpm9nhMZSJ/Zbxw2YrNvvRQbCO0LETmfh9KvN213Lo13d4sGgHyQmdoHAPa1eV03NcAnkLU7HY7PWJJy1+o67gqsXbeGddGfsWvMWT1v2MjvegctdqFi7aRY2mM1GJsQSf6WjwpPfcibwNKewyK3gNG8PV/bey6uccSkwBjO5pZPnmTCxTB9E9agfWXz5mXqEV115TuP7ySHSA58DLuW78ep5ddITlr88h0P9+bk0ObDCArSRjy04O2gEUtJ0TmfXYXdzQ4zCfP/wpyw/Z0QYO4aZbR9FwBZA2eAQ3/XkLqc+tIn/dF7z4qg//fnA0XeqTN5Vbl7B4QyW49mTkyBgMgCV3DW8/9Qkr8hXCL5vF3TfF46uYG/eFawSX3P8wXj7/4/lPtrP81Zew2R/gnzNiTtyWPWoMdzwxppkOtZL1SSa/rivGq/dYbvtba2o1VZD50zzmvPkTKUUQMPQG/vm3MYTrAdxImDKBoT++xTaDiZJCO/i2bYa+1rcvs564A+vra7H1GsSI/r4cWr6Idx9Zz94aF7pedhv//Ntg9j23hB9RsdqsKGEjufORfAr/NY9tP7/LQ/t2MuNP07l8ZBQnlBoSZ0ySOkJ0RBoFm3sM+oo0tFVZzo5GOIk1u75CoUaLPqq5HyyEEEKIjkpH2KS/8LjdnXfeX0bq4UJ2ry5kd/2rit6HmHGT+PNdUxngc/RgAMOnX86SbfNIKSlg84L5bMaF/veO5Krk+lZDR3HL3ZkcfvV3MssLSVvyK2koeMWN468PTMX23h+Ag9oa8/ElVT6J3PzE7Zhf+IxF24s5uGkpX28CxSOcUbffzc0eC1n9E9TaLZjNgBvg0o2rHr0P26sf8OXyXLZ/P5ft3wMo6P27cdnsW7l9UuiZDwZPds+J+Sz5ZQc1eDE4OZEQ4070ikpphZa4fv3o7xlMaPRAJiXs4J0fzWg69eOmv02mz9EMiBLIqNnXsSHlTX7L2828x5+n6t47+MsVMXgpgGrDYXTHS1GojBzOnU/+hUkBWcx94g0+3VwO+hAuuXsWk6KaLq/S0WXiTdy+fT/PLcxl76K3eUJVefyhsUSZd/Lt+7+RbdHSadwYxsQqlG9bwEtPf8GaXBudhlzP32Z2xXyoiMrOrpjNtsb1jHQBDLztPv5pf4VnP01n9Xtf0CfpUa7qqgNsHNy2if0mNzw8jOiaLT7toLDUggMVW3k+mWm7m63N47BZqKmowtB1IL3YwbLF69lZAp0GXMU/H59KQoOlWdqQYVz7WCduSRxAZH1tpcr0lSzJtOHra6Awowg7GnQ6bYv1sFWXUAaPi2fbumW8+nEKOWUONP6xTL7nZm6eHEcnyw5W5VlBccPH1xsdWnyTruGxfyu8/Mw8NuxeybsPrePbmCQunz2LG0cFt1ATSJwOSeoI0UHZPSLRV6Sh2CrRWCpwGLxOfZG4aDgsNVgPrAZAFzYQxdXnFFcIIYQQHY0HcVfezmuXTCNj+x72Hymnxq7F1duPsNhYeoR7njCY8k66juc+SGDD1gNUqAY8/UOI7tkweWIgauJfeSNxHFtT91NYBa6dI0jo34NgN6h95G2GPAganVuj2R2u3cZw31v9mZKSzu68MsxabyL69KVvF3cwh/H50Nk40OHWYDCv69yPG1+IY/yuXaRnF1BhUXDrFExMnzgifRtH7tL/Wt74aRp2NBjcmhRA0YUy+T/vME6ti6vpTlTN33Mwlamr2FVpRB88iDHD/NEVJXHDPd3w6BZGXNJfuG3pr3z14n/4Y3cF+MYz49G7uLqXe5O3HsFf/pFNzmOLyKjOYcsfm9k1uCuDOmtB8aXvrNv5q30ZjJvGIMtKXrn3I37JrEJVvOl7813cMT6k+QGvLogxf72DvMMvs0gZxQ0z+tPFaKdo0zZ2V+jQuEYz8ephBCta6DOWm28rQ7PCjSn3TyOh4Dse+NNctps0gB0VPS4uxuN1TRR/Bv3lXh5Qv2B73Ayu7Ho0AgtZi97iyR/LOHE/sBMd/ukt7v7pJCco3lz2TF/6XjKU21+LJmnxdpTkMST6NU0DuROXPKDREVevSja+/h7rqtRjbcXGhDXTV3aKVn/Ew48sItNUv6OaezD9po8jwZ7Grk2/Mzd3HbacFJbusaL4JtC399HPUIv/oBk88b8wPn/tY77ZaKfbqEu5fJgkdNqbJHWE6KBUt/Bjj7U1udgMPZ0YjTjXrDkrwF63Ot0QPd7J0QghhBDnMbdAYgcHEtva08N6MTqs10nPcQmOZWjwiS26ePm2vNxG503kgKFEDmhy3OiBb4ubV7oSGNePwFOVzdO74+3b0hZZOlx8ThIXLdzz0Jt4dd4ksvZb6OIDBp+hXNPt6IuV2Mty2bO/CpeoZGY9NJur+zW3Y5QW/+TreeCeauYeHsStswcT2vBelc6Mmn1d/ZOR/OkRHb7vzCcl4kb++acEfE+21MenFzc89Sxj9SGE1v9u0z/5Bp5PGs+O7WWE9qnfMlzxotuEW3h6Qv11vqO4bOhCti+tQO8bRkyfgUwf26SQti6I5Lv/TnKjN9TRqccIpnm74OVuQDmdbeLrOexmqstNdParH87rO9N/8rhWX68LimfQ8DhMJW74BgbTtd8wLpvQXFJHi3/yddx7ywH+84uGfuOSGTdhGIlhbtSsKea2B35ifX2NJ8U7mgl3Xc3Y4MafomvUMG59pQfJ28sI6Rsty6/OAknqCNFBqUZfVJ0biq0GpSYXfCSp01E4VDuWrN8BUPxiUHwjnRyREEIIIS5K+k50i2nuBU/irr6TJ4IGUxM3mN7+JxuWuhEz7V6ePOWbGQjoOZrbXhiEyeiGayuSB1q/EEKbHjQG0CspoOWLlABG3vcscfd4ERzk1YZZJwYSrp5NQqvPP4v0UUx96jmmtupkd3rN+hefztJjaNCnbgnDmTHTjSKjJ52Cw+jRP4HYgBayizo/4vr5tUPgojmS1BGiA1NdQlGq9qCYjjg7FHEO2Q5thdoSAAzRlzo5GiGEEEJ0TG50G5586tPaytXt7G7VDrgGhhFxlt/jvKLoT0xeecVzxe3xzohGNCGTn4TowFSjPwCKtcTJkYhzyZr1a90DV3+0wYnODUYIIYQQQghx2iSpI0QH5jDUlbpT7Cawm09xtrgY2IuzUUuzATB0u0S2MRdCCCGEEOICJj/NnzM2shd+xKs/7Md6XrYnOiLV0OnYY62l1ImRiHPFklm/jYLOiD5ihHODEUIIIYQQQpwRSeqcM2bydm8nu6i2VVvYnfv2REekGo5vY62xVjgxEnEuqGU52I9sA0AfNRaN/myvOBdCCCGEEEKcTR2iULJafICULAvBid0IthWQsmoz27KKqHIY8e/SjQHJfYnppG10/rYsK2H9o/Et2s0fy1LJKrQSNHQSU5N8j2fCTAWkrU0lNTuf0hoVg6cf4XG9GDIwAt9jPWunICOdvUVl7MgxYbbnsmWdCQUNer8IEru3c3vRkL11PxXeUSR292k+a2cvZU/9Ob39KkhrQ980VHNwJ2vW7CTrUBUOVx/C4nozbGhX/DrEt+oioTQoeabWOi8OcU6Yd/1Q90BnRB9zmXODEUIIIYQQQpyxDjH8tu5fyzsvHmHSs+Op+fQTfjdHkRgbgJemhgMr5/HDDxu54cFZXBHrVn/+Gt5+voTpLwxkz/++53BkL7oHuqFv0GZ15krefe0r/qgIZfCAaIK9tViKMln06gK+iJ7AX/82lcFBWsDGgVWL+GxzBWWHLdQUL+Xz/XpAwWvwDHp198XYnu1FB5Pz+ye8kT+Gl168ku7N7LFn3vUHb/x7DZH/eJy4yrb1TR07R1Z/w0tzNuHo2Yf4UC+0NYWs+/gVvl8+hQf/No4enmfr0xTtydEgqaOxy0K+i5ladqDRLB3F6OHkiIQQQgghhBBnqkMkdQCwl7Lty0Xo+9/GK5Oj8T46+cReTurcd3j17d+IfmYK8UdzF2o16Qs34z3zfp4a5Nuoo9SSFD556VO2Bk/nuWcupafv8fkw5gMb+eCF9/nvG948+8Q4og1GBsx+hAE3ZfDRff9l84CbefXPPTCexfYGjuiH/3ObWL3zUrr3bfgKgIm01ZvJ6dyPmUneaDPa3je23DV8+OE+ev39MW5KatA3Fdl898o7vLsgkmdnxuDS9k9JnGuKFgcKGlRQJalzMTOnz697oDOij5ng3GCEEEKcVyxVlQAU783GXF3l5GiEaLvKw4dRtFrcAwOdHYoQbVZ+IA8AW20t4N3m6ztOUseWyy5u4uUrGyQtALTe9LlqMqM3fsTSbeOIH+Zed9ycRbr2Vl5tktABOznLfmNJaW9mPz6+UQIGwNhlIDfOymTb40tZkppMdNKpala0d3vg1W8QyeGrWb1qJ1f3TaTRpJnyHaxZU0zkuEH09gBHm/vGyp4/VnJ4yDTuS2rSN17RXH59Mmtf2EjaVTEkNZzcI85b5rApoNFhd5H/BC9W9sJd2AvSANBHj0cxylQ6IYQQx1mqawAozc6mNDvbydEIcfpKsi1sLlsAACAASURBVLKcHYIQp81mOb3diDtOUgcXeg3sS0hzd+wWRWIfIx9mHsQyrHv9QT2xvXrg0/RcezE7UjLR9JnF4JDma814JfQmMXA56TtysSR1p5kVUGevPQDXaIaPjGLhj1vYfF0fRvsfTRSpFG3cwsaqbkxPjsIA1H1tWt83Blshu3dXETc5muZyNobIbsQZfyA7z0ZS9w709bqA2bzjnB2COIscDhVz2ry6J3oPDDETnRuQEEKI8467nx8AQf370Skq2snRCNF2e37+Cb2LG5GjRzs7FCHaLD89neJdOzF4nF55hI4z6lY6ERzs3sJ2Xzo6B3WiZHcZNkALoPPF37/p0iXAVsSRwxA0NBDP5nMwoA8gOASWFpRihZMnYdq7vfr7iUweRN/5C1izvpiRlwfU3betiHVr0lD7z2BoRIM3a0PfGOylFOXXsmvRR7ywtLnzLRwuLyeuXPbkEuJ8YDu4GbV8PwCGuMlo9LIwUgghRGMaXd2QQG90xeApsznFhUejUdBotfL9FRcknaFuhK8oLSUETnF9ewZzXtMYMBg0LbyoYDToUa3240kddOh1zZyvWrGawWjQ0VJrde8FNqsN26niau/26umC+zF84CLmrN7KgQmXEqkDa84W1qS4MfjvfQlq+H1pQ9+g2rGpLgR2CSPKs/lroqLjCPdvPkUkhDh3HDbzsVk6GrcA9JGjnByREEIIIYQQoj11nKSOw4Sp1tHCi3aqTLUY3Iyn7hCtC64eUFVTS4tzUew1mGrAzdvYaMesc9LesXZ9SBrRH9/nNrE2eyyRsQ6y1mwmM6A/M/p7NT63LX2jdcHV3Y0ugy/lmoRWRyOEcAJL5k9QWwyAsde1aLQd5598IYQQQgghOoKOM51CLeVgbmkLM11qycspICSs86mXNmmDCOtiJH//IQpamjZjOkTOAYjoEnTu22vAI3Egw8PyWLsmG3PNHtasPkjkyIH0dG9yYlv6RhtAUOcS8vKqWk5CCSGcTq0qxLrnZwC0AfFoQxKdHJEQQgghhBCivXWcpA4Wdqzdwn7Lia+o+WmsSe1EYt/OrZip40niwD54pq1neUZtMyfYyV25gU3mWAb1Dz7engY0GrCrTVIh7d1eQ8Yokkd15ci6bWzbsoX1JTGMGhHRTGKoDX2j9aJnQhd2rd1C7glZIDtHVv7IJ79kU25vOSwhxNnlcDgwp30Bqg00CsY+N6DRtLjAUwghhBBCCHGB6jhJHSWQSOta3v1wI/sqjx+25O/k27e+J2fAeMZGtWZpgoL/iAnMSCzhuze+5OeMygYzVmrYv3I+b362m9BpV3BJ14aFa9zx9IDS3CMU2s5mew3VF0yu2MrcL7Zh6jeYIaHNFF9qU99oCR0xmqFHFvPuF9s5ciwRZObIxoW8+c6vpJeA/vRqPAkh2oH94BbsR1IA0EdfguIZ4uSIhBBCCCGEEGdDxymwoHGn73WT0S/8nAdu+5GuXf1xs1VyILsU3xHTuW9WX3xbm4gwdOHy++9E8+6XfHzvQ3wbG0mIJ1QdPkBGsTdDr7mdW6/pQaPa64Zgkkb1ZuH/zefJ+1MI87BR7Z/Mg3cPJaC922u4sVVgIiMGLuSFJTom3NC70Wun2zdKp0Rm3l/KO/97h7uWBNEjwg1bySEy96rETr+Fe65qfrtzIcTZ57DUUJv6ed0TFz8McdOcG5AQQgghhBDirOk4SR0c4B7HtU/8iyE7dpORV4Xd6MGUv8TSs6tXowLExoTJvPyZHb17y4WAFe8YrnjgUUZck0V6Zj6ltWD0mcTdPWOI6tTcdVq6TPwzz0eksX1vJTaDG36RMXhrz057x0/T4+PjjjGyJyP7tbTFX+v75iiP2DH847+JTN6+h71HqrAZR3BD9x7ER3p2pC+VEOcd846vwVIOgEviTDQ6o5MjEkIIIYQQQpwtHW/8rfMkom8SEX1Pco7BDe9WVSTW4h0Ry9CI2Fa+uZGgngMI6nmu2gNz5nK+/qWKQX8eRfypps+0pm8avb0v3ZIG0q2Vpwshzi5bfhq2nJUA6MKHoAvq7eSIhBBCCCGEEGdTx6mp0wFZ87fz5bs/c7DPFcwYE9gBM3hCdByqpZraLR/WPTF4YUi4zrkBCSGEEEIIIc46GedfhGo3zOOxT3dQnJ+PI/Yy7rl9BJFt2QtdCHFBcTgcmLd9DOYyAFz63YJibGm5pRBCCCGEEOJi0SGSOvoug/jT/fH4BXeMLZkMMUO58aYYrB7BxMYF4XWS2+5ofSPExciWswb7oc0A6CNHoQtu7RpKIYQQQgghxIWsQyR1lIAoBgU4O4pzR+kURt/BYa07t4P1jRAXG72jAvP2xQBo3DtjSLjWyREJIYQQHY2N7IWf8YM6mrsnRza7yYhznK9xCSHak9TUEUKIC5RWqxLAJrBbQdHhmnSH7HYlhBBCnHNm8nZvJ7uoFtXZoTRyvsYlhGhPHWKmjhBCXHQc0C2qHD21ABgSbkDxjXByUEIIIUT7qD24izVrd5J1pBKz4kZAeFcGJCcS06lJyQBTAWlrU0nNzqe0RsXg6Ud4XC+GDIzAt8lIRy0+QEq2lbB+0fhX5bB2+VZ25pZj0XkSEtuXkcnR+J1Qh9JOScYWVm3IJq/UiuLWici+AxiRFIQ7dgoy0tlbVMaOHBNmey5b1plQ0KD3iyCxuy8UH2BblpWw/tH4Fu3mj2WpZBVaCRo6ialJda+n7KnCt0cPonya/L7dXkF26l5K3bvQN7ZTo4Hbyfvn1HEde6c29t/J7kVmCwjhHNq/3HvLk6d7cd6WLVhragjoeZI9tYU4T5mKi6nIzcWve3cM7u7ODkeINtEXrcHbkQ3UbV9uiJ+GRqNxclRCCCEuRLXl5RzcvBnv8C64+fs7ORo7R9Z8w9NPfsWmGl9Cg31xV0tJX7KQub8fxiehDzG+dYmd6syVzHnqTT7YUIlngD9+3gbsxftYNX8+32+zEJIQS5jH8VSDZddinnp2J36D4fcXP2ddjQ9Bfq7YC3ez5KtFrMgPoN+gcLyOXaJStOYrnnxqMZn6zkSEeKKt2MuyL38mRYlhULwHWd9/wie/7GDPwQoqSgrYtzuT1NQMsh0RjOgbgLprMU89m4bvAA2/vTiPHdoAgv1c8QiIonuoK9ZdP/OfZ1bBwGH0CWySsLLu54dnX2duUVcmDQ2pXz7Vmv6xs+sUcelOu/9avhdn/hRSuDMdrd6AX/fuToxCiNNTdfgw1flHiByWjN7Vpc3Xn9FMHYfdDg4HtlrzmTQjhFPYrVYAbGaLfIfFBUVfmYFL0UoALA4v3PvOkoSOEEKIi4Itbw0fzlmBZuI9vDwznvr8DbapvXn9oXeY+20ig/8+CO/yFD556VO2Bk/nuWcupafv8eSD+cBGPnjhff77hjfPPjGO6Iazb+wFrP10NaHX/IPnhvjVD4bMTFjwFo++t5CfRvXltiTX+jc9zKqFqynpfz2vPDycIC2AnYk93uXBz5exaexsRs5+hAE3ZfDRff9l84CbefXPPWi4ENoMoFaTvnAz3jPv56lBvmc0AGtt/ww4RVxqyWn2XzveixCifZzR38PqggJsZjM7vpzbXvEIcc7t+/03Z4cgRKt5uFtIiCsBBSxWDZlHQhksdXSEEEJcFGzsXbGSDYbBPDz9eMICQBfUjytnTiPU5InVYSdn2W8sKe3N7MfHN0pIABi7DOTGWZlse3wpS1KTiT6apAGw7CfX727+fiyhA2Ck65ghDPj6PXbtOoQlKRoDgL2EggIHnXuGcHzVl5bgEdfybLwGP89W3pY5i3Ttrbx6xkmQ1vbPqdo5g/5rt3sRQrSXM/q76B8TQ21lJT5h4e0VjxDnTG1VBTVFRXgFh6Aztn2amxDnms5RQYBtOVocOFA4UBqDT3QvZ4clhBBCtA9bCbt3HcAlfjw9vZq+qKfbmMvpBmAvYGFKJpo+sxgcoj2xHcAroTeJgctJ35GLJak7xyabKJ707N2dE5p3DSQ0SCGlrOJ4UWGNL/4BsGzHLrIqook/epGbL+Fd2nJjemJ79cCnLZc0p7X9cyr2Ynacbv+1170IIdrNGSV1+t5wfXvFIYQQ4iRUUyk1y58BW91SQdek2+kbluTkqIQQQoh2ZC+iKB8Co3046RxUWxFHDkPQ0EA8m89JgD6A4BBYWlCKFRokdbzx9T2hGjIoRgxGsFptx5M6hhBGXTWWdS99z+P37CBpSB8S+/ViQJ9wOjXTRIt0vvj7t8Os2tb2z6mcSf+1170IIdqNzJoTQojznFpbgWnNy1BbDIChz0x0ktARQghxsVFtmM0qer3u5EV3VStWMxgNJzlPY8BgAJvVhq3RCwralrZpOqExBb+kq/n3yz1YsWIbW7cu570F3/BeaB8m3TyD64YHtTK5okOva4fad63tn1O2cyb91073IoRoN5LUEUKI85hqKse0+kUcVYcA0MdNxdB1tJOjEkIIIc4CxYDRFUy1luOzZZqjdcHVA6pqals+z16DqQbcvI31u0adPvcuCUy8KYGJN9kp35fG71/OZ+5rH+Ma8A9m9DjD1jUawIGj2To4NmzWBnfY2v45lXPcf0KIs6ulPLUQQggnU02lmFY9fzyh030ShtgrnByVEEIIcZbo/AnsrFBwpIhq+4kvWyqrqbEB2iDCuhjJ33+IAtuJ5wFgOkTOAYjoEkRbVkqdnBbvqL5Mv/1yhuj2s3X7Yaxn2KJGr8OACZPpxKyOWllKYWmDtEtr++dUnNZ/QoizQZI6QghxHlIrDlGz4hkc1UcA0PeYjCF+umxdLoQQ4uKl9SGuV1dsaTvYXNR0Dkkl695+jBsf+Zm9dk8SB/bBM209yzNqm2nITu7KDWwyxzKof/BpL02w5Wzko1e+Z31Jk1hcjLjoQXN08ZKmbsKNXW37/BldgB+BmjIO5BY1WeZk58jGVNJNDQ61tn8snDwu7bnpPyHEuSFJHSGEOM/Yi3ZTs+IZMNXV0NHHT8MYN0USOkIIIS5yOqJGjmaEcTPzPljBnoqjx60cWbeI71dbiB+cQLhBwX/EBGYklvDdG1/yc0Zlg2VENexfOZ83P9tN6LQruKRrS5WAWxGNj57q9CV88+0OCo9lXMzkrNxESmVnesR1rl+a5I6nB5TmHmlwXuso/t3p00vLjl9+ZdUBc/1ROyVpS/hkgydD+jSs2tPa/jl6vKW4zk3/CSHODUm8CiHEecS6byXm7Z+CageNBmOfm9FHjXB2WEIIIcQ5oXROYvYDpcx57Wv+cdtSekT7o68+TOZuE+GTbuLWSWF1iRRDFy6//040737Jx/c+xLexkYR4QtXhA2QUezP0mtu59ZoeeJ5JMN59uHr2SF6dM4d7N0TQLdQde9khMvc76HntzUyOr8+eGIJJGtWbhf83nyfvTyHMw0a1fzIP3j30xK3Tm9KFcMlNU9nxwnxe/XsGi2KDcDcXcaAqgmv+Ph3D/A2sPZ3+OUVcAeei/4QQ54Rmy96VzZblEkIIce44bBbMqZ9jO7Cq7oDOiEvSneiCejs3MCGEEBe90pwDbHj7bcKHDsMvNtbZ4dSpKSZjexb7CqtRXTwJjo6lV1evZor22inPySI9M5/SWjD6+BPdM4aoTs2U97XUUF5tR+/uidsJhWLs1FZUY9a44u3Z+FpraR47d+RwsMyC4upNWGws8eHuTZY8mDmSnsb2vZXYDG74RcaQGNsJw0nf8zi14jA7UveSV2ZF7xNCXN/uhHmCubKCWk6MqfX900Jc7d5/zrXzm3no3dyJmTTJ2aEI0WaHt24lPzWFkQ/+E1df7zZfL0kdIYRwMrU8D9Pmd3FU5AKgcQvEdfBfUbzDnRyZEEKIjuC8TOoI0QaS1BEXsjNN6sjyKyGEcBKHaseS9QvWXQvqllsB2qBEXAbMRqN3c3J0QgghhBBCiPOdJHWEEMIJ7EWZ1G6fi6P8QN0BRY+h51Xoo8dJQWQhhBBCCCFEq0hSRwghziG1qhDLzvnYDm48dkzx7YpL/1tRPIOcGJkQQgghhBDiQiNJHSGEOAfU8jwsmT9hO7gBHPWlzPRuGHpMQd91LBpFOXkDQgghhBBCCNGEJHWEEOIscVhrseVtxJq7GrV4z/EXNBr0UWPRx01BMbg7L0AhhBBCCCHEBU2SOkII0U4cNjNqxUHsRbuxF6RjL84E1Xb8BEWPPnIk+m4TUNz9nBeoEEIIIYQQ4qIgSR0hhDgFh6riqM7HXp6Ho7YYh6UGrCYcVhMOW90ftaoQTEXNXq/xCEYXMQx9l+EoLl7nOHohhBBCCCHExUqSOkII0YTD4cBRdQTbkRRsh1NRS/eCam1DCxoUn0i0gfHogvuj+EbKjlZCCCGEEEKIdidJHSGEqOewmbEeWId13zIcFbktnKUBvRsavRvoXNDoXdHoXFFcfdF4hqD1CkHjEym1coQQQlwwaivKASjZs4fqwkInRyNE29lqa1HtNg6sXu3sUIRoM1Nx3Wx/a00Nrr7ebb5ekjpCiA5PtVRjzVyMdd8ysNU2ek3xiULbuRda70gU73A07n5oNLJTlRBCiIuHzVT3f191YQHVhQVOjkaI06PabJTsyXR2GEKcNrutLSsDjtNs2bvS0c6xCCHEBcFhM2PJ/g1r5s9gMx07rvEMRR81Bl1ofxSXtmfLhRBCiAuJqqo47Pa6pcLyiwtxAXKodgA0itbJkQjRdg6HHRyg0WpRlLb/GywzdYQQHZItPx1zyic4ao5PM9cG9cUQcxmKX4zUwBFCCNFhKIoCpzGQEOK8oZXvr7iQndn3V5I6QogOxWGtwZz6BbbcNceOKf6xGOOvRusX7cTIhBBCCCGEEKJtJKkjhOgw7CX7MG16C47OztF7YuxzA7qwgTIzRwghhBBCCHHBkaSOEOKi53A4sO5diiXtK3DUrbnWhQ/F0Pt62aVKCCGEEEIIccGSpI4Q4qLmUG1YUudi3b+87oDWgLHPTPQRw5wbmBBCCCGEEEKcIUnqCCEuWg6ridoNc7AXpgOg8QjBdfBdKJ4hTo5MCCGEEEIIIc6cJHWEEBcl1VyJafVLOCpyAdAGxOMy6C40ejcnRyaEEEIIIYQQ7UOSOkKIi45aW45p9Ys4Kg8BoOsyHGPiTDSK/JMnhBBCCCGEuHjICEcIcVFRTWWYVr+Ao+oIAPqYCRh6XiO7WwkhhBBCCCEuOpLUEUJcNFRLNaY1Lx1P6MRegSFuqiR0hBBCCCGEEBclSeoIIS4KDpuZ2rWvHltype8xGWPcFCdHJYQQQgghhBBnj+LsAIQQ4kw5VBu1G+aglu4FQB89DkOPyU6OSgghhBBCCCHOLknqCCEueJbUL7AXpAGgCxuMIeFaWXIlhBBCCCGEuOhJUkcIcUGzZC/Duv8PoG7bcmO/P6PRyD9tQgghhBBCiIufjHyEEBcse8FOLGmfA6Bx74zLwLvQaKVUmBBCCCGEEKJjkKSOEOKCpNaUYtr4FjgcoHPFdch9aAxuzg5LCCGEEEIIIc4ZSeoIIS44DtVO7ab/A2sVAC5Jt6N4Bjk5KiGEEEIIIYQ4tySpI4S44Fh2fodakgWAPvYKdEG9nRyREEIIIYQQQpx7ktQRQlxQbPk7sO5ZDIDiF4uhxxQnRySEEEIIIYQQziFJHSHEBcNhqaF2ywd1T/SeuCTdjkaRf8aEEEIIIYQQHZOMhoQQFwxz6mdgLgPApd8tKK4+To5ICCGEEEIIIZxHkjpCiAuCLW8ztrz1AOi6JKMLSXRyREIIIYQQQgjhXJLUEUKc91RLNbUpn9Q9cfHD2Pt65wYkhBBCCCGEEOcBSeoIIc57lrSvj21f7tr/FjR6VydHJIQQQgghhBDOJ0kdIcR5zV60G9uBVQDowoehDezp5IiEEEIIIYQQ4vwgSR0hxHnLYbdSu61+2ZXeg/9n777Do6zyNo5/pyeTxoRQQgKh91BDR0ApCihFXcuigr23tbd11VXsvWBbUWTZFVxEyquggCAdKaFjgCQQID2kZ+r7R0KLibSESeD+XBdXJjPnOflNSGae3M8p1thr/FuQiIiIiIhIDaJQR0RqLNeuBfjyDwJg63g1RluwnysSERERERGpORTqiEiN5C06hHPH9wAYw1tijunn54pERERERERqFoU6IlIjObd+C+4SAAI6jcNgMPi5IhERERERkZpFoY6I1Dje7MSjiyM3uQCjo6mfKxIREREREal5FOqISI3i8/ko3vyf0k/MAVg7XOHfgkRERERERGoohToiUqN40rbgzdgBgKX1CIwBYX6uSEREREREpGZSqCMiNYbP58W5ZUbpJ9ZQrC2G+bcgERERERGRGkyhjojUGJ6U3/AeSgLA2nYUBrPNzxWJiIiIiIjUXAp1RKRG8Hm9lGybWfpJYASWpgP9W5CIiIiIiEgNp1BHRGoE9/7f8OUfAMDWdjQGk9nPFYmIiIiIiNRsCnVExO98Pi/O7bNKP7HXw9ykt38LEhERERERqQUU6oiI33kObMSXlwKArfVIDEaN0hERERERETkRhToi4lc+nw/n9u9LPwlwYG7Sz78FiYiIiIiI1BK6HC4ifuXN2IH3UCIA1tYjtJaOyCn4ff5PuEqKCGsU5e9SRETOK16vh0PJe3E0bUpU927+LkdEzmP660lE/Mr5+w+lNyx2LDEX+LcYkVpmz69L8Lrc/i5DROS8lXtgv0IdEfErhToi4jfevAN4UjcCYGl2IQazzc8VidQugWEOXM4S2gwf7u9SRETOK+4SJ9u+m0lIZKS/SxGR85xCHRHxG1fC/NIbBhOW5kP8W4xILWSyWfH5vIQ1jvF3KSIi5xVXUSEAFlugnysRkfOdFkoWEb/wOgtwJS8DwBzdG2NgHT9XJCIiIiIiUrso1BERv3An/wpeFwDWlkP9XI2IiIiIiEjto1BHRM46n8+La/ciAIyO5hjraOqIiIiIiIjIqVKoIyJnnTd9G76CVAAszS7yczUiIiIiIiK1k0IdETnrnGWjdLAEYY7u6d9iREREREREaimFOiJyVnmLc/EcXAeAJaY/BpPFzxWJiIiIiIjUTgp1ROSscu9bAT4fAJamA/xcjYiI1E5uDsavYdX6BJIzCnGfwpHOPYv58uMfWJNcUG3ViYiInC0KdUTkrPH5fLgSlwJlCySHNPJzRSIiUjt5OLj0a5667W+M/8sr/G/XScY6RQnMfPtfTP7sQx694XHe+OkgnnJNnMUlpxQSiYiI+JPZ3wWIyPnDl5OELy8FAHOTC/xcjYiIVJuiTJIS08guhkBHA2KahhNQpV/ASKDdjhGwdOvFBc1O4pTWm83aLz5jysocvBixWEvYMvllbp9c+rDP46Iw103LCU/wzF+aVmm1IiIi1UWhjoicNa7kZaU3jBYsjbVAsojIOSd3N/O/nMZ/Zq9jT7YLL4DRRGjTLgy56i9cN7Y9dY8ZJ+7e9ytffb2ZouAgAixGDEce8eF1OSnMdxJ9yU1c3sVa7gsZMJvNgBFraCh1Tjj2PI/NU9/n5SlbKbDVo3nzOhzt0UV2UjKp+RDaewLjxzSl/FcTERGpqRTqiMhZ4fN6ce1bDYC5UTcMFrufKxIROb95srewYPZ28mPiGDUw5syDjJI9zHrxJd5ZmIbHaCKsaVtaR1o4tCeBhN2/8b9Xd5GY+wQv3tiOw+8A3oKDbJw7jw3FlfRpbc2EkRU/ZDCAATAYDRU3OMydxuovP+bNz38jM6A5lz7xCPcOizryfJ3bv+WxO6eQamnC8HFDaKn1+0VEpBZRqCMiZ4U3ayc4cwEwN9IoHRERf8tfu4BPP/gF49hoLh0Yc4a9echYPIspS9LwGANpe/Xf+Me9vYi0APm7+e7Fibz7Uyob/jObxSNaM6KBCQBTRAfGPPoQlzuCsVtNRxZ79Gau4bN/zmanNYIgQwopGRHUDbEdsxikB6/3cGMv7pIicg9lkpZvJbp5/SNTvZwHN/Ld+58yeUEyBV4jQU3qULT8G15bfrgfH4V7NrAx34upfgh5q2cwaU3p/e6ifA4FdmbCnQOI0hmziIjUUHqLEpGzwp3yW+kNsw1Tg47+LUZE5LxXyNb1W8n2Qt0q6m/TyvVkusHoiGPs9XGlgQ5AcHMuGduH7375jj25O9mx08mIBoEAmOq248KhoSydPJuEHn/l2u6hABQvX0O+F8yNIsj69xP8dUFhpV+5eM5rXDqn9HZAn1v49M1RNDEX8vvsL3jno4VsSS+bBoaXgl3rWLCrko7SNjFvyqbj7goa0o67dLYsIiI1mN6mRKTa+XxeXClrATA36IzBrNUKRESqhTebLXNmMWPeGjbvyqLQYCciphVxw0Zy9dhY6pudbJr+L+ZtzWXfmnQ8+CjYOJ+3nl+J0WCjzeibGNPJwM7vv+K7DfkQ2p6xdw+l1bFTklyJzJ80m/XZYO90CbePaYUVK+2vfphXBudT4KtLbF3TcWUZbQHYDICniKJi3zGPONk27X1e+mIbnl+gybu30q+ej/Tk/WS4jQQ2j6FpncZ0jAsmNMjCsb2WpO7kt+05mKLb0KNFCN6ifHLr2sra2ImJ60GHyGXssHTgwtbZLFq8nwbXPMGkezqVTb1ysfGjR3li6kGixz3N+3d2KLvfR9r3r3Lrq79hDQys4gWeRUREqpZCHRGpdt7MXVCSA4C5UZyfqxEROVe5SfxuEs++toJ0r53IDm2JtWXze/xKZsRvZZ/nOV64pgFZ25fzw5wcDs9eKkhYww8JgDEcwwU3ACZydq1l/uwUaBrEhXcAx4Y6njwSVyxm3u9eGtl7cysANhq0jaVBhXWVsGvtJhLdgDmSRpHHnn5aaTf2Wq5cNpGvNy7gww/a0PTpOBJ27sGJhbYtW3DR+Ne4pILnuvvr57hzew6B3UbxzDP9CCzXwhrZkxv//jT9zU2xL5rIL4v34S0pICMtvfQE2JPKxvg0XMYgmsWEkZOWfuTYnEL3ke+PiIhITaZQR0SqnXv/mtIbi/LT6gAAIABJREFUJgumhp38W4yIyLnKlcSyH9aR7jYSPvhm3nppKJFGJ7tmfMgHSwoJzk0lx9uYtpffx4sXpLDw3a9YsNdD3UF/5YHLYjAZTIS3tgKeKi0rb/0sPvtmG8VeIyFd+tG/TbnRmnU6Me6hq9nxwGRW/fg1H3dwU39rHl5LFO07RmH1ZrPtx3l8M/13mt7/KOM7n/xC+wEx7YnFyZbCIrx4SJn5BuNnlm9VwsKXHmBhBcebiooohj8ERiIiIjWFQh0RqVY+nw9X2Xo6pvqdMJhtfq5IROQc5ckhK9MNGLA5wggzAlhpceUDvHnlMe06xNGg2MbmTwAMmOrG0HNAr2OmGVVdqJMbP4vXnvsv67K8GB2duOa2YRXuLhXQbgS337KV3W+uZOkHnxFQ5MIU2Z7YtjbwZrDrl5/5ZVMWv32+gH6vjablKb6VuENiuGhsS4LtVkyeHLYvWsamVBdY6tNteB9ahBzeQctHUdI61pe0Jq6xj9wgC4VucOiMWUREaijjiZuIiJw+b/YeKM4CwBzVw8/ViIicw0x1iahvBjyk/jSdD/+7lt3Zbj8V4+bgsq957vHJLElxQUgrxjx+N1d1DqqkvZUWY8Zx/YAIDAVFFHotNOrfnU5BgDmKYTeNolsYHFozi6k/7ufUnpWVztfey0O3DaFrIyMH1q1nc7oLL0bssYMYd/cE7nrgJu56YByXxvpI3LqflIT9WPtew5P3DdTOVyIiUqPpbUpEqtWRqVdGM+aGnf1bjIjIuczSmAuvGMT8LQvYnbOD2a//k7mT6tOxTy8GjBjC8P4xBJ+VQorYNfczXnr9ZxLyvZjqdWbcU/cyvl/9Pz/xtMQwbEw/vl06iyQXhIYEH1kY2dp6CNeMWsTGKXtYOvV7Vl9wMw1PUIU7bScr1yaQnJjM79u2sWljEulFXoyWOrTs05mSdZtIWjeDfzzi5PEn+3Fo1hT+9e1m0txWImMdHNq4hcS+DSscWSQiIlJTKNQRkWpz/NSrjhgs2kNERKT6mGg45FZeCmvO7NnLWbZqK8lZB4lfMIv4Rb+y+s7HeO6Gtpz8ijSV8/kqe6SIXd9/xHOvLSGpGOwtB3HHM7cyun3IiTt172X+zKXscwG42DZ9Gt8NeIpr29mAYLqMHU7veZNYkriIaf8byL0nmIJlDg2kJH4BX8/cRYHXSFBUWy4a1Ic+7Yxs+u905paYCAo2kRf/Pc/eMBe304UXE/VH3s17fx9IPY1nFxGRWkChjohUG1/eASgs3U1Eu16JiJwNViJ7DOe2HsO5reAg8Ut+4t8fz2RVSiZrp85hyYhWXBJhOmEvBkPpGjNelwdP+QDHV0RhQUV7Q3lI/3Uqr7xZGuiEdBzBIy/cyMDokxnq4iRxzjSmLs3CV6cdvVumsmZtPN989hO9Xx5JMwuYG/fnshHLcDp7c+XFTTAtPkGXAY0Z/MD9mGI2427Rka7N3Wz87n9MfWU5CQVBtLn0GvoVLWTKghSc3lA6DW1D/i9rSFq7mjX7+zEiWqfJIiJS8+kahIhUG3faliO3TQ1i/ViJiMh5KKghnYZfy99u6kmwEbz5+0nZdzKLIBuw2mwYAN+hbDLyjz/GuXs3v2f+sR/PgaV8+sb/saMArM0v4oHnTzbQgdx13/LWB8tJxUHPG2/jmYcup4cDspbP5N8LDpYt3RxMz/te4JWHR9IjurS+E3EWW6gbZeHA4qk8dt1jvPDxcpJsbRn14E0McS/hPz+n4ALASrNhN/DXoRGQupzJ780noeikShcREfErhToiUm086VsBMIREYQwI9XM1IiLnNvfeNXzz/iQmvvAdGwoP32siwGYtXZvGGECgvSwKMZgwmQB8FGZmc+i4gTcmIiMbYDWCt3Arv/68l+LDDxXuYd6Un9jpLj2FPDoNK5fVU6ezcJ8LLI24+JbL6RqUT1ZW9h/+ZeeWHPO1PGSvn8krz88gPtdE44vHc89fWhDccgjXjmmO1ZvGoq9msSr71Hfk8mRvYMrjj3PfQx/w2fRV7HI2pPe423jh74OxLp7CpB/2EdRjNKN6BoA7j4wMCwNv+SuDo42kLp7MPyfOY2tO1W7vLiIiUtU0rlREqoXP68aTsR0Ac4MOfq5GROTcZ7AXsXv+j/yQGkyK1crVFzYmIHcPi/6zhkNeI/Z2XenarGzkjKUeDaICMG7Po3DZDF59OY0ODh/22OH8pX99wnt0o3v4Sn7JyGHVBy/wcHw32oR7OLBhLZuD+zKi20JmrXXh9pSFHkU7WP3r/tJRL659zH7yLmZXUmfQ4Hv5+uWhhJPLzrnf8MH7c9mQAfX6juOxBy+isQXATuyYS+j7/UestxaRle4Bx4mnjR3L5OjC+GfvxPXuctwdezGgu4P9i+fwyZMr2V0YQPPht/HYg73ZM3EB3+PF5XZhjB7IXU+mkv7MN6z/v094fM9Wrr7pCi4d2Kxsi3gREZGaRaGOiFQLb9YecJde2zXVU6gjIlLdTHX7ct19O9j7+jy2zJjE0zPKHjCacHQYzG0PjaTd4dlQxnpccMWlLFj/DRuy0lg7cwZrCaD7/QO5sj+YowZx4707OfDmT+w8lM6mBT+yCSOh7YZyzyNjcX+6CPBRXFhStr24D2+liydXzL13MwvnrWRrFoTHXcljfx9LbNgxz6dRP655Opwbu8bRtGwn9LwtS1iw043DYSV9RwYeDJjNpkqnYnkDoug9tD3rVyzkzckbSMrxYYhow+j7JjBhdDvCnZtZus8FRjt1HGGYMeHocRVPP2fk9Re/YdX2JXzy+Aq+bdWDS28Zz3WDIrGe2tMUERGpVgp1RKRauNPL1tMxmDBFtPFvMSIi5wUz0UNu5a3uw9i6cTf7MotwG204oloQ27Up4eWWtwnrcS0TP49l1bpkcr1WQiIa0aJDVNnJoZVmI+7hva5DWbcxkfR8CGwQQ2z3tkTaofjJSfR5FAxme+k26YFduHXyvxh/EsGOwWzHAdC4L3e83YIe8+Ix9r+IrnXLj8QJol3/4xfZDwzNY/W7n7Iiv2y+mDGMNq2iKzih9ZDx6xc88eQcdhaVtjUGRdLtiqHEejaxbc1PTN27AnfSBn7+3YXREUuXTmXJESYiel3Ns+9E8/Xbk5m+2kPLQRdzaT8FOiIiUvMo1BGRauFJK11PxxjeAoP5BPvOiohIlbE6YugyKIYuJ9HWHt2RC6M7Vvp4QGQb+kb+MZgPCHUQcPxXJdhxGpGHpQHdRw896ebmhu3pdUE7irLsOOpH0rxbP4ZfUlGoYyKi/7Xcf2My//zBQLeh/Rl6ST+6RtspXJbJbY/MZWXpCskYw1pwyd1/YXDk8aFSYLN+3PpGW/rH59CoSwtNvxIRkRpJoY6IVDmfuxhv9i4ATPU19UpERKqIpRljn5/I2JNqHETH8c/w1XgL1mMCGXvsBVx9g50MWwjhkdG07R5Lm3qVXHww16Vdt7pVULiIiEj1UKgjIlXOk74DfKXD3c312vu5GhEROW8ZLX+cMhXansvu0HuTiIicG84o1MnYuRNXcTH28IiqqkdEzgGGpFUYAZ/JRn6RDfbt93dJ5xwfXgrTMwgMD8cR08Tf5YiIiIiIiB+cUaiz4d/TcJeUVFUtInKO6NYxHbsdstJh2wcf+bucc1pwvfr0/9sD/i5DRERERET84IxCHVtIKBhyady3f1XVIyK1nNFXgr1gOgDmBh1o1kRD3KuFx8OeXxYTGBHu70pERERERMRPzijUsQQH4XGVENWte1XVIyK1XfY22FR6M6xDf8JCm/m3nnOUx+1izy+LCQgN9XcpIiIiIiLiJ9qcUUSq1qHE0o8GE4RE+7cWERERERGRc5hCHRGpWrlJpR+Do8Fg8W8tIiIiIiIi5zBtaS4iVcfnhfyyUCdM065EqpursAB3SQnJK5b7uxSRU+bMz6MoO4fghg0wWf6w8bhIjeZ1uwEoOpTj50pE5HynUEdEqk5ROriLS2+Hxvi3FpHzQEl+Pl6Xm+Rlv/q7FJHTdig5yd8liJy2ouwsf5cgIuc5hToiUnUKUo7eDtJ6OiLVzR5eF2dRIS2GXuzvUkROWebvO0mLj6fZ4CEE1Knj73JETomnuISdc2cT1rixv0sRkfOcQh0RqTr5+0o/mgMgoK5/axE5DxjNZoxGIzbtgia1kDkgEABLULB+hqXWcVtLADCZtH6giPiXFkoWkaqTVxbqBEWBweDfWkRERERERM5xCnVEToubg/FrWLU+geSMQtyncKRzz2K+/PgH1iQXVFt1fuHzQX7Z9KtgTb0SERERERGpbgp1RE6Lh4NLv+ap2/7G+L+8wv92nWSsU5TAzLf/xeTPPuTRGx7njZ8O4inXxFlcckohUY1RkgPuwtLbwVH+rUVEREREROQ8oDV1RE6LkUC7HSNg6daLC5qdxK+SN5u1X3zGlJU5eDFisZawZfLL3D659GGfx0VhrpuWE57gmb80rdbqq0XRwaO3gxv5rw4REREREZHzhEIdOSe50zbx3cf/ZvaGbNymJoz+5yNc1fqPC9m59/3KV19vpig4iACLkaOrwPjwupwU5juJvuQmLu9iLXekAbPZDBixhoZS54Rj3vLYPPV9Xp6ylQJbPZo3r8PRHl1kJyWTmg+hvScwfkxTyn+1WqHgcKhjgMD6fi1FRERERETkfKBQR/zGk72FBbO3kx8Tx6iBMVUUZBSStHgmH707i1V7i/ECBIRRUsl8Jm/BQTbOnceG4kq6s7ZmwsiKHzIYwAAYjCdYENidxuovP+bNz38jM6A5lz7xCPcOizryfJ3bv+WxO6eQamnC8HFDaFlbN1EoSC39GBABxtr6JERERERERGoPhTriN/lrF/DpB79gHBvNpQNjzrxD90GWvP82b/93O9nm+nTrGcimtXso+ZNDTBEdGPPoQ1zuCMZuNR1ZZMqbuYbP/jmbndYIggwppGREUDfEdswiVB683sONvbhLisg9lElavpXo5vUJKHvIeXAj373/KZMXJFPgNRLUpA5Fy7/hteWH+/FRuGcDG/O9mOqHkLd6BpPWlN7vLsrnUGBnJtw5gKja8JtaWDZSJ0ijdERERERERM6G2vCnopyTCtm6fivZXqhbVV2609m+eheG9kO5756rGZL+FdecKNSp244Lh4aydPJsEnr8lWu7hwJQvHwN+V4wN4og699P8NcFhZX2UTznNS6dU3o7oM8tfPrmKJqYC/l99he889FCtqS7SkcM4aVg1zoW7Kqko7RNzJuy6bi7goa0467a8Fvq80FR2Ugde6R/axERERERETlP1IY/F6U28WazZc4sZsxbw+ZdWRQa7ETEtCJu2EiuHhtLfbOTTdP/xbytuexbk44HHwUb5/PW8ysxGmy0GX0TYzoZ2Pn9V3y3IR9C2zP27qG0OnY2jyuR+ZNmsz4b7J0u4fYxrUqnMplCaP/XxxkxuDvRgVA0/2QKdrJt2vu89MU2PL9Ak3dvpV89H+nJ+8lwGwlsHkPTOo3pGBdMaJAF0zFHlqTu5LftOZii29CjRQjeonxy69rK2tiJietBh8hl7LB04MLW2SxavJ8G1zzBpHs6lU29crHxo0d5YupBosc9zft3dii730fa969y66u/YQ0MPDLqp0Zz5YG7bA6bXSN1REREREREzgaFOlKF3CR+N4lnX1tButdOZIe2xNqy+T1+JTPit7LP8xwvXNOArO3L+WFODodnLxUkrOGHBMAYjuGCGwATObvWMn92CjQN4sI7gGNDHU8eiSsWM+93L43svbn18P2WpvS/9FR3jbLSbuy1XLlsIl9vXMCHH7Sh6dNxJOzcgxMLbVu24KLxr3FJBc9199fPcef2HAK7jeKZZ/oRWL7nyJ7c+Pen6W9uin3RRH5ZvA9vSQEZaemlv3ieVDbGp+EyBtEsJoyctPQjx+YUuo98f2qFooyjtwMi/FeHiIiIiIjIeUShjlQdVxLLflhHuttI+OCbeeuloUQaneya8SEfLCkkODeVHG9j2l5+Hy9ekMLCd79iwV4PdQf9lQcui8FkMBHe2gp4zm7ddTox7qGr2fHAZFb9+DUfd3BTf2seXksU7TtGYfVms+3HeXwz/Xea3v8o4zvbT7rrgJj2xOJkS2ERXjykzHyD8TPLtyph4UsPsLCC401FRRTDHwKjGqc48+jtQIU6IiIiIiIiZ4NCHak6nhyyMt2AAZsjjDAjgJUWVz7Am1ce065DHA2KbWz+BMCAqW4MPQf0Omaa0VkOdYCAdiO4/Zat7H5zJUs/+IyAIhemyPbEtrWBN4Ndv/zML5uy+O3zBfR7bTQtbafWvzskhovGtiTYbsXkyWH7omVsSnWBpT7dhvehRcjhHbR8FCWtY31Ja+Ia+8gNslDoBkdN/009PFLHZAVLsH9rERE5a9zsmj2FWd4LuXd0U7Tvn4iIiJxtxhM3ETlJprpE1DcDHlJ/ms6H/13L7uxK9hKvcay0GDOO6wdEYCgootBroVH/7nQKAsxRDLtpFN3C4NCaWUz9cT+n9qysdL72Xh66bQhdGxk5sG49m9NdeDFijx3EuLsncNcDN3HXA+O4NNZH4tb9pCTsx9r3Gp68b2Dt2PmqqGykji2idK93EZHzQgn7tsezK6O4dk2ZFRERkXNGbfhzUWoLS2MuvGIQ87csYHfODma//k/mTqpPxz69GDBiCMP7x1Cjx3BYYhg2ph/fLp1FkgtCQ4KPLIxsbT2Ea0YtYuOUPSyd+j2rL7iZhifozp22k5VrE0hOTOb3bdvYtDGJ9CIvRksdWvbpTMm6TSStm8E/HnHy+JP9ODRrCv/6djNpbiuRsQ4ObdxCYt+GtKwNl36Ly0bqBIb7tw4ROW94M5PZkOAksmtLIt1pbFi6lvUJGeT7bEQ0aUlc/y60Cjf94Zj1CS6iu7fAkbGdRQs3kpDuomHfkYzt4Si90lWUxqblG9m4K5XsQi/WkLo0bteRPj1jjhk16SFtxxZ2Z+SwOamIEs9efltRhBEDlroxdG3tOP6q2Un1KSIiInLqdCohVchEwyG38lJYc2bPXs6yVVtJzjpI/IJZxC/6ldV3PsZzN7Tl5FekqZzPVwWdlOfey/yZS9nnAnCxbfo0vhvwFNe2swHBdBk7nN7zJrEkcRHT/jeQe08wBcscGkhJ/AK+nrmLAq+RoKi2XDSoD33aGdn03+nMLTERFGwiL/57nr1hLm6nCy8m6o+8m/f+PpB6tWkcXfGh0o8BCnVE5OxwJS7n41cPMvKlYRR+9SU/lTSja5t6hBoKSV7yDbNmrWbco+O5rI39mGOWMenlLK54pSe/v/MdB5p2pHV9+5FpUwU7l/DJ2/9hUW4UveNaEBlmwpmxkzlvzuTfLS7hngfH0ruhCXCTvHQOU9bmknPASWHmz3ydaAGMhPa+mo6tHdhOuU8RERGRU6dQR6qYlcgew7mtx3BuKzhI/JKf+PfHM1mVksnaqXNYMqIVl0Sc+OTVUDaFx+vy4Ckf4PiKKCyo6oHuThLnTGPq0ix8ddrRu2Uqa9bG881nP9H75ZE0s4C5cX8uG7EMp7M3V17cBNPiE3QZ0JjBD9yPKWYz7hYd6drczcbv/sfUV5aTUBBEm0uvoV/RQqYsSMHpDaXT0Dbk/7KGpLWrWbO/HyOia8mvp88DrrJQxxrm31pE5PziyWb9tDlYut/GG6NbEHb47cVziI1TP+bNSfNp8eIY2h97NcFbwJbZawm74WGe7+U4ciLkzdrAl699xbrIK5j44sV0cBxN1kuSV/P5K5/x1nthvPTsUFpYbcTd8iRx1+/giwfeYm3cBN68uS3ls/5T67M6vkEiIiJyrqtNYwGktglqSKfh1/K3m3oSbARv/n5S9p3MIsgGrDYbBsB3KJuM/OOPce7eze+ZVbuYcu66b3nrg+Wk4qDnjbfxzEOX08MBWctn8u8FB8uWbg6m530v8MrDI+kRXVrfiTiLLdSNsnBg8VQeu+4xXvh4OUm2tox68CaGuJfwn59TcAFgpdmwG/jr0AhIXc7k9+aTUFSlT7H6OPOAsuTNplBHRM4i91620YMbRh0T6ACYwuh85WgudK3k5/UFxx9TksAWUxxXHhPogIekhfNZkN2Ja24ddlz4AmBr0pPrxg8g9LefWbDxZF+cq6NPERERkeMp1JEq4967hm/en8TEF75jQ+Hhe00E2Kyla9MYAwi0l0UhBhMmE4CPwsxsDh038MZEZGQDrEbwFm7l15/3Unz4ocI9zJvyEzvdpT+6Zz4Ny0P2+pm88vwM4nNNNL54PPf8pQXBLYdw7ZjmWL1pLPpqFquyTz1E8mRvYMrjj3PfQx/w2fRV7HI2pPe423jh74OxLp7CpB/2EdRjNKN6BoA7j4wMCwNv+SuDo42kLp7MPyfOY2vO2d8J7JQ5Dx29ba3jvzpE5DwUQMeeXWhU0cBGezO6draRsDMF53EPWGjTsS3HvVp5Mtm8YSeGzl3p3aji0aShsZ3oWj+DLZv3luuvEtXRp4iIiEg5tWR+h9QGBnsRu+f/yA+pwaRYrVx9YWMCcvew6D9rOOQ1Ym/Xla7NylYusNSjQVQAxu15FC6bwasvp9HB4cMeO5y/9K9PeI9udA9fyS8ZOaz64AUeju9Gm3APBzasZXNwX0Z0W8istS7cnqOhR/Har3no+YWkHr7LVUChF3Am8N+HbmdWWYRp7XkDHzw7CAe57Jz7DR+8P5cNGVCv7zgee/AiGlsA7MSOuYS+33/EemsRWekecJzamgcmRxfGP3snrneX4+7YiwHdHexfPIdPnlzJ7sIAmg+/jcce7M2eiQv4Hi8utwtj9EDuejKV9Ge+Yf3/fcLje7Zy9U1XcOnAZmVbxNdAztyjtzVSR0TOJmM4kZFBlVyhMtOgYThZ23NwA0dmN5kdRESUmyjlzuDgAWjYtz4hlb3UW+oR2Qh+TsvGdWx/lamOPkVERETKUagjVcZUty/X3beDva/PY8uMSTw9o+wBowlHh8Hc9tBI2h1ejdJYjwuuuJQF679hQ1Yaa2fOYC0BdL9/IFf2B3PUIG68dycH3vyJnYfS2bTgRzZhJLTdUO55ZCzuTxcBPooLS45uL+4uIS8jg3RXucK8LvIyMsgr+zSoyIUPcO/dzMJ5K9maBeFxV/LY38cSe0wmYWrUj2ueDufGrnE0DSq9L2/LEhbsdONwWEnfkYEHA2azqdKpWN6AKHoPbc/6FQt5c/IGknJ8GCLaMPq+CUwY3Y5w52aW7nOB0U4dRxhmTDh6XMXTzxl5/cVvWLV9CZ88voJvW/Xg0lvGc92gyJp30l+Sc/S2LdR/dYjI+cdgxWqt7BXYiM1qwevyHH2fAMCMxVzuGK8LVwnYrObKp9YarFit4Ha5y/VXieroU0RERKQchTpShcxED7mVt7oPY+vG3ezLLMJttOGIakFs16aEl9uaO6zHtUz8PJZV65LJ9VoJiWhEiw5RZT+UVpqNuIf3ug5l3cZE0vMhsEEMsd3bEmmH4icn0edRMJjtR7ZJD+h+De/NvfyPCyuXYzDbcQA07ssdb7egx7x4jP0vomvd8pdSg2jXP+64ewJD81j97qesyC+bL2YMo02r6Ap+kTxk/PoFTzw5h51FpW2NQZF0u2IosZ5NbFvzE1P3rsCdtIGff3dhdMTSpVNZcoSJiF5X8+w70Xz99mSmr/bQctDFXNqvBgY6AK780o8mKxhrZIUicq7yFVFUXNmLvof8omKsdtuJT3ZMAQQGQ35hMZUuw+8ppKgQ7GE2LJW1qe4+RURERMpRqCNVzuqIocugGLqcRFt7dEcujO5Y6eMBkW3oG9nmj/eHOggof6cliDBH0B/a/ilLA7qPHnrSzc0N29PrgnYUZdlx1I+kebd+DL+kolDHRET/a7n/xmT++YOBbkP7M/SSfnSNtlO4LJPbHpnLyrIRRcawFlxy918YHHl8qBTYrB+3vtGW/vE5NOrSouZOv3KVLfBpDv7zdiIiVc2bTcrebNzdG1TwOlzMvqQ0GkU3OHEgbmpIdBMbqYn7SXN3oHFFZ0dF+0lKhpheDU8uYK+OPkVERETKUagjcioszRj7/ETGnlTjIDqOf4avxluwHhPI2GMv4Oob7GTYQgiPjKZt91ja1Cu/EW4Zc13adatbBYVXI1fZzjKWUwzURETOmJPNy38jccQIWpZLRbypm1i2MZyuIysKfMoxhdC1Z2dC3l7J4h0XcH2H8pcNPOxdsoo1JW24unvk0f4MYDCAx1vBWJzT7VNERETkFNTUa/8i5wbj8YEOAKHtueyO67nxxjGMviSu8kCntjgS6tj9W4eInH+M9WnqWs4n/1rNnryjdztTt/LtR9+RFDeMwc1OJi4xEjHgEq7umsX/3pvG/+3IO2bKVCGJS2bw/pTtRF1+GUOaHzuqMoiQYMjee5D0PyyKc7p9ioiIiJw8XRgSkTPjLltTx6yROiJylhmC6HLtaCyzv+aR276nefMI7O48kndl4xhwBQ+M73LyGxdam3Dpw3dh+GQak+9/nG/bNKVRCOQfSGZHZhh9r7qDW69qS8hxx0TSY1AnZn84g388vIHoYDcFEf159N6+1DOdZp8iIiIip0ChjoicGVdx6UdNvxKRs84HQe245tln6LN5Ozv25eOxBTPm9jZ0aB76h8WHbbGjeX2KB0tQxcsSG8NacdkjTzHgqgS27EwluxhsdUZyb4dWNCu/2j8AJpqMuJmXYzYRvzsPt9VO3aatCDOdSZ8iIiIiJ0+hjoicGU9J6UdTLZ9GJiK1lzmEmC49iDnRCv1WO2EnXjWZsJg29I354yL9FbPRsEMcDTtUZZ8iIiIiJ0ehjoicGe/hUEd7t4hIxQ4tmMQtb6ym8E9bGTDgo7INyksZiR77AO/c3hFDVRZYA1TH9+gPu0SKiIjIOUehjoicPp8HvGV7s2ukjohUImzoHUwfekeV9llSpb35X3V8j0REROTcd0ahjru4GI/p2SPYAAAgAElEQVTbTdau36uqHpGzxllQQEluLoF162K2apTJ6TB4nTjKbudn5uAs1mvB2eJ1ewBwFf75dX2Rc5WlSS9uerg9dSO1c5SIiIicv84o1CnOzsZdUsLWmTOrqh4RqUWsFg89u5be3rtmPZnZ2/1b0Hko/2Cav0sQ8QtjvWb0qufvKkRERET864xCnYA6Dopzs2ncp39V1SNy1uSmpJC5YzsN47oTGFrH3+XUSiZvPhR+B0D9jl0ItUT7uaLzh9fjIemXxQQ3qO/vUkRERERExE/OKNQxBwZgLLAQFhNTVfWInDXu4mIygZAGkQTV1x/Gp8NYkg0JpbeD6jfEFqrXgrPF63YDYAmy+7kSERERERHxF6O/CxCR2sxz9KZBLyciIiIiIiJnk/4KE5HT5zu6sa5PoY6IiIiIiMhZpS3NReT0+TRSR8SfSvJycRcXs3fZMn+XInLKirOzAUjduAGzzebnakROjddTeg5UkJnh50pE5HynUEdETp/Jhju4FeDFZwr0dzUi5x1XURFel5vMnTv8XYrIaTuUlOjvEkROW0lerr9LEJHznEIdETltXquD4pir/F2GyHkrqF59PMXFdB4/wd+liJyyA7/9RuKSX+g8bhz2+g38XY7IKXEXFbFm0kc4mjbzdykicp5TqCMiIlJLGQwGMBgwmfR2LrWPwWQ68lE/w1LbeA///GLwcyUicr7TIhgiIiIiIiIiIrWQQh0RERERERERkVpIoY6IiIiIiIiISC2kUEdEREREREREpBZSqCMiIiIiIiIiUgsp1KnV3Oya/QVvzkrE5e9SREREREREROSsUqhTq5Wwb3s8uzKK8fq7FBERERERERE5q8z+LqC28mYmsyHBSWTXlkS609iwdC3rEzLI99mIaNKSuP5daBVu+sMx6xNcRHdvgSNjO4sWbiQh3UXDviMZ28NRmrAVpbFp+UY27kolu9CLNaQujdt1pE/PGBxH/rc8pO3Ywu6MHDYnFVHi2ctvK4owYsBSN4aurR3Hp3Un1aeIiIiIiIiI1Cb6k/40uRKX8/GrBxn50jAKv/qSn0qa0bVNPUINhSQv+YZZs1Yz7tHxXNbGfswxy5j0chZXvNKT39/5jgNNO9K6vh1L2eMFO5fwydv/YVFuFL3jWhAZZsKZsZM5b87k3y0u4Z4Hx9K7oQlwk7x0DlPW5pJzwElh5s98nWgBjIT2vpqOrR3YTrlPERERETkfOXNSSEzKodgURINmjWkQpHNDEZHaQqHOmfBks37aHCzdb+ON0S0IO/z+5znExqkf8+ak+bR4cQzt7ccc4y1gy+y1hN3wMM/3chz5D/BmbeDL175iXeQVTHzxYjo4jo61KUlezeevfMZb74Xx0rNDaWG1EXfLk8Rdv4MvHniLtXETePPmtkeCHE6rz+r4BomIiIjImXJnbmX2x1OZFR/OlW/cz6VRf34Kf7LtPTk7mPfJFKbO2Uyqy4TJ68EbFEWvy6/m1psG0Nxe4WEiIlKDaE2dM+HeyzZ6cMOoYwIdAFMYna8czYWulfy8vuD4Y0oS2GKK48pjAh3wkLRwPguyO3HNrcOOC18AbE16ct34AYT+9jMLNhadZHHV0aeIiIiInD0lpCz/hufvfp05WzNJ2Z9PiaeK2ruSmDvxNd5bHsjw59/k28Xf8sOCD3jj3g4cmvU+L368lmwt2igiUuMp1DkjAXTs2YVGFV38sDeja2cbCTtTcB73gIU2HdtS59i7PJls3rATQ+eu9G5U8XDX0NhOdK2fwZbNe8v1V4nq6FNEREREzg5vGismvcRDE9dT7/onmXh9a/50YPUpts9b9X/8d7mNEQ/dxXWDmhNuA3NoFF3H3sID41qxf/YCfk390wRJRERqAIU6Z8IYTmRkUCXfRDMNGoaTlZGD+7i7HURElJso5c7g4AFo2Kg+IZVNYbbUI7IR7E/LPrnty6ujTxERERE5O1yZ7M1ry93v/Z17R7YkxFCV7V0cSErH06Q7/eIcHH+qaKVp53Y0du8lKdFdyfEiIlJTaE2dM2GwYrVW9o5pxGa14HV5jg91MGMxlzvG68JVAjarmUrffw1WrFZwu9yc1NtrdfQpIiJSq7jJ3LKCn5fuYF9WCcbgerTo0YcL+zQm+JhWnszdrNvuokmvNkTk7eLXH1cQn5iD0xxGVMc4Bg9uRz1LBd0X7WfDL2tYt/0AWQVebGH1iIntSv9+LQnXGZacKVs7rnqkXTW1t9B63DP8Z1wlD5uMGPHiO/mvLiIifqKROmfCV0RRcWVvdx7yi4qx2m0nTs5MAQQGQ35hMZVOXfYUUlQI9kAbFZ1XnpU+RUREag0PaYs/49G7P2LejhLs4WHY8rYx/alneO7rnRy7mpxr50LeeWoW6xKX8/5DrzM9Ph9LaDCmzI1Mf/ZJHnxxIfvKXf3I3/4jL9/8IH9771f2FJgJcdjxZWxl5nMPc8u9X7L8gC6XSG3lJn3Hbvaam9AkRumkiEhNp1fqM+HNJmVvNu7uDSr4RhazLymNRtEN/nz+M4CpIdFNbKQm7ifN3YHGFf2vFO0nKRliejU8cX/V1aeIiEht4d7Lom8WktXrFj6YOIxGRgA3ozq+wX0fz2X5yNYMdhzT3nWQXz76iagJ/+DtAYff14u4dNpr/O3t6cy8uDf39indCsiTtYrP/v4Ra6Ju4K0PRtPZcXTySnHSUj568m1emliHt98YTUtdNZFaxpMdz3ez4gkZeA99GmprcxGRmk4jdc6Ik83LfyOxglWGvambWLYxnK5dKgp8yjGF0LVnZ0I2rWTxjuIKGnjYu2QVa0ra0Kt75NH+DGAwgMdbwVic0+1TRETkXODOJO2gjwYtYog4crZjJmrozbz10Q30CSnX3plAYr1hjB9w7Pt2IC2HD6JXnYNsjk8q21TAzZ653zM3PY7rHxx1XKADEBBzATffNZQ6K+Yxd01h9T0/kerg2sfP737O9/k9mTChL/X1l4KISI2nl+ozYaxPU9dyPvnXavbkHb3bmbqVbz/6jqS4YQxudjJxiZGIAZdwddcs/vfeNP5vR94xU6YKSVwyg/enbCfq8ssY0vzYk8cgQoIhe+9B0v8wyvt0+xQRETkHmMKJaAB7129gR84x99sjaBJTF3v5t2djGJ3jOhJavp+gSKKjjGRkHSp9H/WmEb92K4YePekfXfF7fGi37sRFphK/YY92l5TaoySFRW+8yburIhj3zC0M1dQrEZFaQa/WZ8IQRJdrR2OZ/TWP3PY9zZtHYHfnkbwrG8eAK3hgfBccJ5uXWJtw6cN3YfhkGpPvf5xv2zSlUQjkH0hmR2YYfa+6g1uvastxFxatkfQY1InZH87gHw9vIDrYTUFEfx69ty/1TKfZp4iIyLnA0oSh14/k12en8eiEDfQeFEfPnl3p2b05dW0VtDfVIdxRwWRkgxWbDZxOT+misc409qf4iBoYSWhll8YsDWgUDf93MAMnaIqz1HwFu5nz2pt8uK4B4164h2u610GX/EREageFOmfEB0HtuObZZ+izeTs79uXjsQUz5vY2dGge+ofFh22xo3l9igdLUMUT7I1hrbjskacYcFUCW3amkl0MtjojubdDK5qFV3SMiSYjbublmE3E787DbbVTt2krwkxn0qeIiMi5wERE3wm88kksC+evZM2qH3hv6pcQ04Mxd03ghosaE1CuvamykObYbSR9LlxFYLX9SVRjtGG1GfCUOHGd8fMQqWa5O/n2xTf4fHdLbnv5Tsa0Dz7xMSIiUmMo1KkK5hBiuvQgpssJ2lnthJ141WTCYtrQN6bNSX5xGw07xNGwQ1X2KSIicm4IbtadUbd3Z9Ttbg7tWse8z7/kixc+JLD+c1zf8TTG0BgDsYdCQUHhn+4uWVjgw+6wlwuORGqYkkTmvvomn+9pw90T72BkS7u/KxIRkVN0XoQ6hxZM4pY3VvPnyxUaMOCjsg3KSxmJHvsA79ze8biLdueC6vge6URWRERqDjNhLXpy7cMFJFzzIWvW7uPqjs1PfWqUpRExzQL4b0Iyqe6uVLjsSEEye/YYaNY/6g+jdkVqjnw2fPUxH29szI2vKtAREamtzotQJ2zoHUwfekeV9llSpb35X3V8j0RERPzFvWcJn09JocM9V9E//Jh5yQGB2C1gMJzm5RljGN36xxH2wlJ+2jyUm7uU/0PYTfLPS1lZ3JHr+kafHydaUisVbZjNp9NyGfD0g1zeToGOiEhtpXON02Rp0oubHm5P3UgtIyciIlLTmB1W8jd8z7+ntKL13XHUNwMUsWfBr6zJbcRFsY1OcwFjE/UHX851C/7BpFc+pf7T4xnR4fCisgXs/um/vD1pE43HPc2IljrNkjNQkEHSwXzcZUOk3dlOfDjJO7CXXc7SUNIUVJfGkSGlP3+n0t57kEX//ZGUzqO4pUkhiQmJFZZwXP8iIlIj6WzjNBnrNaNXPX9XISIiIhWq04Nx9w/jpZcncuuvLWndOBhfdjJbE3x0uvFeruxS0RZYJ8nWnDHPPoHh7U/5eMIdTOvYkqgQA/kpu9ia7mDA+Ee5Z3ysdpeUM1K8aRbP/G0WSeVW2/7invv5AgAjjlGPMO2ZfgSeavuSZHZsPUT2/sk88OvkSio4vn8REamZFOqIiIjIOchEw4E38nqnC9m8LoF92U4M9iFc1zGW2CbBx408CIi7lg/murEEVzB2xxzFmJc+42Jj0HF/2JrqtOPyf7zK4PHb2Lh1P1lFPgIcV/BQ1/a0DNcm5nLmArpfw3tzL8fzJ4sZGsxHfy5PqX1gF26d/C/G//lCicf1LyIiNZNCHRERETlnWR1N6Ta4Kd3+rJEliDBHZQ+aCajjqGTxfzNhzWIZ0Cz2DKsUqYAliDBHUDW1txLsUPgoInIuMPq7ABEREREREREROXUKdUREREREREREaqEzmn7lKijA43KRvm1rVdUjctbkp6YBkJ2YSGFmhp+rETk1Xo8XgOLcPD9XIiIiIiIi/nJGoU5Jbi6ekhJSVq6sqnpEzrqMLZv9XYLIaSvKyPR3CSIiIiIi4idnFOoERtSl5NAh2o25vKrqETlrMn//nX2rVtLq4kuw19P+9FK7eD1uNk2bRkh0pL9LERERERERPzmjUMdksWI0mQhpqD8qpPYpSE0FwB5RVz/DUut43C4AzFabnysRERERERF/0ULJIiIiIiIiIiK1kEIdEREREREREZFa6IymX4mIiIj/FB/KwV1Swpb/zfB3KSKnrORQDgC7fv4Zs01TSaV28Xo8AOSlHvRzJSJyvlOoIyIiUkt5XC68bg+5KSn+LkXklPk8bgAK0tMwGDR4XGoXn88HgLukxM+ViMj5TqGOiIhILRUUUQ9nQT5tx17h71JETlnali3sX72KlpeMxF433N/liJwSd3EJm6dNxdEkxt+liMh5TpdFRERERERERERqIYU6IiIiIiIiIiK1kEIdEREREREREZFaSKGOiIiIiIiIiEgtpFBHRE7InbmVmS89xYRr3mBOitvv7UVERERERES7X4nInyohZfksPn73B1LMVlL2Wynx+LO9iIiIiIiIHKaROiJSMW8aKya9xEMT11Pv+ieZeH1rrP5sLyIiIiIiIsfRSB0RqZgrk715bbn7vTFc0DSQovl+bi8iIiIiIiLHUahTrdxkblnBz0t3sC+rBGNwPVr06MOFfRoTfEwrT+Zu1m130aRXGyLydvHrjyuIT8zBaQ4jqmMcgwe3o56lgu6L9rPhlzWs236ArAIvtrB6xMR2pX+/loTrf1bOlK0dVz3Srua0FxERERERkeNo+lW18ZC2+DMevfsj5u0owR4ehi1vG9Ofeobnvt5J0TEtXTsX8s5Ts1iXuJz3H3qd6fH5WEKDMWVuZPqzT/LgiwvZV27t2PztP/LyzQ/yt/d+ZU+BmRCHHV/GVmY+9zC33Pslyw9osVkRERGRms6bk8KWDb+zN9dbTf3vZ+uG30nKqZ7+RUTEvzSeo7q497Lom4Vk9bqFDyYOo5ERwM2ojm9w38dzWT6yNYMdx7R3HeSXj34iasI/eHtAg7L/mCIunfYaf3t7OjMv7s29fewAeLJW8dnfP2JN1A289cFoOjtMR7opTlrKR0++zUsT6/D2G6NpWdEIHxERERGpEVy7lvD2szu44OWnuKFj1V9vde1awjvPbSLu2We5tbtWrxMROddopE51cWeSdtBHgxYxRBz5LpuJGnozb310A31CyrV3JpBYbxjjjwQ6AIG0HD6IXnUOsjk+CWdpx+yZ+z1z0+O4/sFRxwU6AAExF3DzXUOps2Iec9cUVt/zExERERERERG/UqhTXUzhRDSAves3sCPnmPvtETSJqYu9/BgpYxid4zoSWr6foEiio4xkZB3CC+BNI37tVgw9etI/uuKBVqHduhMXmUr8hj1lQZCIiIiIiIiInGsU6lQXSxOGXj+SpgnTeHTCEzz39rf83/LdZJZU0t5Uh3BHBUNiDVZsNnA6PfgAnGnsT/ER1TiS0Mr+9ywNaBQN+w5mKNQREREREREROUdpTZ1qYyKi7wRe+SSWhfNXsmbVD7w39UuI6cGYuyZww0WNCSjX3lRZSGM45rbPhasIrLY/mRNttGG1GfCUOHGd8fMQERGpWbyZyWzY5SK6Wwsi8pNYvngdW/cewmkOoVGbLgzs34K6Fb5NFrH3t99YHZ/MgUNODIFhRLftRP8+x7f3ZiazcbebqK7NcWQl8OuSDezYX4DXXo/WvXozMDYcC+DNSWLF4t/YvDcPj81BTJc4BvZsdNwOl4cVpmxl2f+zd9/hUVX5H8ffmZJJT4aakEBIIYUkQIDQBYVVbKuuBSuWre7q2nV1WXVddxFXsKOCHXXRnwUVXV1RBCSA9BISIAnpJJBGejItvz9oSRg6IQQ+r+fh2XXuuXfOTM69c+73nvM9qelk7ail2TuIsPgBjB4VSVf1xOQwanO3kFZso0tUf2J6tGgsDbvYtGwDG7J3UlnvwtO/K73jExk5LBzr4dpU/S7W/7Saddll1LosdOkTzfAxyUR3cd8JVbsVETn9aaROO/OLGMJlf7iDJ996lbkf/o3JMSV88uQrfJx2nGNoDN74BEBdXT2HXMPAWU99XTM+vj5tAkciIiKdnz03lVefWsD6/NXMfmIWX6TXYfbzxVCZwbzpT/HIC8spOmgRyBrWz3mBh/75FWvLwM/qj2d1Jl/OeJpHXmxd3p67jNee/o4N23/m1X/NYWGeEy9/Txq2LeaVKTOYubCUpsKfmfnYm/w3swmLvxeOwlXM+cd0pn2cTeuMdk5Kln7Iow+8yTfb6jEHBuDtKGX5OzN4cOoCttS0+9clnVTd1gU89+jzvLusDq/AA1GUum1LeO7+vzPl7ZXk15vwC/SGim189eyT/HnKJ6wocbo/YGMWnzz1LC9/l0+d2YcAbzuFS/6Pvz04m6+2NbQprHYrItJZKM5+ypgIjBrG9Q/UkXXdK6xaXci1iZEc8xoE5l6ER3jxUVY+Ox3JhLv7C9blk5PjQcSYULT4lYiInJGcu1g2Zymhk+7nqZFd93Zomrhw3qtMeX0+X587iN+neO8v7ihcxedflJH8p79w3/nd95Z3cGH/WTz86td8O2Ewv0m2HDi+o5TUuauJuvUB7kwO2PMUzDaO+GnTef2Tr/ELr8R78r08mWLds805kZRXnmHaZwtZcV4E4/eukuAoSOWtt3JIvO9vTE6xHuh4VWfz2YxZzJ7Xl6k399NDGGmlftuPvPjUZxQPuoVH/jySPns7jK6K9bz7zBzWhlzFU/+aSIL1wPPZpvyVvPn0Gzz3UiBTHz+fqFadTAe533xFSdKvmX51DEH71tlwVrPhP7N4btZ3RP3zcuL3njJqtyIinYdG6rQTR84SZv1jLksr2jwt8fLGxwweHh7udzwSQyCDxwwlcO1PfJ/mbnUrB/k//MSKxkRGjQpT1E5ERM5MtlwKuo7j2v0BHQALkeNHMjRgFxkZO1rllTOFjeOBVx7mt+O6tyhvovc5Q0n22cW2zF2tpyw78igJHseV+wI6AJ69GH1Of3y2L2WpeQxX7wvoABiDGDxmACF12WzL2XckO5k/LqF45OVc2/LGGCAgiktvGINh0Uo2abFKaaFx+xJenvYxhQNaB3TASd7C71hQOYDrfndBq4AOgKXPMG66ZSwBa35gwYY2I29cpWx1DeSmX7UI6AAYAxh49eWMt69g4fq6vS+q3YqIdCYK6rQTk9WT2vVf8p/31rFr/5DuBnIWLGVVdS8Sknod+ygdAIz0mHAlN43YxYdPv878zbs5EDaqY/v3c5j+2iZ63ziJi6MV0pETUFdGXnYu2Vl7/uVX2mjGRk1xwf7XcotrDrS/9i4vItKSwZ+EATEHrxrp3YPQYANlu6vbTFM24tezG13a/vhaAunaBXZX1bQpH0T/xCh82x6+Zze6mzyJTYghqM02Y4/uBHtUU1W194ffUcqWLbXED4jCx81H8OwbTbwln+zCg+aKyVnKlrecV576iLzEm3n4zhH0btleneWkrd+Gx8BkRvQyut0/IGkAyT3K2JxW0GaxDE/ihw1sfbx9vPsyaKAnmVuK9uyjdisi0qnorr+9BKVw490XMHXaU/xuaTQxvf1orswnPauZAbf9masHWY58jEOxRHLF44/g8fzrzLr1duYmRhPq70FtUTbppVbG3vIQd96ShP/J+zRyFmrc9AWP3vcFeW2ybb995928DYAB62UPMvfR0XifgvIiIq0YArG6WzXSYMHTAna7w03uuXqKNqaxLj2fol011NQ34bDXklvmwuloE0I2+hEYcHA3ycNsxtPojZ/fwRNPDJ4mzB7NOB173tvgrKRsZyMZX73N0z+4+xA2iquqiK86ZJY8OYu4ylfz2stv84PnRJ7+44iDAzCOMkqKIXhUD/zdx3TA3J2QXvDDrkrs0OIBYgDBwdZDdPxN9OjRlfItu3EAnmq3IiKdioI67cZI8LjbmD7gPNLWZlFYacPD5xfclJhEUh8/Wv4Wew29nplfOzD7uemcmkK5YuobTDT4trqxNQbFc+Xf/82EWzLYkL6DioZmvKxXcX9yf6IPegwpcuy8hlzHS19fibP50GU8TAfaZXuXFxFpzXB0q0bu5arI4NOX3mFumpkBI5KIDQ+nt58FL1M1xtwtbHVzfIPb43vggYf7sc5tp1a7nDhcXvToE0aEv/tp1xFR8fTupoHTZz3HLr575WOCByQR8XMq8xYMJ+aysNajul127E1g8TS5a+J7eHji6QkOu4NW42gMZjw9D7WXAU+zCZfduWcftVsRkU5FQZ125mnty+AJfRl8uEJmXwKth9powivIeohEdCYCI5IYG5F0grUUccPsS6C17cSDDiwvInLc6ln70fu8lxPFndNv4YLwFqNlbVns+NzgJqhzEhi98Pb1oc+IiUxK0tIFcjge9L7o1zx0UyQ7P3qJJ959n08i/swNSS1+J41eePtBbX3jYVdAbagHn0BL68UyXE00Nh5qLyd1DQ2YfTz33Bio3YqIdCoKsYuIiMiZrSmfTRtKCRk9hnHhbaY/O2qpbq9pJMbuBPesoLCw9tA34SIApu4kDI2lq8mH/tfcwE1Ju/jolc9ZUdqi5RiDCetjYWfujhb5Gtto2EFePoT3CW6Tu7GGosJS7G53aqSwoJReoT32BILUbkVEOhUFdUREROQM58RhB09T22krLsrXrGdtaXsFdQJISOpDxrI1FBx0E+6kZMmXvPttNlXKCC8tefbmot9fy9iGH3nt9eUU7Mt4bPQnedhA/DetYNHWRjc7OilY8jOrmmIZPiSkzXB8O9uWryHTzYpVrl1pLFsfwIABIXuDOmq3IiKdiYI6IiIicmYzhREd60fezytZs3PfnaiTik0/8NYiB/0i22s2upHQsecxquS/zP7PRkr2L0fURMnK+bw8639srgDzoZLeylnL1CuF2/44Af9lHzHrixz2xGIMdBt7IdcmV/DZS3P5ZmvLFdvqyV3yCS+/t4XQK3/JLyLbNCpTOGMi8pnzZirZ1Qf2su/ayrxZ89iWdD4T9q+aqnYrItKZKKeOiIiInNmMgYy+7ho2TnufqXdmEB/bHXPdTooaorjuvvOomb2KzHZ6a0OXZG5+oJJZL8zijgXBxIX74KjYwbbtLmKvuo27rna/bLSc7Qx0GX4Zt1+by9/ff5+PIu/hliH+GDz7cOkDf8Jj9lzeufthPo3tSy9/qC3OZ2t5IKMm3c7vJsUdvAKqhzfhF15NyoK3eOz3/yUksjt+rhoKs8rwGX4F9/0mhe4tgjRqtyIinYfHmu1LDrP2zOGtmDWbxsoKhv7u9pNZJ5FTomTDerIWfMfAG2/EPyS0o6sjckycDjvLn3+O3sOHkXDFFR1dHekgy16eia2ulrhfXdXRVTm1bPVU1Tkx+/rjc9CCj04aq+to8vAm0L9NkteGcras30ZOmR2zNZiEwTGE+Owtb/Ah0M905OM7GqmusWP09ce37TanjZrqRvDxw9/SZjB0UyVZGzPZXlKLw+JPWEwc/fv6n9VP13Zt3syOlT8Tc9kV+HTt0tHV6TiHa2/OJmqqm3CZvQn0a9menVTlZbF5204qG8ES1I2ohH5EdHGT2NhWT1VdM5YAX7yMTezMSGdzThWNJh+CI2NIjA7ikOumqt0ekqOxibS5H9B39BjiLr24o6sjImcxXZNFRESkc/H0IfCQd6FGvAIC3K8a6d2VuJEjiTtS+cMd3+RFgNX9mpQYPfG3HmJHi5XolGFEH6racvY6XHszWvC3WtxtIDA8llHhscd4fAs945PpGX+UdVO7FRE57SmnjoiIiIiIiIhIJ6SgjoiIiIiIiIhIJ3RC069sNdXYGxvJ/WnRyaqPyClTu3MXADvWrceS1V4pMkXah8u5Z/WS+orKDq6JiIiIiIh0lBML6tTW4WyyUfjzypNVH5FTrjR9c4b3wt4AACAASURBVEdXQeS4Ne2u6ugqiIiIiIhIBzmhoI5vjx40VFbQ75LLTlZ9RE6ZiuxMilevJmLCL/Dp1r2jqyNyTJodDtI//Zig8N4dXRUREREREekgJxTU8TAaAQ/MPt4nqToip47Jc89qEiYvL7Vh6XRcDgew7zosIiIiIiJnIyVKFhERERERERHphBTUERERERERERHphE5o+pWIiIh0nIbKchxNNrZ8Pq+jqyJyzBxNjQDkLvoBg1FdUulcmpv3rEJZtaOwg2siImc7/YKKiIh0Yh4eYDSZO7oaIsfMZbcBYDSaMZjUJZXOpdnl3Pv/PDq0HiIi+gUVERHppLytXXE0NpJ8y60dXRWRY1a0ZjU5Py4k9peX4tcjuKOrI3JM7A31/DzzZQJ7hXZ0VUTkLKecOiIiIiIiIiIinZCCOiIiIiIiIiIinZCCOiIiIiIiIiIinZCCOiJyUrl272Dz+kwKql0dXRUREREREZEzmoI6InJS2bMX8/zfPuDHfOeRC4uIiIiIiMhxU1BHRERERERERKQTUlBHRERERERERKQTUlBHRERERERERKQTMnV0BTojV3k+67PthA2OolttHssWrSW9oAqbyZ9esYMYNyaKrp7u9mygYM0aVm7Mp7jKhod3IGFxAxgzsnV5V3k+G7Y7CE2OxFqRxdIl69m6ow6XT3diho9gXFIXzIBrdx7LF60hraAGp8VK+KChjBvWCz8371xflE5qajpZO2pp9g4iLH4Ao0dF0lUtQFpxUb4tjaymHiQlBePTapuTnVvSKDD0YXCMtU1EuI6CTZmUeUcSC4AHHh7gqi7k5x9Xk5a/myZ354ezksy1uVQHRpAcE+Q+ynw0ZURERERERM5Cuj86DvbcVF59agHr81cz+4lZfJFeh9nPF0NlBvOmP8UjLyynyNF2rxrWz3mBh/75FWvLwM/qj2d1Jl/OeJpHXmxd3p67jNee/o4N23/m1X/NYWGeEy9/Txq2LeaVKTOYubCUpsKfmfnYm/w3swmLvxeOwlXM+cd0pn2cTX2r93VSsvRDHn3gTb7ZVo85MABvRynL35nBg1MXsKWm3b8u6VSaacz4gWemL2BjXZtNtmy+efElnpy9jBxbm23V6Xz29Ft8t31vcmSDAY+6NN558jXmpddiOsz5kff9u/zjlSVktT3mXk0ZP/LSE++zuMjjZH1IERGRM4Jt9w62bdjMhk05FFcf1Pk8iLOulKxNm9m4OZeSoygvIiKnP43TOF7OXSybs5TQSffz1Miue7/IJi6c9ypTXp/P1+cO4vcp3vuLOwpX8fkXZST/6S/cd373veUdXNh/Fg+/+jXfThjMb5ItB47vKCV17mqibn2AO5MD9kTfbOOInzad1z/5Gr/wSrwn38uTKXtHTDgnkvLKM0z7bCErzotgfLc98TpHQSpvvZVD4n1/Y3KK9cAfvDqbz2bMYva8vky9uR9e7f19SSdhpEdiHFFvLyMjy8aIgQeGkNkyN7OhKZTQynQ2FF1IVIRx/7b6jG1saozhygGBGIsAVyMZ81Ppe9V9TB3R5cD58flrTJnd4vwwWhk2djDdnlrF0vSJxAyytKlPA5uWriav52BuTglUFFpERARwVmYw/7U5fPDfzeyyGTG6nDh9Q0i5bBK//+0EYgLa7GAv4ef35jD7w+VkVTZjMLggoA9jrpnM7bcMJ7Ttz6+IiHQaukc6XrZcCrqO49r9AR0AC5HjRzI0YBcZGTtoOfDAFDaOB155mN+O696ivIne5wwl2WcX2zJ3YW95fEceJcHjuHJfQAfAsxejz+mPz/alLDWP4eqUFlNgjEEMHjOAkLpstuXsO5KdzB+XUDzycq5tGdABCIji0hvGYFi0kk2th/bIWc7cO4aksDLS0opatEkHuevTqYwfw7kRBazfUMqB53s2sjZtoSo2lqS9wUQcxezsOYbr9gd0ACxEnnfw+REweDhjeu8k9ad0Dho4VpVGamo5fccNZ4C7eYUiIiJnG3suX019hlkbunL1tBf5fOk8vvthNi/el0zjt6/wz1eWU+ZquUM9m+a8wD/fLybmd48zZ8H/sWDh67x0zyCq573AU+9sOvj3V0REOg0FdY6XwZ+EATG0fRCCdw9Cgw2U7a6m1e8pRvx6dqNL21w7lkC6doHdVTVtygfRPzEK37aH79mN7iZPYhNiCGqzzdijO8Ee1VRV7b3ddpSyZUst8QOi2uRG2cOzbzTxlnyyCzX8VlrwDCNxYBfy0jIp3tc0bEWsX1dG/IAhJCcGs219OqXOfdsK2LSpnKiBcQTvi+AYAkkaGIN/22N7dz/4/PCO4pxxEVQuX8PqVr1QF2Ur17CyNppxYyJwm6ZKRETkLFO/6js+XhHElX/5E9eO7ovVDKaAYAZe9mvuuSmOnf/7gaXFzv3lncWpfPJJHjG//jP3XjOI8CBPTL49SbzkVh78w0BKPvmc7/PUFxQR6aw0/ep4GQKxWt3cZhoseFrAbne0CdIA1FO0MY116fkU7aqhpr4Jh72W3DIXToezdVGjH4EBB/95PMxmPI3e+PkdPGHK4GnC7NGM07HnvQ3OSsp2NpLx1ds8/YO7D2GjuKqK+KqDaypnMwv9EmLx/18mm8t/QZ+eBuyF6awrjOKcAUGEl8fR4/MM1peeS0iwAUfhNtIKezFwYAhmoAnAEEBgkPngQ7s9P0z0HTOcQZ/MI3VFOeMu7b4n2uwoY3nqJlxDrmVUuPHgY4mIiJx17BRkFVAfmUxK/7aP7DzpkxRHb0cqBfkOCDUCTkpXrGK1M5k/Twxv84DERNh54xj59nOkLi/ml+G9dWMgItIJ6dp93AwYDzXOyU0+V1dFBp++9A5z08wMGJFEbHg4vf0seJmqMeZuYaub4xvcHt8DDzzcj7HyaPPGLicOlxc9+oQR4e8+yWxEVDy9u2nAlrTm2z+WRM+5bN5cx0U9fShen05ebDJ/7mbA09qf5C5L2LixionBAexK28b24Hhuimh5OfHAcKi8xm5eN4UM5pxhXzFz6VryL5xIXxPY89aQut6HEfcNIlgxHRE5bvXkr0gldW0uOyqb8PAJIixxKOPPjaObm9izrXQbyxauISO/gnp8Ce43gDG/GEy4TxkZK3JwRSSTENK6+9RQuIHF369nS1ENzb5dCEscynnnxtBNvSw56czE3vwkn918iM0mIyYPI8b9v5tNbE3biiPmSuKsbn5M/aOJjfNgUVomNfTG2k61FhGR9qPuxilRz9qP3ue9nCjunH4LF4S3yEZny2LH5wY3QZ2TwOiFt68PfUZMZFKSm56ryKH4x5DY38WHm7OoG9uLDevyiR5yIz1MgCmCQcm+zFi3larxsaRtysY68HyiTmR+lDGIlLFDsD61imXZE+gb20xW6mq2dR/CtUMOmuQoInKUqlgzaxpPzK2k37lDiA0OpKkkg8/+Po8vL7iDaVPGE7a/J+SkfOUn/PtfX1IQkkxK/54EGurJ/eFN5n+5mj9OiSX1sddwPvA6CSH7knw52LHoHf45LRXXwKEMCA/EULeD1JmP8+m31/HoY5eToEuYnDJ28jdkUGCN4/p+e/uajlJ2ljTg26sHPd31+g3+BId0xbapjBI7WNVdFBHpdBTUORWa8tm0oZSQ0TcyLrzN8gKOWqrba/qTsTvBPStYU1iLK8mqBEpy9IwBJCRGUPttFtnFVWzI7E3yb/cl+bYQO6g/3jO3klFmIC3DmwETIk54BTW/5GGcE/YTy1Kzuaq3k9SlRfQddyMJbRNLiYgcJUfBUj7+cCdDH5zKXy8J3nsNs3PZwBnc8+9PmX/RSP44bM9Klc6dqbzx7x+xXP8Yr02KJWD/j2YdWfPf4IWXFuNqaia45fHzv+fVF7IY+Pgz/GZktwOdqqqtfPjEM7w8tx/P/aG/VpiU9tdYxuYFnzDzg0rOufsPjN435MZRTWUFWPv7437Qq4HAoACoqKTaASioIyLS6eg+/5Rw4rCDp8nUZuaJi/I161lb2l5BnQASkvqQsWwNBQflv3NSsuRL3v02myqnu53l7GakZ2IskaXbWb84gy3hCQwKOdAd9OkfzwBDFpsXbSXDI54B/b1P/C0tEYw5N5KS5etYt2YNKyr6ce7YtvP/RUSOnqn3RKbMncodvwhu8RTLTPh5oxjqV0JGevHelfjs5PxvAWuir+T2VgEdAF+iL7mZa3rsYGtjy9dtbPnme3acdz03twzoAATGcuVvfoHhf0tYpxUmpb24Svn+mSncedvd3HjFPTz1gycXT3uCBy4Ma9EebdiamvH0PNSvqceebY02bM2nptoiInJyKahzKpjCiI71I+/nlazZuS+C4qRi0w+8tchBv8j2GjBlJHTseYwq+S+z/7ORkv1rrDdRsnI+L8/6H5srwKx8JeKGuU8MiSGFLPwum17J/Qlr2R/078egpEaWfbuJhqQ4Ek/K9IK9CZOr1/LBf9bRMHgEI0PVOEXkRJjwDw6ma5tBsnhZ6doVKvetxOcqJ21DEYljU+jlrmdksJIydhDdW/5cO4pJT6shcXAM7sLanlHxJFpyycyzn6wPI9KawYuwoWMYP3E8F182iojKZXzw2od8s7n6QJlmcDWDxyET3bHnbqAZNwt8iIhIZ6DpV6eCMZDR113DxmnvM/XODOJju2Ou20lRQxTX3XceNbNXkdlOb23okszND1Qy64VZ3LEgmLhwHxwVO9i23UXsVbdx19XulzsXwbM3iQMC+L8vfZiYHNpmRLY/Scmx2BZsIPG6WE5WyghDj2TGDpvP0wtMXHjjALorpiMiJ6yOwjVrWLUxh8KS3VTX2bDZqsnd6cTp3PugxVZKyc6uhIUeer6nOawXYS0vhI4KdhU3kPbpyzzxX3d7NFG0u5LESt0qS3vxJ+68i4jb95+/KSH11elMnfIGlpl3cUGoCTw8sVg8sDXZDnGMZuxNNvAyYzlM3EdERE5fCuocB0vS5Ux/z4nZ183EY1NPLv7rdCZ4eLcKlnj2GcndM2KYuH4bOWV2zNZgEgbHEOLjpPGxZ7jA4INl//Ev49/vuD++OWI8U945B6Nv28eOYLAO5663B4KPX6shWH6x47n/uWQu35jJ9pJaHJax3BgTR/++/moAchgWBk7+K+9dA97Wg1tK0NibeDX5Wky+/q3a2/GcH/sZzQQF+WLpm8C4wf4n64OIyFnKWbGRj/71Mu9sMJM8dgj9I6MJD/DCy1SFKTuNjH0Fm5uw2TwJ8D70Xa2HlxlLy4tdsxOHw5uefcOJDnC/X3S/JPr01KBoOUUswYy+9VeM/f4Fvv7+Cs69JRJPox+BVthdVXuIkTguqiqroUtQm2mHIiLSWeie/nh4+hB4yEQfRrwCAtwnRfTuStzIkQeeqByq/OGOb/IiwHqIlItGT/yth9jRYiU6ZRjRh6q2iBsGb1+CDpUu51Bt8XjPD6Bp2yI++raW4b85l/4aQiYiJ6SO1W+/xhvZMdz/+h1cEtHiYtaUQeGHhgNBHYMXXl6N1NcdOqmIs6aBWif7H8Bg8MLH35eIsVdwY7Kyf8lpwjeE3mHNrCrahYtIMHenZ08LNSVllDlosdrbXq4aSorLMQf3IOTg54UiItIJKCYvIqcF+86NzJ39DUUDf8m143so4iwiJ6ZxO+tW7ST03F8wIaJNdNpZTVVli1UCzD0JCSknL6+KQ60dUJudS37LGSzmYEKCy8jPqz7kPiInnT2H+f96gic+2IrbCVWuRurrwMt7X6DRi5j+0Ri2bWNLjZvyNZlkZDQTlxSNxseKiHROCuqISIdq/Pn/eOCOx/j9HTNZZBnPXbePpa8eeovICXPsWXnS09Sms+OkbMVKVpa0mIxisDIgOZKMhcvIcZfX2J7Lj/9bz+6WrxmCGDAkks2LlpN/0AqTDnZ8/yGvf7kFpdSRk8ochLdtO0u/X83WhoM323LT2ZTnRb+YPntz4ZkIHjaUgfZ1LF5UROum6mTHkqWsqE9g1IheepgiItJJKagjIh3Ks98obpr8K/709yd48R9XMLibLksichJ4hhOX4EfOT0v5uWTfrayD8nVf8eq3dmL7tcz7ZSJs4kWMK53HCzOXkN1i8SDn7u0seGE2i61DGNhqeoqJsAsu4pwdn/DSG6spbtr3egM7Uj/m2Rmfs7G0GS9d0uSksjL80vFEZH/NzBcXsrXyQJimZnsqbz73JVv6jOfiMd3Yt9aAqe85XHVZN1a/+QYfLC+hEQAbu1Z9zsuvr6HL5ZcxIUIhHRGRzkpXcBHpUIYuYQwaEdbR1RCRM42hC2Nvu4W1U2bz2E0bSezfE0ttMbkNsdzy2CXUPJ/KthbFjdYUbnvsemZOe50/TvqI2JhgfF01FGaVEXjuTdw7uYE3Fq7AgwNJkY1dhvPbx8t58V8zuPXrEBIi/HGU5ZOR6aT/5Lt46KZ4t8udi5wI/5RJ/OWRBp5/aSa3f/sBfcO7YGmqpDC3Eq+k87n38WtJCWy5RwApv7mTu2pm8uo9dzM/IpQuVFGYZyP88t/x0K8HEXioNxMRkdOegjoiIiJyRvKMGM9DbyZwyarNbC+1Ye7am6RhCYT6OGh8+g0uMfm1StzuFz+Rv8weypVrN5NZUovdFEDYPQkkRVth6yc0EEhoYOuhN/4JFzPlrWFcvTadrOIaHJ4XcFtCIkmRgepkSTvxJuqi23l+9C9J35hF/q46HEYfuvWJJmlgmPtVrHwjuWjKNIZfs4n1W3dRhy/BcYkM7GdFM55FRDo39TdERETkzOXdk4SxPUlo9aIJryBri4COk4r0n/kpDRIuG0W/kWPp16q8g7x16eQEJXFVnJuxN17diB01lth2+QAi7hkDQkkaE0rSUe9hpkvMYMbHtGOlRETklNNMbxERETnLGTHXZvL1K6/w/MsL2VLRIluyvYKMb97l2XcLSL71UkZYO66WIiIiIm1ppI6IiIic9fyHTeLhKfD6G2/ypy/fpVfv7vib7VQV76DKrz8X/ukv3PrLcE1VERERkdPKCQV1GndX4mhsJHfx4pNVH5FTxlZVBUDxurWYvJTKUjqXZteedZJrS0s7uCYiZwpvIs+/hafOu4rirFwKdtXQ2GzGr1sI0bGhBOgxmIiIiJyGTqiL4mhsxOVwUJW7/WTVR+SUaW7e87+1xcV4eBy+rMjpZl/7tdfWdWxFRM40Jj9C4hIJievoioiIiIgc2QkFdfyCQ2isrGDo724/WfUROWVKNqwna8F3DLzhBvxDQju6OiLHxOmws/z557BG9O3oqoiIiIiISAdRomQRERERERERkU5IQR0RERERERERkU5IQR0RERERERERkU5IazmIiIh0UnVlpThtdla8/EJHV0XkmLkcTgA2fTgXD4OeM0rn0rx3xYLKvLwOromInO0U1BEREemkjGYzzU4XPt16dHRVRI5ZU20NTbt342XtgtHs2dHVETkmLpeL2h1FmLwsHV0VETnLKagjIiLSSXkFBmEz1RJ5/vkdXRWRY7Zr82Z2rPyZ0OEj8enapaOrI3JMHI1NpM39AP+ewR1dFRE5y2msq4iIiIiIiIhIJ6SgjoiIiIiIiIhIJ6SgjoiIiIiIiIhIJ6ScOiJyyjSW5ZFTWIPD05+QiHC6eXd0jURERERERDovBXVE5Lg5ytOZP+sDvtjYhatn3M2loe4vKbaiVXw08wM+/XE7lS4jBpcTD2sE50y6gd9PHk6oFo4QERERERE5ZgrqiMhxaKJo2RfMevFbikyeFO3wpMl5iKK1abz36LN8wTh+P/Mhxg3ohXfdDtIWf8WbM5/jyaaHeeaOQfif0vqLiIiIiIh0fsqpIyLHxrWL5a9N5f6n1tF98l95anIMnocs7KRsybd8mdmXax/6NZcO7oW/CUyBvRh02W3ce3MMefO+ZXHJoSJCIiIiIiIicigaqSMix8ZeTkFNHHe8dAXn9PWm4bvDFXZQuD2fhtBk+vdtG/oxE5YYS++mn8jJcUCwsR0rLSIiIiIicuZRUKfd1ZO/IpXUtbnsqGzCwyeIsMShjD83jm7mg0vbSrexbOEaMvIrqMeX4H4DGPOLwYT7lJGxIgdXRDIJIa3/bA2FG1j8/Xq2FNXQ7NuFsMShnHduDN3015X2YIln0oPxR1nYAw+DB+BxqM17yhxis4iIiIiIiByapl+1qyrWzHqSOx/+lNW7wL9rIOaqDD77+xTumbqQQkfLsk7KV37Eo799gtk/FtFoCSDQu4ncH97kL3fNZnHOZuY99iyfbWhssY+DHYve4P7fPs/nGbV4WgPxtu8gdebj3PnwF2yuPsUfV+QgnvSJiSBgRyZbCu1ttjnYuXU7Rd4RREUqAikiR+Kktjif9E3b2JJfjeMIpV27i9i8PpOCatcpqd1RqS9l2/oMsndpyulpwVlDflo669Ye+Je580gt68S5du84/drmac9FedYW1rf4W63fVESVTiUREY3UaU+OgqV8/OFOhj44lb9eErz3y7Zz2cAZ3PPvT5l/0Uj+OGzPms7Onam88e8fsVz/GK9NiiVgf7itjqz5b/DCS4txNTUT3PL4+d/z6gtZDHz8GX4zstuBP2bVVj584hlentuP5/7QH69T9HlF3LGOvpAr+v+TT1/8lKhHfsWwEAtgp3Tt18z+IJ3eVzzMmB6aeiUih+EsZ8Vbr/PyF7k4g3wwxFzGs1POpedhLh327CU8N2UL50z/G7cknh7PsByl65nz988J/PO/eXCCb0dXRxxF/PDydL6s7UXvIDNgov+ku+jX8wRT9zdl8uGMdUTcOYmUhuW8/G4Dl983nvC9HTV79mKef3wr50ybws2nSds8eRxkfvgc/1wbz5R/XkqflXO44zUbN778W8YHnchx7eT89DnvrWmiGXBWlZBrHss/Xr2eIepCiMhZTkGddmTqPZEpc4dgswa3+KLNhJ83iqGvvEBGejG2YZF4YifnfwtYE30lz7cK6AD4En3JzVyz6RH+0UiLoI6NLd98z47zJvPXlgEdgMBYrvzNL/jp0SWsm9yfkT7t/UlFDsM7juv+fj/GF9/iiWu/pVtkd7way8nf6c3Qm+/n0RsGauUrETmsxk0/MGd+GQm3P8q9l4bgqmnEfIQbOWO3aC64zkqfoDPtpllOLhMRE29j2uSowyT9Pzb23Ay2BfTjlwFQuzqD6uiLCG3RUTN278cF13Sht/VMbZt2dlc37h1N10xDWT22Ez6mhaG3PczQ2wCc5Hw8g/u+OeGDioicEc7UX5PThAn/4GC6Wtq87GWla1eo3F2NC8BVTtqGIhLHptDL3V/EYCVl7CC6t4zcOIpJT6shcXAM3m528YyKJ9GSS2Ze2ykvIqeYq4JN3y3gu3U2YiecxwUXjGXChefxi0Gw+Yv5/HdF8Uno7InImctJSXYeJV5xjBwbihcGfPx9cJOWrhVTeAqTbr2QEWF6jC+nln1nBaaQnhhxUFZuo1uwP80ttpv6DOWaWyYyIvRMbJsm+l1+ERcEe2EBvEZezHUjfLCcrIiZiIgcRCN12l0dhWvWsGpjDoUlu6mus2GzVZO704nTuXcisK2Ukp1dCQs99FBsc1gvwlr2YB0V7CpuIO3Tl3niv+72aKJodyWJlZqvLR3JScl37/D02yWMfvKf/HFM9wMXHddl/OLt6Tw29Q269n6EK5VXR0TcctFQ3wh+Pvi3fUgichpqtjWy4s0PWTDiTmIbS5n/6jyGJE8mxd1TuDOQo6iIEt/u9PAEagvIaerCBfqJFxFpN7rEtiNnxUY++tfLvLPBTPLYIfSPjCY8wAsvUxWm7DQy9hVsbsJm8yTA+9BLAHl4mbG0HMXT7MTh8KZn33CiA9zvF90viT49NRhLOpCjmNRvfqZx9B+4YVT31hccQyADr7mEsV88y4+L87g08uQNfReRM4NjVw7rt1dSXNJIs72K3FXrsBs9CAhPIM5SzLosO2FDorCWbeHHhRvIKrUTPOoSfpVihfI81m2rwxofR2SbKVj1RemkpqaTtaOWZu8gwuIHMHpUJF3b9Ipc5fmsz7YTNjiKbrV5LFu0lvSCKmwmf3rFDmLcmCi6urlwuXYXsGrZRtLzyql1eGINi2To6MFEu/2UTiq2ruGnn7MprLRj8OlC30FDGZsSjLLudE4e1l4MH2mji8UDS4++jBwQjH+LQTmu8nzWZdbSJS6OiFZts4GCNWtYuTGf4iobHt6BhMUNYMzI1u3MVZ7Phu0OQpMjsVZksXTJerbuqMPl052Y4SMYl9QFM+DancfyRWtIK6jBabESPmgo44b1ws9NnY/2nDhye3VRUdRIzKh4fAFbQTlewwcSpR94EZF2o6BOu6lj9duv8UZ2DPe/fgeXRLR4PNOUQeGHhgNBHYMXXl6N1Nc1uzsQAM6aBmqdYGmxj4+/LxFjr+DGZP1SymnKsZMdBS5CLgrF31180bsnvXo1s7y4FBdRp7x6InJ6c+St4aN3NrC7uhxbbR3fvL8DT8wkXB9FlF8qr02r4Kqnh5H5wucU900kpseBaVn23GW8+sSeRMkHgjpOSpZ+zDMzV9GcMJD+oQEY60tZ/s4MPl90BQ/dez5xLZJ82XNTefWpKq6ZUcn2lz4ju3t/+of44ijOYN70b/h2zW94/N6RrfKlVG9ewMznviGve38GRXchyLOBklVf8ORXq7jm1ghaP4ZxUZb6IU9MX4EjaSgpUf40V2byxdMLWX7dnTx8dSRKi9f5+Ay5jClD9v7HxMn8bWLr7fbcVF77555EyQeCOjWsnzOTp+ftJnLUAPr18Me+K5MvZ3zD12Nv4/F7DrQze+4yXnt6N1dPTSZj5teU9kkgqosn5RmLeeXLVNLuuYc/xmxn9r+/pqR3PP26e1G9fRVzvlzE8lvu4K/XRLVoV8dyThxNezXQY9zVTN67h2f8+fwhvn2+ZxER2UNBnfbSuJ11q3YSeu7vmRDRZryts5qqyhZrMJp7EhJSzsq8gVMoxwAAFfJJREFUKpzJ3XE3w7o2O5d8G3Tdv08wIcFlrMyrxpncze0+Ih3PE7MF6uoacDsR0NVAXR1YLEfKjiEiZyOvlKt5JuVy0udM42+Lo/nTC9czeO/TjaY1gKuOzfNXE3jzA/xjuPWInRpHQSpvvZVD4n1/Y3JKi/LV2Xw2Yxaz5/Vl6s39Wq8a6dzFsjlLCZ10P0+N7Lp3nyYunPcqU16fz9fnDuL3e+fVuMrX8f5LizD+6m6mXxLeYkREPTnffcSz7yyhxgEJ+ytUzE/zl1Ix5AZmPHIOwUYAJxfHzeah9xeyakIk46wn8AVKp+EoXMXnX5SR/Ke/cN/5+0a2Oriw/ywefvVrvp0wmN8kt5h/6Cglde5qom59gDuTA/YkybSNI37adF7/5Gv8wivxnnwvT6ZY92xzTiTllWeY9tlCVpwXwfhue4JJx3ROqL2KiJyWNDen3Thw2MHT09TmS3ZStmIlK0ta3OIarAxIjiRj4TJy3OU1tufy4//Ws7vla4YgBgyJZPOi5eQ7Dn7vHd9/yOtfbkEpdaRDeYURFe1N8fo0tjUcvNmWm8GmPDORUb2PmPRUROQgTVlsNg7l6qMI6ICdzB+XUDzycq5NaVM+IIpLbxiDYdFKNtW32c2WS0HXcVy7P6ADYCFy/EiGBuwiI2PH3mTvTgoW/8ja8Iu55cLwNlNcfIiYcCWTEpupaPmb7axg165meob3osv+pzNGQsZex9SpV5OipQHPGqawcTzwysP8dlzLqcomep8zlGSfXWzL3EWrLqIjj5LgcVy5L6AD4NmL0ef0x2f7Upaax3D1voAOgDGIwWMGEFKXzbb9nc1jPCfUXkVETksK6rQXz3DiEvzI+WkpP5fs68E5KF/3Fa9+aye2X8tbWBNhEy9iXOk8Xpi5hOzqA1ucu7ez4IXZLLYOYWCrBJEmwi64iHN2fMJLb6ymuGnf6w3sSP2YZ2d8zsbSZrz0F5aTra6MvOxcsrP2/MuvtNGMjZrigv2v5RbXsGcsmpURl00gYvvXzHzhB7ZUHribqc1ZzjvPf0FGr/O4eFwPjTYTkeNgJjYxjqCjKeooZcuWWuIHRLmd0uTZN5p4Sz7ZhW2elBj8SRgQQ0DbHbx7EBpsoGzfSpbO3WxOKyZ22AB6urugGQMZPKw/XVreOXtY6dYditIyyGrx24+Pld59gvDReOqziBG/nt3o0nZGvSWQrl1gd1VNmxGvQfRPjDoo75J3z250N3kSmxBz0Hlh7NGdYI9qqqr2tvFjPSfUXkVETku6/LYXQxfG3nYLa6fM5rGbNpLYvyeW2mJyG2K55bFLqHk+lW0tihutKdz22PXMnPY6f5z0EbExwfi6aijMKiPw3Ju4d3IDbyxcgUeL2fjGLsP57ePlvPivGdz6dQgJEf44yvLJyHTSf/JdPHRTvNvlzkVOROOmL3j0vi/IazOq7O077+ZtAAxYL3uQuY+OxhvwT7mGv/zVxosvv8Ifv/0P4X274G3bTWFOBZ7x47n78RsYqeHaInI8TFa6dTvKJbGclZTtbCTjq7d5+gd3BWwUV1URX9VmiKshEKvVTe46gwVPC9jtjj03244ydu6y0ivE6+Cye3kG9yCkZcDHsxfnXj2B5c98zmN3pZEyciDJgxMZOrD3wTf3chaop2hjGuvS8ynaVUNNfRMOey25ZS6cDmfrokY/AgMO7sZ7mM14Gr3x8zu4HRo8TZg9mnE69rRZw7GeE2qvIiKnJQV12pFnxHgeejOBS1ZtZnupDXPX3iQNSyDUx0Hj029wicmv1bx9v/iJ/GX2UK5cu5nMklrspgDC7kkgKdoKWz+hgUBCA1sPvfFPuJgpbw3j6rXpZBXX4PC8gNsSEkmKDNQfV9qF15DreOnrK3EeOq83HibfFgFFH6Iu/B3PjrqE9I2Z5O+qw2H0oVufaJIGhhGg0WQictxMmE2HXjmyFZcTh8uLHn3CiPB3v09EVDy9u7W9KBkwHuo61fIwriZsTSb8PA+zkqWnGUurzQa6plzDE9PjWLx4HWvXLuL1eR/zeuhALrn1Wq4/Jxit4n52cFVk8OlL7zA3zcyAEUnEhofT28+Cl6kaY+4Wth60hwGD23bpsecBoLttHm3a5jGfE2qvIiKnI933tzfvniSM7XkgKSIAJryCrC0COk4q0n/mpzRIuGwU/UaOpV+r8g7y1qWTE5TEVXFuxt54dSN21Fhi2+UDiLRh9iXQeuwL7RoDepE0phdJ7VAlEZEjMnrh7etDnxETmZTUDlm8jF5YLE00NBw64t1c30hdMwdNmfHtk8TFk5O4eLKTqpxNfD/3Ez54/h28u9/PtXHKOHbmq2ftR+/zXk4Ud06/hQvCW4RGbFns+NzgJqhzEhznOaH2KiJyetEz8tOCEXNtJl+/8grPv7yQLRUt5rXYK8j45l2efbeA5FsvZYSmqYiIiBw7Y3eCe1ZQWFjrfjW+k3D8XiG7KShom/tkHxfV+YUUuVsQ4cBBCIwYxFW3X8pIUy5rNxZz2OJyZmjKZ9OGUkJGj2FceJuxLo5aqttOCTxZTvicUHsVETkdKKhzmvAfNomHp5yP/6o3+dMVv+WmGx/gj7fezQ2X/oEH3sgn+k9/4YErwtGUZRERkeNgDCAhqQ8Zy9ZQcNCqkU5KlnzJu99mU+V0t/PRHT9xQF8yl60hz+Zmu20HS5ekU9viJUfeSt6e8TkrKtrcUntZ8DLTKo+enMmce1ZMNZna/MVdlK9Zz9rS9grqHNs5ofYqInJ6UlDntOFN5Pm38NQHs/hg9oPc9YeruP62yTzw7PPM/egJ/vzLaLRSpIiIyPEyEjr2PEaV/JfZ/9lIyf7ASxMlK+fz8qz/sbkCzMe9FJ+RXuMmcG7td8yas4aCFkuju6ryWfjmXFaGDGNQi6czpiAzdZsX8PGnaZTuv6luIm/JKtbX9CQuvieazHIWMIURHetH3s8rWbNzX1TRScWmH3hrkYN+ke2VLeHYzgm1VxGR05Ny6pxuTH6ExCUSEtfRFRERETmzGLokc/MDlcx6YRZ3LAgmLtwHR8UOtm13EXvVbdx1tfulnY9aQH+uv/ca5rzyEQ/8/ksi+nbBy1lDUXYFAWOv5c/Xw8cLlx8oHziQa347jmdnzuTun8OJDvXFuXsH23KbSbjuVi7vr/G5ZwVjIKOvu4aN095n6p0ZxMd2x1y3k6KGKK677zxqZq8is53e+pjOCbVXEZHTkoI6IiIichozE3PVPbx1uRHfFulGLEmXM/09J2Zf92MDLEmXM2PupQdt94sdz/3PJXP5xky2l9TisIzlxpg4+vf1P6hTdNj3MPXk4r9OZ4KHd6tAkCV8GL/7VwIXZWxlW2E1jXjT47YYkmKsWLDzxzfiwXtfqmQDPUdN4p/xo0hPy6Notw2D9zlcHxtL/96+Gk59FvHsM5K7Z8Qwcf02csrsmK3BJAyOIcTHSeNjz3CBwWf/ylKWpMv49zvu26U5YjxT3jkHo+/B61AZrMO56+2B4OPXqm0d/Tmh9ioicjpSUEdEREROayZff4LavujpQ+DhBgYcbrvFSnTKMKKP9MaHfQ8jXgEBLVaybMHkS1jSYMIOWu7PjF+QmxtxaxgDzwlj4JHqI2eEZrsDO0aMbaf6eXclbuRIWg/WdtPODtcuTV4EWN22SjB64m89xI5He06g9ioicrpRUF1ERERE5JSwUZBTRKW5C127HncCJxERkf00UkdEREREzlIOChZ9xBMZFjwwEf3LX3PryPZZmqJ6yQf8fe5GinJ2E3rp70npqmerR8/G+v/M5tO0JpoBe2kBNnp3dKVERE4LJxTUaSgvw97QwMYP556s+oicMva6GgCyvluA0XLw3HOR01lz854lZauLSzq4JiIinZQphDG3/ZHoxua9LxgIDGu//oB3zAgm3RCHISiU+P7B+GugzjEwEjxgJBeE7lsd7BwutXSjrx5Pi4icWFCn2eXC5XTRuLviZNVH5JRx2u0ANNVWY2hQz0o6l+a99yAuh+PwBUVExD1jIP2Gp9DvFL2dOTiKEcGn6M3OOEaCE4egr09E5GAnFNTx6d4Dysrof82kk1UfkVOmfOtWCpalEjH+F/j26NHR1RE5Ji6Hg43vzSGod1hHV0VERERERDqIJvOKiIiIiIiIiHRCCuqIiIiIiIiIiHRCSi8mIiLSSTU3u2hublZuJemUXK49SW+bnU61Yel0mve22X0LF4iIdBQFdURERDqputJSXPY9+ZVEOqvMr+d3dBVEjltlXm5HV0FEznIK6oiIiHRS1r6ROBrqCQgL7eiqiByzxqpqGsrLCQgNxWjx7OjqiByTZqeT3Xn5dI2M6uiqiMhZTkEdERGRTirl17d2dBVEREREpAMpUbKIiIiIiIiISCekoI6IiIiIiIiISCekoI6IiIiIiIiISCeknDpHzUltcRH5ZY0YAoOJ7hNw2C/PtbuIjNx6AiKj6B1wmsTO6kvZtq0MY68YonoYO7o2cjycNeRnFFBuO/CSX2gM/Xq236nsri0f7Wsn473ah4vyrG0UVLto3vuKhzmQiP6hBOrUEBERERGRTuI0iTac5pzlrHj9GW7/3VSefPo1nnxnLeXOw+9iz17Ccw+/z8L8IxQ8hRyl65nz95f5bFNjR1dFjpejiB9ens4/nv0Pb7/1MW+/NY8ftjac2DGbMvlw6v/xczW4di7nxX8vJM9xYLO7tny0rx2rg4/hIPPDZ7jloa/YZoPGpXP4zU1vsHD3cb/Fvnci56fP936HH/PGcy8x5bklZDmOvKeIiIiIiMjpQiN1jkLjph+YM7+MhNsf5d5LQ3DVNGI+wtN8Y7doLrjOSp8gxc3kZDMRMfE2pk2O4mQsAGvPzWBbQD9+GQC1qzOojr6I0CNcGdqrfbs/rp3d1Y3sibc001BWj8397sfAwtDbHmbobQBOcj6ewX3fnPBBRURERERETikFdY7ISUl2HiVecUwaG4oXgL/PEfcyhacwSSvNSidg31mBKWQoRhzsLLfRLdR//5SkQ2mv9n3wcU30u/wiLthShAXwGnkx1434AsvJiGaJiIiIiIh0chpGckQuGuobwc8Hf0tH10Xk5Gu2NbLizQ9ZUOTC0VjK/Ffnsf4EZ3SdTI6iIkp8u9PDE2goIKepC8EKR4uIiIiIiGikzuE4duWwfnslxSWNNNuryF21DrvRg4DwBOIsxazLshM2JApr2RZ+XLiBrFI7waMu4VcpVijPY922OqzxcUS2maJSX5ROamo6WTtqafYOIix+AKNHRdK1zV/DVZ7P+mw7YYOj6Fabx7JFa0kvqMJm8qdX7CDGjYmiq5sRC67dBaxatpH0vHJqHZ5YwyIZOnow0W4/pZOKrWv46edsCivtGHy60HfQUMamBON7sr5IOa15WHsxfKSNLhYPLD36MnJAMP5HmF7oOkz7dufo23zb47qoKGokZlQ8voCtoByv4QOJ0kgdERERERERjdQ5HEfeGj56Zx5frivHVrWVb97/jDnvfsmPmY3Yc1N5bdq3rNu+illPvsfiIhe+QT6Y9+5rz13Gq098xE+FLZPGOilZ+iGPPvAm32yrxxwYgLejlOXvzODBqQvYUtP6/e25qbz61ALW569m9hOz+CK9DrOfL4bKDOZNf4pHXlhOUZvErtWbF/D0A8/x9k/FNHn6EeTjpGTVFzz5yCy+yrfj0aq0i7LUD3n84ff4NsuGd5AfnnWZfPH0v3n6k+3Un/RvVE5HPkMuY8qjVzO6m5nwiZP524PnE3eEoIn79u3Osbb5tsc10GPc1UweHYAB8Iw/nz9ccXJyCYmIiIiIiHR2GqlzGF4pV/NMyuWkz5nG3xZH86cXrmfw3ilYTWsAVx2b568m8OYH+Mdw6xG/TEdBKm+9lUPifX9jckqL8tXZfDZjFrPn9WXqzf325O3Zx7mLZXOWEjrpfp4a2XXvPk1cOO9Vprw+n6/PHcTvU7wBcJWv4/2XFmH81d1MvyQcv/0HqSfnu4949p0l1DggYX+Fivlp/lIqhtzAjEfOIdgI4OTiuNk89P5CVk2IZJz1BL5AOesdV5sXERERERGRo6KROieiKYvNxqFcfRQBHbCT+eMSikdezrUpbcoHRHHpDWMwLFrJprbDY2y5FHQdx7X7AzoAFiLHj2RowC4yMnbsXQnIScHiH1kbfjG3XNgyoAPgQ8SEK5mU2ExFy5E9zgp27WqmZ3gvuuyfbmMkZOx1TJ16NSn+R/tFiLhznG1eREREREREjoqCOifETGxiHEFHU9RRypYttcQPiMLd2lmefaOJt+STXdhmPpXBn4QBMQS03cG7B6HBBsp2V+MCcO5mc1oxscMG0NNdPhRjIIOH9adLyztrDyvdukNRWgZZ1S1e97HSu08QPhrHJSfieNu8iIiIiIiIHBXdtp8Ik5Vu3Y5ySSxnJWU7G8n46m2e/sFdARvFVVXEV7lav2wIxGr9//buHbTOMowD+D855ySp9a5pLrXB4JJiY6pYsYJa6SBUNy/FoeDo5OIuOKvg4FKLeAHtUMWiIN4QG6SVSKLEVgcRTVM1XgjGptbk5OIglNjmpPGURD/y+43ne8/DOzzL9//eyyIniDQ2p6k5qVZn/g51Zn7NTz9fkc6O2htZmto3pGNh4NPUmR3378yRJw/m8UePZtv2vtx405bc3LcpVzq0hAtVb88DAACwLEKdC1JOpdxw/mFJMjebmbmWbOi6Jt2XLP6f7us2Z9PVZy+eakyp1nqqhWXmpjI9Vc7FTbXn09BUSfM/Hjfmqm0P5ImnenLo0GcZGvoo+944kH0b+3LPw7vz0O3tcYs7dau75wEAAFgOoc5qKbVk3fqL0nXr3Xmwt3L+8XXUb26eyunT8zWHzP/xZ07N55yrytd39WbXnt7s2jObiW+/yAf7X8srz7yYda2PZXfPCsyVtWGlex4AAGCN84l8tZRa0942nhMnJrMim01Krens+C2joydr1J/L78dP5PvqkkVyWffW3PfIvdle/i5Dwz9myeGwlJXueQAAgDVOqLNaSpfm+t6ufHV4MKPnnAs7m7H+N/PSO99kYrb++ltuuDZfHx7MyPQiz6d/yMf9X2ZywU8zIwN54emD+WT8rFfulua0VJKGLHNrGSxmpXseAABgjRPqrJpSNt5xV24bezvPvTqcsTPBy1TGBt7Ks3vfzbHxpLLYzVXLrN95587smHwve18ezOiCa6LnJo7nw+f3Z6DjlmxdcABy+fJKTh17PwdeP5pfzrx0T2Wk/9N8frItPZvbYtMM9VvpngcAAFjbGoZHj9Q+hAUAAACA/yUrdQAAAAAKSKgDAAAAUEBCHQAAAIACEuoAAAAAFJBQBwAAAKCAhDoAAAAABSTUAQAAACigcrVa/a/nAAAAAMC/ZKUOAAAAQAEJdQAAAAAKSKgDAAAAUEBCHQAAAIACEuoAAAAAFJBQBwAAAKCAhDoAAAAABSTUAQAAACggoQ4AAABAAQl1AAAAAApIqAMAAABQQEIdAAAAgAL6C3dLrNPshEEfAAAAAElFTkSuQmCC;" vertex="1" parent="1">
                    <mxGeometry x="430" y="370" width="711" height="466.11" as="geometry"/>
                </mxCell>
                <mxCell id="3" value="&lt;div style=&quot;color: rgb(212, 212, 212); background-color: rgb(30, 30, 30); font-family: consolas, &amp;quot;courier new&amp;quot;, monospace; font-weight: normal; font-size: 16px; line-height: 22px;&quot;&gt;&lt;div&gt;&lt;span style=&quot;color: #6a9955&quot;&gt;// 父类: 公共属性和方法&lt;/span&gt;&lt;/div&gt;&lt;div&gt;&lt;span style=&quot;color: #569cd6&quot;&gt;function&lt;/span&gt;&lt;span style=&quot;color: #d4d4d4&quot;&gt; &lt;/span&gt;&lt;span style=&quot;color: #4ec9b0&quot;&gt;Person&lt;/span&gt;&lt;span style=&quot;color: #d4d4d4&quot;&gt;(&lt;/span&gt;&lt;span style=&quot;color: #9cdcfe&quot;&gt;name&lt;/span&gt;&lt;span style=&quot;color: #d4d4d4&quot;&gt;, &lt;/span&gt;&lt;span style=&quot;color: #9cdcfe&quot;&gt;age&lt;/span&gt;&lt;span style=&quot;color: #d4d4d4&quot;&gt;, &lt;/span&gt;&lt;span style=&quot;color: #9cdcfe&quot;&gt;friends&lt;/span&gt;&lt;span style=&quot;color: #d4d4d4&quot;&gt;) {&lt;/span&gt;&lt;/div&gt;&lt;div&gt;&lt;span style=&quot;color: #d4d4d4&quot;&gt;&amp;nbsp; &lt;/span&gt;&lt;span style=&quot;color: #6a9955&quot;&gt;// this = stu&lt;/span&gt;&lt;/div&gt;&lt;div&gt;&lt;span style=&quot;color: #d4d4d4&quot;&gt;&amp;nbsp; &lt;/span&gt;&lt;span style=&quot;color: #569cd6&quot;&gt;this&lt;/span&gt;&lt;span style=&quot;color: #d4d4d4&quot;&gt;.&lt;/span&gt;&lt;span style=&quot;color: #9cdcfe&quot;&gt;name&lt;/span&gt;&lt;span style=&quot;color: #d4d4d4&quot;&gt; = &lt;/span&gt;&lt;span style=&quot;color: #9cdcfe&quot;&gt;name&lt;/span&gt;&lt;/div&gt;&lt;div&gt;&lt;span style=&quot;color: #d4d4d4&quot;&gt;&amp;nbsp; &lt;/span&gt;&lt;span style=&quot;color: #569cd6&quot;&gt;this&lt;/span&gt;&lt;span style=&quot;color: #d4d4d4&quot;&gt;.&lt;/span&gt;&lt;span style=&quot;color: #9cdcfe&quot;&gt;age&lt;/span&gt;&lt;span style=&quot;color: #d4d4d4&quot;&gt; = &lt;/span&gt;&lt;span style=&quot;color: #9cdcfe&quot;&gt;age&lt;/span&gt;&lt;/div&gt;&lt;div&gt;&lt;span style=&quot;color: #d4d4d4&quot;&gt;&amp;nbsp; &lt;/span&gt;&lt;span style=&quot;color: #569cd6&quot;&gt;this&lt;/span&gt;&lt;span style=&quot;color: #d4d4d4&quot;&gt;.&lt;/span&gt;&lt;span style=&quot;color: #9cdcfe&quot;&gt;friends&lt;/span&gt;&lt;span style=&quot;color: #d4d4d4&quot;&gt; = &lt;/span&gt;&lt;span style=&quot;color: #9cdcfe&quot;&gt;friends&lt;/span&gt;&lt;/div&gt;&lt;div&gt;&lt;span style=&quot;color: #d4d4d4&quot;&gt;}&lt;/span&gt;&lt;/div&gt;&lt;br&gt;&lt;div&gt;&lt;span style=&quot;color: #4ec9b0&quot;&gt;Person&lt;/span&gt;&lt;span style=&quot;color: #d4d4d4&quot;&gt;.&lt;/span&gt;&lt;span style=&quot;color: #9cdcfe&quot;&gt;prototype&lt;/span&gt;&lt;span style=&quot;color: #d4d4d4&quot;&gt;.&lt;/span&gt;&lt;span style=&quot;color: #dcdcaa&quot;&gt;eating&lt;/span&gt;&lt;span style=&quot;color: #d4d4d4&quot;&gt; = &lt;/span&gt;&lt;span style=&quot;color: #569cd6&quot;&gt;function&lt;/span&gt;&lt;span style=&quot;color: #d4d4d4&quot;&gt;() {&lt;/span&gt;&lt;/div&gt;&lt;div&gt;&lt;span style=&quot;color: #d4d4d4&quot;&gt;&amp;nbsp; &lt;/span&gt;&lt;span style=&quot;color: #9cdcfe&quot;&gt;console&lt;/span&gt;&lt;span style=&quot;color: #d4d4d4&quot;&gt;.&lt;/span&gt;&lt;span style=&quot;color: #dcdcaa&quot;&gt;log&lt;/span&gt;&lt;span style=&quot;color: #d4d4d4&quot;&gt;(&lt;/span&gt;&lt;span style=&quot;color: #569cd6&quot;&gt;this&lt;/span&gt;&lt;span style=&quot;color: #d4d4d4&quot;&gt;.&lt;/span&gt;&lt;span style=&quot;color: #9cdcfe&quot;&gt;name&lt;/span&gt;&lt;span style=&quot;color: #d4d4d4&quot;&gt; + &lt;/span&gt;&lt;span style=&quot;color: #ce9178&quot;&gt;&quot; eating~&quot;&lt;/span&gt;&lt;span style=&quot;color: #d4d4d4&quot;&gt;)&lt;/span&gt;&lt;/div&gt;&lt;div&gt;&lt;span style=&quot;color: #d4d4d4&quot;&gt;}&lt;/span&gt;&lt;/div&gt;&lt;br&gt;&lt;div&gt;&lt;span style=&quot;color: #6a9955&quot;&gt;// 子类: 特有属性和方法&lt;/span&gt;&lt;/div&gt;&lt;div&gt;&lt;span style=&quot;color: #569cd6&quot;&gt;function&lt;/span&gt;&lt;span style=&quot;color: #d4d4d4&quot;&gt; &lt;/span&gt;&lt;span style=&quot;color: #4ec9b0&quot;&gt;Student&lt;/span&gt;&lt;span style=&quot;color: #d4d4d4&quot;&gt;(&lt;/span&gt;&lt;span style=&quot;color: #9cdcfe&quot;&gt;name&lt;/span&gt;&lt;span style=&quot;color: #d4d4d4&quot;&gt;, &lt;/span&gt;&lt;span style=&quot;color: #9cdcfe&quot;&gt;age&lt;/span&gt;&lt;span style=&quot;color: #d4d4d4&quot;&gt;, &lt;/span&gt;&lt;span style=&quot;color: #9cdcfe&quot;&gt;friends&lt;/span&gt;&lt;span style=&quot;color: #d4d4d4&quot;&gt;, &lt;/span&gt;&lt;span style=&quot;color: #9cdcfe&quot;&gt;sno&lt;/span&gt;&lt;span style=&quot;color: #d4d4d4&quot;&gt;) {&lt;/span&gt;&lt;/div&gt;&lt;div&gt;&lt;span style=&quot;color: #d4d4d4&quot;&gt;&amp;nbsp; &lt;/span&gt;&lt;span style=&quot;color: #4ec9b0&quot;&gt;Person&lt;/span&gt;&lt;span style=&quot;color: #d4d4d4&quot;&gt;.&lt;/span&gt;&lt;span style=&quot;color: #dcdcaa&quot;&gt;call&lt;/span&gt;&lt;span style=&quot;color: #d4d4d4&quot;&gt;(&lt;/span&gt;&lt;span style=&quot;color: #569cd6&quot;&gt;this&lt;/span&gt;&lt;span style=&quot;color: #d4d4d4&quot;&gt;, &lt;/span&gt;&lt;span style=&quot;color: #9cdcfe&quot;&gt;name&lt;/span&gt;&lt;span style=&quot;color: #d4d4d4&quot;&gt;, &lt;/span&gt;&lt;span style=&quot;color: #9cdcfe&quot;&gt;age&lt;/span&gt;&lt;span style=&quot;color: #d4d4d4&quot;&gt;, &lt;/span&gt;&lt;span style=&quot;color: #9cdcfe&quot;&gt;friends&lt;/span&gt;&lt;span style=&quot;color: #d4d4d4&quot;&gt;)&lt;/span&gt;&lt;/div&gt;&lt;div&gt;&lt;span style=&quot;color: #d4d4d4&quot;&gt;&amp;nbsp; &lt;/span&gt;&lt;span style=&quot;color: #6a9955&quot;&gt;// this.name = name&lt;/span&gt;&lt;/div&gt;&lt;div&gt;&lt;span style=&quot;color: #d4d4d4&quot;&gt;&amp;nbsp; &lt;/span&gt;&lt;span style=&quot;color: #6a9955&quot;&gt;// this.age = age&lt;/span&gt;&lt;/div&gt;&lt;div&gt;&lt;span style=&quot;color: #d4d4d4&quot;&gt;&amp;nbsp; &lt;/span&gt;&lt;span style=&quot;color: #6a9955&quot;&gt;// this.friends = friends&lt;/span&gt;&lt;/div&gt;&lt;div&gt;&lt;span style=&quot;color: #d4d4d4&quot;&gt;&amp;nbsp; &lt;/span&gt;&lt;span style=&quot;color: #569cd6&quot;&gt;this&lt;/span&gt;&lt;span style=&quot;color: #d4d4d4&quot;&gt;.&lt;/span&gt;&lt;span style=&quot;color: #9cdcfe&quot;&gt;sno&lt;/span&gt;&lt;span style=&quot;color: #d4d4d4&quot;&gt; = &lt;/span&gt;&lt;span style=&quot;color: #b5cea8&quot;&gt;111&lt;/span&gt;&lt;/div&gt;&lt;div&gt;&lt;span style=&quot;color: #d4d4d4&quot;&gt;}&lt;/span&gt;&lt;/div&gt;&lt;br&gt;&lt;div&gt;&lt;span style=&quot;color: #569cd6&quot;&gt;var&lt;/span&gt;&lt;span style=&quot;color: #d4d4d4&quot;&gt; &lt;/span&gt;&lt;span style=&quot;color: #9cdcfe&quot;&gt;p&lt;/span&gt;&lt;span style=&quot;color: #d4d4d4&quot;&gt; = &lt;/span&gt;&lt;span style=&quot;color: #569cd6&quot;&gt;new&lt;/span&gt;&lt;span style=&quot;color: #d4d4d4&quot;&gt; &lt;/span&gt;&lt;span style=&quot;color: #4ec9b0&quot;&gt;Person&lt;/span&gt;&lt;span style=&quot;color: #d4d4d4&quot;&gt;()&lt;/span&gt;&lt;/div&gt;&lt;div&gt;&lt;span style=&quot;color: #4ec9b0&quot;&gt;Student&lt;/span&gt;&lt;span style=&quot;color: #d4d4d4&quot;&gt;.&lt;/span&gt;&lt;span style=&quot;color: #9cdcfe&quot;&gt;prototype&lt;/span&gt;&lt;span style=&quot;color: #d4d4d4&quot;&gt; = &lt;/span&gt;&lt;span style=&quot;color: #9cdcfe&quot;&gt;p&lt;/span&gt;&lt;/div&gt;&lt;br&gt;&lt;div&gt;&lt;span style=&quot;color: #4ec9b0&quot;&gt;Student&lt;/span&gt;&lt;span style=&quot;color: #d4d4d4&quot;&gt;.&lt;/span&gt;&lt;span style=&quot;color: #9cdcfe&quot;&gt;prototype&lt;/span&gt;&lt;span style=&quot;color: #d4d4d4&quot;&gt;.&lt;/span&gt;&lt;span style=&quot;color: #dcdcaa&quot;&gt;studying&lt;/span&gt;&lt;span style=&quot;color: #d4d4d4&quot;&gt; = &lt;/span&gt;&lt;span style=&quot;color: #569cd6&quot;&gt;function&lt;/span&gt;&lt;span style=&quot;color: #d4d4d4&quot;&gt;() {&lt;/span&gt;&lt;/div&gt;&lt;div&gt;&lt;span style=&quot;color: #d4d4d4&quot;&gt;&amp;nbsp; &lt;/span&gt;&lt;span style=&quot;color: #9cdcfe&quot;&gt;console&lt;/span&gt;&lt;span style=&quot;color: #d4d4d4&quot;&gt;.&lt;/span&gt;&lt;span style=&quot;color: #dcdcaa&quot;&gt;log&lt;/span&gt;&lt;span style=&quot;color: #d4d4d4&quot;&gt;(&lt;/span&gt;&lt;span style=&quot;color: #569cd6&quot;&gt;this&lt;/span&gt;&lt;span style=&quot;color: #d4d4d4&quot;&gt;.&lt;/span&gt;&lt;span style=&quot;color: #9cdcfe&quot;&gt;name&lt;/span&gt;&lt;span style=&quot;color: #d4d4d4&quot;&gt; + &lt;/span&gt;&lt;span style=&quot;color: #ce9178&quot;&gt;&quot; studying~&quot;&lt;/span&gt;&lt;span style=&quot;color: #d4d4d4&quot;&gt;)&lt;/span&gt;&lt;/div&gt;&lt;div&gt;&lt;span style=&quot;color: #d4d4d4&quot;&gt;}&lt;/span&gt;&lt;/div&gt;&lt;br&gt;&lt;br&gt;&lt;div&gt;&lt;span style=&quot;color: #6a9955&quot;&gt;// name/sno&lt;/span&gt;&lt;/div&gt;&lt;div&gt;&lt;span style=&quot;color: #569cd6&quot;&gt;var&lt;/span&gt;&lt;span style=&quot;color: #d4d4d4&quot;&gt; &lt;/span&gt;&lt;span style=&quot;color: #9cdcfe&quot;&gt;stu&lt;/span&gt;&lt;span style=&quot;color: #d4d4d4&quot;&gt; = &lt;/span&gt;&lt;span style=&quot;color: #569cd6&quot;&gt;new&lt;/span&gt;&lt;span style=&quot;color: #d4d4d4&quot;&gt; &lt;/span&gt;&lt;span style=&quot;color: #4ec9b0&quot;&gt;Student&lt;/span&gt;&lt;span style=&quot;color: #d4d4d4&quot;&gt;(&lt;/span&gt;&lt;span style=&quot;color: #ce9178&quot;&gt;&quot;why&quot;&lt;/span&gt;&lt;span style=&quot;color: #d4d4d4&quot;&gt;, &lt;/span&gt;&lt;span style=&quot;color: #b5cea8&quot;&gt;18&lt;/span&gt;&lt;span style=&quot;color: #d4d4d4&quot;&gt;, [&lt;/span&gt;&lt;span style=&quot;color: #ce9178&quot;&gt;&quot;kobe&quot;&lt;/span&gt;&lt;span style=&quot;color: #d4d4d4&quot;&gt;], &lt;/span&gt;&lt;span style=&quot;color: #b5cea8&quot;&gt;111&lt;/span&gt;&lt;span style=&quot;color: #d4d4d4&quot;&gt;)&lt;/span&gt;&lt;/div&gt;&lt;br&gt;&lt;div&gt;&lt;span style=&quot;color: #6a9955&quot;&gt;// console.log(stu.name)&lt;/span&gt;&lt;/div&gt;&lt;div&gt;&lt;span style=&quot;color: #6a9955&quot;&gt;// stu.eating()&lt;/span&gt;&lt;/div&gt;&lt;br&gt;&lt;div&gt;&lt;span style=&quot;color: #6a9955&quot;&gt;// stu.studying()&lt;/span&gt;&lt;/div&gt;&lt;br&gt;&lt;br&gt;&lt;div&gt;&lt;span style=&quot;color: #6a9955&quot;&gt;// 原型链实现继承已经解决的弊端&lt;/span&gt;&lt;/div&gt;&lt;div&gt;&lt;span style=&quot;color: #6a9955&quot;&gt;// 1.第一个弊端: 打印stu对象, 继承的属性是看不到的&lt;/span&gt;&lt;/div&gt;&lt;div&gt;&lt;span style=&quot;color: #9cdcfe&quot;&gt;console&lt;/span&gt;&lt;span style=&quot;color: #d4d4d4&quot;&gt;.&lt;/span&gt;&lt;span style=&quot;color: #dcdcaa&quot;&gt;log&lt;/span&gt;&lt;span style=&quot;color: #d4d4d4&quot;&gt;(&lt;/span&gt;&lt;span style=&quot;color: #9cdcfe&quot;&gt;stu&lt;/span&gt;&lt;span style=&quot;color: #d4d4d4&quot;&gt;)&lt;/span&gt;&lt;/div&gt;&lt;br&gt;&lt;div&gt;&lt;span style=&quot;color: #6a9955&quot;&gt;// 2.第二个弊端: 创建出来两个stu的对象&lt;/span&gt;&lt;/div&gt;&lt;div&gt;&lt;span style=&quot;color: #569cd6&quot;&gt;var&lt;/span&gt;&lt;span style=&quot;color: #d4d4d4&quot;&gt; &lt;/span&gt;&lt;span style=&quot;color: #9cdcfe&quot;&gt;stu1&lt;/span&gt;&lt;span style=&quot;color: #d4d4d4&quot;&gt; = &lt;/span&gt;&lt;span style=&quot;color: #569cd6&quot;&gt;new&lt;/span&gt;&lt;span style=&quot;color: #d4d4d4&quot;&gt; &lt;/span&gt;&lt;span style=&quot;color: #4ec9b0&quot;&gt;Student&lt;/span&gt;&lt;span style=&quot;color: #d4d4d4&quot;&gt;(&lt;/span&gt;&lt;span style=&quot;color: #ce9178&quot;&gt;&quot;why&quot;&lt;/span&gt;&lt;span style=&quot;color: #d4d4d4&quot;&gt;, &lt;/span&gt;&lt;span style=&quot;color: #b5cea8&quot;&gt;18&lt;/span&gt;&lt;span style=&quot;color: #d4d4d4&quot;&gt;, [&lt;/span&gt;&lt;span style=&quot;color: #ce9178&quot;&gt;&quot;lilei&quot;&lt;/span&gt;&lt;span style=&quot;color: #d4d4d4&quot;&gt;], &lt;/span&gt;&lt;span style=&quot;color: #b5cea8&quot;&gt;111&lt;/span&gt;&lt;span style=&quot;color: #d4d4d4&quot;&gt;)&lt;/span&gt;&lt;/div&gt;&lt;div&gt;&lt;span style=&quot;color: #569cd6&quot;&gt;var&lt;/span&gt;&lt;span style=&quot;color: #d4d4d4&quot;&gt; &lt;/span&gt;&lt;span style=&quot;color: #9cdcfe&quot;&gt;stu2&lt;/span&gt;&lt;span style=&quot;color: #d4d4d4&quot;&gt; = &lt;/span&gt;&lt;span style=&quot;color: #569cd6&quot;&gt;new&lt;/span&gt;&lt;span style=&quot;color: #d4d4d4&quot;&gt; &lt;/span&gt;&lt;span style=&quot;color: #4ec9b0&quot;&gt;Student&lt;/span&gt;&lt;span style=&quot;color: #d4d4d4&quot;&gt;(&lt;/span&gt;&lt;span style=&quot;color: #ce9178&quot;&gt;&quot;kobe&quot;&lt;/span&gt;&lt;span style=&quot;color: #d4d4d4&quot;&gt;, &lt;/span&gt;&lt;span style=&quot;color: #b5cea8&quot;&gt;30&lt;/span&gt;&lt;span style=&quot;color: #d4d4d4&quot;&gt;, [&lt;/span&gt;&lt;span style=&quot;color: #ce9178&quot;&gt;&quot;james&quot;&lt;/span&gt;&lt;span style=&quot;color: #d4d4d4&quot;&gt;], &lt;/span&gt;&lt;span style=&quot;color: #b5cea8&quot;&gt;112&lt;/span&gt;&lt;span style=&quot;color: #d4d4d4&quot;&gt;)&lt;/span&gt;&lt;/div&gt;&lt;br&gt;&lt;div&gt;&lt;span style=&quot;color: #6a9955&quot;&gt;// // 直接修改对象上的属性, 是给本对象添加了一个新属性&lt;/span&gt;&lt;/div&gt;&lt;div&gt;&lt;span style=&quot;color: #6a9955&quot;&gt;// stu1.name = &quot;kobe&quot;&lt;/span&gt;&lt;/div&gt;&lt;div&gt;&lt;span style=&quot;color: #6a9955&quot;&gt;// console.log(stu2.name)&lt;/span&gt;&lt;/div&gt;&lt;br&gt;&lt;div&gt;&lt;span style=&quot;color: #6a9955&quot;&gt;// // 获取引用, 修改引用中的值, 会相互影响&lt;/span&gt;&lt;/div&gt;&lt;div&gt;&lt;span style=&quot;color: #9cdcfe&quot;&gt;stu1&lt;/span&gt;&lt;span style=&quot;color: #d4d4d4&quot;&gt;.&lt;/span&gt;&lt;span style=&quot;color: #9cdcfe&quot;&gt;friends&lt;/span&gt;&lt;span style=&quot;color: #d4d4d4&quot;&gt;.&lt;/span&gt;&lt;span style=&quot;color: #dcdcaa&quot;&gt;push&lt;/span&gt;&lt;span style=&quot;color: #d4d4d4&quot;&gt;(&lt;/span&gt;&lt;span style=&quot;color: #ce9178&quot;&gt;&quot;lucy&quot;&lt;/span&gt;&lt;span style=&quot;color: #d4d4d4&quot;&gt;)&lt;/span&gt;&lt;/div&gt;&lt;br&gt;&lt;div&gt;&lt;span style=&quot;color: #9cdcfe&quot;&gt;console&lt;/span&gt;&lt;span style=&quot;color: #d4d4d4&quot;&gt;.&lt;/span&gt;&lt;span style=&quot;color: #dcdcaa&quot;&gt;log&lt;/span&gt;&lt;span style=&quot;color: #d4d4d4&quot;&gt;(&lt;/span&gt;&lt;span style=&quot;color: #9cdcfe&quot;&gt;stu1&lt;/span&gt;&lt;span style=&quot;color: #d4d4d4&quot;&gt;.&lt;/span&gt;&lt;span style=&quot;color: #9cdcfe&quot;&gt;friends&lt;/span&gt;&lt;span style=&quot;color: #d4d4d4&quot;&gt;)&lt;/span&gt;&lt;/div&gt;&lt;div&gt;&lt;span style=&quot;color: #9cdcfe&quot;&gt;console&lt;/span&gt;&lt;span style=&quot;color: #d4d4d4&quot;&gt;.&lt;/span&gt;&lt;span style=&quot;color: #dcdcaa&quot;&gt;log&lt;/span&gt;&lt;span style=&quot;color: #d4d4d4&quot;&gt;(&lt;/span&gt;&lt;span style=&quot;color: #9cdcfe&quot;&gt;stu2&lt;/span&gt;&lt;span style=&quot;color: #d4d4d4&quot;&gt;.&lt;/span&gt;&lt;span style=&quot;color: #9cdcfe&quot;&gt;friends&lt;/span&gt;&lt;span style=&quot;color: #d4d4d4&quot;&gt;)&lt;/span&gt;&lt;/div&gt;&lt;/div&gt;" style="text;whiteSpace=wrap;html=1;" vertex="1" parent="1">
                    <mxGeometry x="-20" y="150" width="470" height="1230" as="geometry"/>
                </mxCell>
            </root>
        </mxGraphModel>
    </diagram>
</mxfile>